<?xml version="1.0" encoding="utf-8"?>
<!-- Generator: Adobe Illustrator 17.0.1, SVG Export Plug-In . SVG Version: 6.00 Build 0)  -->
<!DOCTYPE svg PUBLIC "-//W3C//DTD SVG 1.1//EN" "http://www.w3.org/Graphics/SVG/1.1/DTD/svg11.dtd">
<svg version="1.1" id="Layer_1" xmlns="http://www.w3.org/2000/svg" xmlns:xlink="http://www.w3.org/1999/xlink" x="0px" y="0px"
	 width="579.582px" height="579.582px" viewBox="0 0 579.582 579.582" enable-background="new 0 0 579.582 579.582"
	 xml:space="preserve">
<path fill="#3B97D3" d="M307.476,76.669l-5.23,8.342c0,0,7.727-1.623,7.803-0.546s0.376,5.383,0.376,5.383
	s-11.332,2.278-10.29-0.229c1.042-2.504-20.478,33.88-20.478,33.88l-3.499,0.245l9.448-33.109l-0.463-12.405l-18.7,1.308
	c0,0-4.037,0.28-13.6-1.147c0,0-6.934,9.682-9.268,12.954c-1.016,1.421-1.673,3.622-5.722,2.765
	c-0.48-0.102,4.907-16.838,4.907-16.838l-4.678-1.16l4.471-1.799l-6.905-15.605c0,0,2.377-2.736,6.349,1.854
	c3.971,4.589,8.471,9.007,8.471,9.007s1.972,2.092,4.145,1.271c2.896-1.095,11.366-1.815,11.366-1.815l18.547-1.566l-0.781-11.168
	l-14.47-32.922l3.229-0.226l24.428,30.333c0,0,10.631-2.638,10.869-1.167c0.238,1.471,0.372,5.322,0.372,5.322
	s-5.927,2.249-7.13,0.499c-1.205-1.749,5.287,7.937,5.287,7.937l23.015-1.475c0,0,13.173,0.837,13.667,4.047
	c0.495,3.211-13.337,6.476-13.337,6.476L307.476,76.669z"/>
<linearGradient id="SVGID_1_" gradientUnits="userSpaceOnUse" x1="318.8359" y1="510.0986" x2="104.1067" y2="138.1768">
	<stop  offset="0" style="stop-color:#000000;stop-opacity:0"/>
	<stop  offset="1" style="stop-color:#000000;stop-opacity:0.5"/>
</linearGradient>
<path opacity="0.2" fill="url(#SVGID_1_)" d="M309.905,502.579c-6.626,0.621-13.328,0.975-20.113,0.975
	c-117.874,0-213.769-95.891-213.769-213.765c0-96.199,63.885-177.734,151.452-204.474c6.088-6.005,1.903-9.405-2.124-10.271
	C133.028,102.8,65.561,188.545,65.561,289.789c0,123.636,100.591,224.227,224.231,224.227c7.236,0,14.383-0.377,21.445-1.05
	C327.982,507.861,325.236,503.153,309.905,502.579z"/>
</svg>
