<?xml version="1.0" encoding="utf-8"?>
<!-- Generator: Adobe Illustrator 16.0.0, SVG Export Plug-In . SVG Version: 6.00 Build 0)  -->
<!DOCTYPE svg PUBLIC "-//W3C//DTD SVG 1.1//EN" "http://www.w3.org/Graphics/SVG/1.1/DTD/svg11.dtd">
<svg version="1.1" id="Layer_1" xmlns="http://www.w3.org/2000/svg" xmlns:xlink="http://www.w3.org/1999/xlink" x="0px" y="0px"
	 width="579.582px" height="579.582px" viewBox="0 0 579.582 579.582" enable-background="new 0 0 579.582 579.582"
	 xml:space="preserve">
<g>
	<circle fill="#FDC40F" cx="288.126" cy="292.407" r="119.116"/>
	<path fill="none" d="M305.931,346.072c1.648-0.158,2.532-3.414,2.513-5.609c-0.071-13.342,1.596-26.279,4.81-37.384
		c11.057-38.297,14.272-50.756,12.885-54.063c-0.516-1.189-1.563-2.013-3.017-2.359c-2.314-0.552-5.145,0.156-6.343,1.171
		c-2.581,2.144-4.741,10.477-6.564,18.11l-0.429,1.799c-5.782,23.365-6.396,29.297-6.759,32.832
		c-0.071,0.811-0.15,1.509-0.271,2.248c-1.79,11.328-0.713,33.191,0.272,38.232C303.72,344.609,304.632,346.205,305.931,346.072z"/>
	<path fill="none" d="M303.287,250.861c-2.604-4.279-5.826-3.032-8.029-1.718c-1.912,1.147-2.277,3.874-2.643,6.523
		c-0.152,1.158-0.32,2.356-0.616,3.334c-2.357,7.873-4.39,19.809-6.048,35.489l-0.133,1.251c-1.722,14.867-0.57,20.709,0.247,24.98
		c0.116,0.635,0.236,1.237,0.347,1.828c0.56,3.447,1.964,3.725,2.552,3.684c1.223-0.084,2.036-1.649,2.103-3.976
		c0.224-11.35,1.664-16.403,2.815-20.476c0.487-1.74,0.935-3.234,1.207-4.975c0.979-6.199,2.829-13.37,4.614-20.292
		C302.776,264.653,305.438,254.404,303.287,250.861z"/>
	<path fill="none" d="M344.669,242.432c-4.562-0.721-6.295,2.516-7.691,5.12c-0.179,0.354-0.355,0.685-0.527,1.006
		c-0.943,1.661-1.852,7.614-2.794,13.926c-0.661,4.329-1.274,8.427-1.786,10.194c-3.902,13.073-7.971,32.979-9.719,41.485
		c-0.356,1.696-0.595,2.919-0.707,3.354c-3.535,15.275-3.619,46.293-2.621,49.678c0.978,3.363,2.022,4.848,3.233,4.677
		c1.581-0.203,2.038-3.093,2.053-4.587c0.209-13.602,5.066-37.621,6.902-46.657l0.517-2.56c0.733-3.812,3.353-12.038,6.393-21.568
		c5.482-17.22,12.307-38.651,12.192-47.139C350.049,243.282,346.679,242.749,344.669,242.432z"/>
	<path fill="none" d="M363.089,211.718c-4.536,2.736-14.231,10.356-57.964,0.295c-5.693-1.312-46.909-9.78-52.129,8.312
		c-0.736,2.502-9.452,17.412-16.247,23.035c-0.126,0.102-1.22,1.299-2.776,2.577c-0.276-1.557-0.102-3.737,0.861-6.285
		c0.757-1.995,8.231-19.571-18.593-14.343c-1.394,0.271-2.612,2.548-2.681,7.212c-0.024,2.269-1.562,7.623-0.45,13.256
		c0.629,3.249-0.319,4.04,6.034,3.585c3.344-0.236,3.169,2.27,2.628,4.093c0,0-0.614,2.711-0.622,2.736
		c-1.722,1.823-3.299,3.028-5.226,4.857c-2.107,1.995-5.573,3.926-7.485,6.07c-1.67,1.863-2.923,5.373,2.518,9.075
		c0.962,7.083,4.172,18.509,5.624,20.837c1.865,3.051,22.023,27.265,23.908,30.317c1.873,3.06,41.414,29.123,48.104,34.131
		c6.699,4.996,25.759,26.533,36.58,42.812c2.808,4.239,5.406,5.584,3.364-1.438c-2.028-7.021-25.358-56.41-42.61-61.896
		c-3.786-1.192-9.123-4.591-13.92-11.651c-2.166-3.187-12.36-16.527-13.528-19.078c-1.162-2.549-5.234-13.323-16.599-15.651
		c-3.144-0.64-4.901-3.919-3.929-10.074c0.87-5.498,3.054-35.735,29.816-42.933c4.036-1.098,9.116-2.89,30.557-1.466
		c4.647,0.299,37.28,5.891,67.374-22.453C368.135,215.352,377.031,203.287,363.089,211.718z"/>
	<path fill="none" d="M280.045,247.999c-1.847-0.451-3.86,0.344-5.353,2.115c-3.03,3.615-4.036,13.438-4.529,18.154
		c-0.075,0.751-0.124,1.337-0.183,1.733c-1.689,12.963-0.18,29.247,0.396,32.694c0.39,2.375,1.39,3.736,2.675,3.666
		c1.33-0.078,2.27-1.756,2.383-4.254c0.643-13.991,2.247-21.434,3.295-26.344c0.445-2.106,0.795-3.76,0.992-5.375
		c0.446-3.909,1.534-7.271,2.508-10.231c1.087-3.348,1.946-5.98,1.455-8.16C283.214,249.931,281.859,248.436,280.045,247.999z"/>
	<path fill="#22356B" d="M288.874,151.559c-77.31,0-139.982,62.672-139.982,139.982c0,77.311,62.672,139.982,139.982,139.982
		c77.31,0,139.982-62.672,139.982-139.982C428.856,214.231,366.184,151.559,288.874,151.559z M337.919,296.5
		c-3.04,9.529-5.657,17.757-6.393,21.568l-0.517,2.56c-1.836,9.036-6.693,33.056-6.902,46.657c-0.015,1.494-0.472,4.384-2.053,4.587
		c-1.211,0.171-2.258-1.313-3.233-4.677c-0.998-3.385-0.914-34.4,2.621-49.678c0.112-0.438,0.351-1.658,0.707-3.354
		c1.747-8.507,5.814-28.412,9.719-41.485c0.512-1.767,1.125-5.865,1.786-10.194c0.942-6.312,1.851-12.265,2.794-13.926
		c0.172-0.321,0.351-0.653,0.527-1.006c1.396-2.604,3.131-5.841,7.691-5.12c2.01,0.317,5.38,0.85,5.442,6.929
		C350.226,257.849,343.401,279.28,337.919,296.5z M302.755,302.816c0.119-0.741,0.198-1.439,0.271-2.248
		c0.361-3.534,0.977-9.467,6.759-32.833l0.429-1.799c1.823-7.633,3.983-15.966,6.564-18.11c1.198-1.015,4.026-1.723,6.343-1.171
		c1.451,0.346,2.501,1.17,3.017,2.359c1.39,3.307-1.828,15.766-12.885,54.063c-3.214,11.104-4.881,24.042-4.81,37.384
		c0.021,2.195-0.862,5.451-2.513,5.607c-1.299,0.135-2.211-1.463-2.901-5.021C302.042,336.008,300.965,314.145,302.755,302.816z
		 M299.703,276.517c-1.785,6.924-3.635,14.092-4.614,20.293c-0.272,1.736-0.72,3.23-1.207,4.973
		c-1.151,4.07-2.594,9.126-2.815,20.476c-0.064,2.324-0.878,3.89-2.103,3.974c-0.588,0.041-1.992-0.232-2.552-3.682
		c-0.111-0.591-0.231-1.195-0.347-1.83c-0.817-4.271-1.969-10.113-0.247-24.979l0.133-1.251c1.658-15.68,3.69-27.616,6.048-35.489
		c0.296-0.978,0.464-2.176,0.616-3.334c0.363-2.649,0.729-5.376,2.643-6.523c2.203-1.314,5.428-2.561,8.029,1.718
		C305.438,254.404,302.776,264.653,299.703,276.517z M365.698,217.648c-30.096,28.344-62.727,22.752-67.374,22.453
		c-21.441-1.424-26.521,0.368-30.557,1.466c-26.762,7.198-28.946,37.435-29.816,42.933c-0.972,6.155,0.785,9.436,3.929,10.074
		c11.365,2.328,15.437,13.104,16.599,15.652c1.168,2.551,11.362,15.893,13.528,19.078c4.797,7.062,10.134,10.459,13.92,11.65
		c17.25,5.484,40.582,54.874,42.61,61.896c2.042,7.021-0.559,5.676-3.364,1.438c-10.821-16.279-29.881-37.814-36.58-42.812
		c-6.69-5.009-46.231-31.07-48.104-34.131c-1.885-3.054-22.043-27.268-23.908-30.318c-1.452-2.326-4.662-13.752-5.624-20.835
		c-5.441-3.702-4.188-7.212-2.518-9.075c1.912-2.145,5.378-4.075,7.485-6.07c1.927-1.829,3.504-3.034,5.226-4.857
		c0.008-0.025,0.622-2.736,0.622-2.736c0.541-1.823,0.716-4.329-2.628-4.093c-6.353,0.455-5.405-0.336-6.034-3.585
		c-1.112-5.633,0.426-10.987,0.45-13.256c0.069-4.664,1.287-6.941,2.681-7.212c26.824-5.228,19.35,12.348,18.593,14.343
		c-0.963,2.548-1.137,4.728-0.861,6.285c1.556-1.278,2.65-2.475,2.776-2.577c6.795-5.623,15.511-20.533,16.247-23.035
		c5.22-18.091,46.436-9.623,52.129-8.312c43.73,10.062,53.428,2.441,57.964-0.295C377.031,203.287,368.135,215.352,365.698,217.648z
		 M282.229,260.157c-0.974,2.96-2.062,6.322-2.508,10.231c-0.197,1.615-0.547,3.269-0.992,5.375
		c-1.048,4.913-2.652,12.353-3.295,26.344c-0.113,2.498-1.053,4.176-2.383,4.254c-1.285,0.07-2.285-1.291-2.675-3.666
		c-0.576-3.447-2.085-19.731-0.396-32.694c0.059-0.396,0.108-0.982,0.183-1.733c0.493-4.715,1.499-14.539,4.529-18.154
		c1.493-1.771,3.506-2.566,5.353-2.115c1.814,0.437,3.169,1.932,3.639,3.998C284.175,254.177,283.316,256.809,282.229,260.157z"/>
</g>
</svg>
