<?xml version="1.0" standalone="no"?>
<!DOCTYPE svg PUBLIC "-//W3C//DTD SVG 1.1//EN" "http://www.w3.org/Graphics/SVG/1.1/DTD/svg11.dtd" >
<svg xmlns="http://www.w3.org/2000/svg">
<metadata></metadata>
<defs>
<font id="core_sans_n_25_extralightRg" horiz-adv-x="776" >
<font-face units-per-em="2048" ascent="1638" descent="-410" />
<missing-glyph horiz-adv-x="614" />
<glyph unicode="&#xd;" horiz-adv-x="485" />
<glyph unicode=" "  horiz-adv-x="614" />
<glyph unicode="&#x09;" horiz-adv-x="614" />
<glyph unicode="&#xa0;" horiz-adv-x="614" />
<glyph unicode="!" horiz-adv-x="491" d="M186 76q0 58 13.5 79t46.5 21t46 -20.5t13 -79.5t-13 -80t-46 -21t-46.5 21t-13.5 80zM201 993v441h90v-441l-15 -647h-61z" />
<glyph unicode="&#x22;" horiz-adv-x="843" d="M217 1434h90v-121l-12 -443h-72zM537 1434h90v-121l-13 -443h-71z" />
<glyph unicode="#" horiz-adv-x="1394" d="M84 397v78h248l84 488h-246v77h260l70 394h86l-70 -394h461l70 394h86l-70 -394h248v-77h-262l-84 -488h258v-78h-271l-69 -397h-86l69 397h-460l-70 -397h-86l69 397h-235zM418 475h461l84 488h-461z" />
<glyph unicode="$" horiz-adv-x="1083" d="M115 1116q0 140 105.5 230.5t285.5 107.5v184h82v-180q175 0 303 -51l-8 -86q-123 56 -295 59v-608q208 -76 299.5 -172.5t91.5 -245.5q0 -156 -103 -254.5t-288 -117.5v-183h-82v176h-10q-95 0 -194 24.5t-175 66.5l8 90q165 -103 365 -103h6v660q-206 67 -298.5 161 t-92.5 242zM201 1116q0 -110 70 -183.5t235 -131.5v575q-144 -15 -224.5 -85.5t-80.5 -174.5zM588 57q148 18 226.5 96t78.5 199q0 116 -69.5 192.5t-235.5 139.5v-627z" />
<glyph unicode="%" horiz-adv-x="1794" d="M176 1079q0 162 83.5 265.5t221.5 103.5t221.5 -103.5t83.5 -265.5t-83.5 -265t-221.5 -103t-221.5 103t-83.5 265zM258 1079q0 -133 60.5 -214t162.5 -81t163 81t61 214t-61 214t-163 81t-162.5 -81t-60.5 -214zM338 0l1022 1434h96l-1022 -1434h-96zM1008 352 q0 162 83.5 265.5t221.5 103.5t221.5 -103.5t83.5 -265.5t-83.5 -265t-221.5 -103t-221.5 103t-83.5 265zM1090 352q0 -133 60.5 -214t162.5 -81t162.5 81t60.5 214t-60.5 214t-162.5 81t-162.5 -81t-60.5 -214z" />
<glyph unicode="&#x26;" horiz-adv-x="1282" d="M94 338q0 146 79.5 250t252.5 186q-120 118 -169.5 204.5t-49.5 176.5q0 136 96.5 219.5t241.5 83.5q151 0 247.5 -87.5t96.5 -231.5q0 -119 -78 -212.5t-250 -170.5l420 -414q81 169 84 408h82q-3 -279 -105 -469l287 -281h-108l-220 213q-80 -119 -202 -180.5 t-277 -61.5q-117 0 -212.5 40.5t-155.5 125.5t-60 201zM176 336q0 -131 98 -211t250 -80q134 0 242 56.5t178 166.5l-461 451q-165 -74 -236 -166.5t-71 -216.5zM289 1155q0 -72 45 -146t172 -200q165 75 233 154t68 176q0 108 -72.5 176.5t-191.5 68.5q-114 0 -184 -63 t-70 -166z" />
<glyph unicode="'" horiz-adv-x="503" d="M207 1434h90v-121l-12 -443h-72z" />
<glyph unicode="(" horiz-adv-x="677" d="M217 635q0 462 307 901h80q-143 -209 -224 -440t-81 -461t81 -461t224 -440h-80q-307 439 -307 901z" />
<glyph unicode=")" horiz-adv-x="677" d="M74 -266q143 209 224 440t81 461t-81 461t-224 440h80q307 -439 307 -901t-307 -901h-80z" />
<glyph unicode="*" horiz-adv-x="1056" d="M135 502l318 178l-318 178l43 74l314 -187l-7 365h86l-6 -365l314 187l43 -74l-318 -178l318 -178l-43 -74l-314 186l6 -364h-86l7 364l-314 -186z" />
<glyph unicode="+" horiz-adv-x="1257" d="M135 641v78h451v450h86v-450h450v-78h-450v-451h-86v451h-451z" />
<glyph unicode="," horiz-adv-x="585" d="M205 -193q65 80 69 170q-24 4 -32.5 29t-8.5 70q0 58 13.5 79t46.5 21t46 -20.5t13 -79.5q0 -97 -24.5 -172t-87.5 -140z" />
<glyph unicode="-" horiz-adv-x="823" d="M135 639v82h553v-82h-553z" />
<glyph unicode="." horiz-adv-x="585" d="M233 76q0 58 13.5 79t46.5 21t46 -20.5t13 -79.5t-13 -80t-46 -21t-46.5 21t-13.5 80z" />
<glyph unicode="/" horiz-adv-x="954" d="M-8 -225l880 1757h91l-881 -1757h-90z" />
<glyph unicode="0" horiz-adv-x="1169" d="M92 717q0 220 57.5 387t169.5 260.5t265 93.5q154 0 266 -93.5t169.5 -260t57.5 -387.5q0 -337 -131 -539.5t-362 -202.5q-230 0 -361 203t-131 539zM178 717q0 -306 107.5 -485t298.5 -179q127 0 219.5 82t140 231.5t47.5 350.5q0 304 -108 483.5t-299 179.5 q-190 0 -298 -179.5t-108 -483.5z" />
<glyph unicode="1" horiz-adv-x="1171" d="M256 1167l393 267h78v-1434h-86v1333l-338 -229z" />
<glyph unicode="2" horiz-adv-x="1171" d="M145 0v84q236 201 514 514q120 135 174 249.5t54 229.5q0 149 -99 226t-266 77q-173 0 -307 -73l-10 79q147 72 321 72q202 0 324.5 -99t122.5 -284q0 -128 -57 -251.5t-181 -262.5q-262 -295 -479 -483h727v-78h-838z" />
<glyph unicode="3" horiz-adv-x="1171" d="M147 31l9 86q143 -64 325 -64q200 0 307 84t107 217q0 338 -547 359v78q154 4 269.5 40.5t185 112t69.5 182.5q0 113 -89 183.5t-271 70.5q-179 0 -324 -71l-10 80q148 69 336 69q214 0 329 -89t115 -236q0 -162 -109.5 -257t-301.5 -124q434 -62 434 -396 q0 -171 -129.5 -276t-368.5 -105q-192 0 -336 56z" />
<glyph unicode="4" horiz-adv-x="1171" d="M86 344v90l731 1000h86v-1012h191v-78h-191v-344h-86v344h-731zM176 422h641v876z" />
<glyph unicode="5" horiz-adv-x="1171" d="M180 37l8 88q141 -72 318 -72q200 0 315 101t115 274q0 171 -99 259.5t-290 88.5q-167 0 -314 -57v715h740v-78h-654v-543q112 41 240 41q218 0 340.5 -111t122.5 -321q0 -200 -136 -323.5t-376 -123.5q-192 0 -330 62z" />
<glyph unicode="6" horiz-adv-x="1171" d="M117 670q0 202 42.5 355.5t121 247t182 139.5t231.5 46q158 0 269 -51l-9 -86q-118 59 -266 59q-105 0 -188 -36.5t-136 -97.5t-89 -149t-52 -183t-20 -207q82 98 186 148t217 50q217 0 339 -126t122 -341q0 -206 -128 -334.5t-323 -128.5q-107 0 -196.5 41.5t-158 124.5 t-106.5 218t-38 311zM203 590q5 -115 30 -207t64 -153t91 -101.5t108 -58t118 -17.5q163 0 265 109t102 274q0 180 -95 285.5t-284 105.5q-117 0 -221.5 -61.5t-177.5 -175.5z" />
<glyph unicode="7" horiz-adv-x="1171" d="M145 1356v78h842v-93l-553 -1341h-92l559 1356h-756z" />
<glyph unicode="8" horiz-adv-x="1171" d="M109 356q0 136 97.5 237.5t266.5 166.5q-155 63 -229 150t-74 208q0 140 119.5 240t298.5 100q192 0 305 -96.5t113 -241.5q0 -246 -316 -368q207 -83 291 -177t84 -221q0 -174 -133 -276.5t-344 -102.5t-345 101t-134 280zM195 356q0 -137 110.5 -220t282.5 -83 q169 0 280 83.5t111 213.5q0 56 -17.5 101t-61.5 92t-126.5 90.5t-206.5 87.5q-177 -59 -274.5 -150.5t-97.5 -214.5zM256 1122q0 -124 81.5 -195.5t264.5 -138.5q318 113 318 334q0 110 -89 184t-243 74q-139 0 -235.5 -76.5t-96.5 -181.5z" />
<glyph unicode="9" horiz-adv-x="1171" d="M104 995q0 206 128 334.5t323 128.5q86 0 160 -25.5t137 -80.5t108 -135.5t70 -196t25 -256.5q0 -163 -28 -294t-79 -223t-123.5 -153.5t-159 -90t-188.5 -28.5q-155 0 -268 52l8 86q120 -60 266 -60q461 0 484 674q-81 -99 -185.5 -149t-216.5 -50q-217 0 -339 126 t-122 341zM190 997q0 -180 95 -285.5t284 -105.5q116 0 220.5 61.5t177.5 174.5q-6 143 -42.5 250.5t-94.5 168.5t-126.5 90t-146.5 29q-163 0 -265 -109t-102 -274z" />
<glyph unicode=":" horiz-adv-x="585" d="M233 76q0 58 13.5 79t46.5 21t46 -20.5t13 -79.5t-13 -80t-46 -21t-46.5 21t-13.5 80zM233 985q0 58 13.5 79t46.5 21t46 -20.5t13 -79.5t-13 -79.5t-46 -20.5t-46.5 21t-13.5 79z" />
<glyph unicode=";" horiz-adv-x="585" d="M205 -193q65 80 69 170q-24 4 -32.5 29t-8.5 70q0 58 13.5 79t46.5 21t46 -20.5t13 -79.5q0 -97 -24.5 -172t-87.5 -140zM233 985q0 58 13.5 79t46.5 21t46 -20.5t13 -79.5t-13 -79.5t-46 -20.5t-46.5 21t-13.5 79z" />
<glyph unicode="&#x3c;" horiz-adv-x="1257" d="M135 639v82l987 469v-88l-886 -422l886 -422v-88z" />
<glyph unicode="=" horiz-adv-x="1257" d="M135 416v78h987v-78h-987zM135 866v78h987v-78h-987z" />
<glyph unicode="&#x3e;" horiz-adv-x="1257" d="M135 170v88l887 422l-887 422v88l987 -469v-82z" />
<glyph unicode="?" horiz-adv-x="1054" d="M115 1382q68 35 158.5 55.5t170.5 20.5q209 0 332 -88.5t123 -243.5q0 -107 -60.5 -199.5t-193.5 -189.5q-99 -71 -130.5 -140.5t-31.5 -199.5v-47h-86v53q0 142 42.5 229t146.5 161q122 86 174.5 166t52.5 171q0 118 -93.5 184t-270.5 66q-187 0 -326 -77zM381 76 q0 59 13 79.5t46 20.5t46.5 -21t13.5 -79q0 -59 -13.5 -80t-46.5 -21t-46 21t-13 80z" />
<glyph unicode="@" horiz-adv-x="1974" d="M104 561q0 189 68 356t184.5 285.5t278.5 187t344 68.5q254 0 457.5 -110t318.5 -305t115 -439q0 -142 -46 -255.5t-131.5 -179t-195.5 -65.5q-90 0 -145 58t-70 162q-161 -209 -424 -209q-155 0 -255.5 99t-100.5 253q0 121 47.5 225.5t124.5 174t173 108.5t193 39 q122 0 222 -51t161 -146l-80 -426q1 -110 42.5 -165.5t113.5 -55.5q87 0 155 59t104 157.5t36 217.5q0 220 -103.5 399t-290.5 282.5t-421 103.5q-167 0 -315 -63.5t-254 -173.5t-168 -263.5t-62 -327.5t64 -327.5t173.5 -262t262.5 -171t326 -62.5q291 0 503 143l31 -63 q-244 -150 -534 -150q-190 0 -357.5 68.5t-287 186.5t-188.5 284t-69 354zM586 467q0 -124 76 -201.5t196 -77.5q254 0 408 218l71 401q-96 135 -299 135q-82 0 -162.5 -34t-145 -94t-104.5 -151t-40 -196z" />
<glyph unicode="A" horiz-adv-x="1290" d="M25 0l573 1434h94l574 -1434h-95l-161 410h-729l-162 -410h-94zM311 487h668l-334 850z" />
<glyph unicode="B" horiz-adv-x="1253" d="M176 0v1434h453q207 0 330.5 -101.5t123.5 -265.5q0 -236 -204 -317q280 -80 280 -359q0 -185 -134 -288t-382 -103h-467zM262 78h377q214 0 324 79.5t110 233.5t-101 234t-296 80h-414v-627zM262 782h408q164 0 245.5 74t81.5 211q0 134 -98 211.5t-274 77.5h-363v-574z " />
<glyph unicode="C" horiz-adv-x="1222" d="M104 717q0 220 88 387.5t252.5 260.5t382.5 93q175 0 295 -53l-8 -82q-123 57 -283 57q-299 0 -470 -181t-171 -482q0 -304 172.5 -484t471.5 -180q166 0 286 60l8 -84q-125 -54 -299 -54q-333 0 -529 203t-196 539z" />
<glyph unicode="D" horiz-adv-x="1363" d="M176 0v1434h291q241 0 417.5 -80t276 -243t99.5 -394q0 -347 -213.5 -532t-579.5 -185h-291zM262 78h199q163 0 292.5 38.5t224 115.5t145.5 200t51 285q0 161 -51 284t-145.5 200.5t-224 116t-292.5 38.5h-199v-1278z" />
<glyph unicode="E" horiz-adv-x="1132" d="M176 0v1434h848v-78h-762v-576h711v-78h-711v-624h780v-78h-866z" />
<glyph unicode="F" horiz-adv-x="1073" d="M176 0v1434h848v-78h-762v-572h711v-77h-711v-707h-86z" />
<glyph unicode="G" horiz-adv-x="1417" d="M104 717q0 211 92.5 379.5t262 265t385.5 96.5q219 0 385 -72l-8 -86q-154 80 -375 80q-190 0 -340 -86t-233 -237t-83 -340q0 -142 49.5 -265t137.5 -211t215.5 -138t277.5 -50q184 0 306 47v570h-447v75h533v-700q-167 -70 -394 -70q-171 0 -314.5 56t-241.5 155 t-153 235.5t-55 295.5z" />
<glyph unicode="H" horiz-adv-x="1402" d="M176 0v1434h86v-631h879v631h86v-1434h-86v725h-879v-725h-86z" />
<glyph unicode="I" horiz-adv-x="458" d="M186 0v1434h86v-1434h-86z" />
<glyph unicode="J" horiz-adv-x="876" d="M33 41l8 84q115 -72 258 -72q156 0 235.5 95.5t79.5 304.5v981h86v-981q0 -478 -399 -478q-159 0 -268 66z" />
<glyph unicode="K" horiz-adv-x="1167" d="M176 0v1434h86v-656l715 656h115l-725 -670l813 -764h-117l-801 748v-748h-86z" />
<glyph unicode="L" horiz-adv-x="1124" d="M176 0v1434h86v-1356h819v-78h-905z" />
<glyph unicode="M" horiz-adv-x="1699" d="M176 0v1434h94l580 -852l580 852h94v-1434h-86v1307l-549 -811h-78l-549 811v-1307h-86z" />
<glyph unicode="N" horiz-adv-x="1421" d="M176 0v1434h105l878 -1317v1317h86v-1434h-104l-879 1315v-1315h-86z" />
<glyph unicode="O" horiz-adv-x="1433" d="M104 717q0 211 72.5 378t213 265t327.5 98t327.5 -98t212.5 -265t72 -378q0 -157 -42.5 -293t-119.5 -235.5t-193 -156.5t-257 -57q-187 0 -327.5 98t-213 265.5t-72.5 378.5zM190 717q0 -193 62.5 -342.5t183 -235.5t281.5 -86t281 86t182.5 235.5t62.5 342.5 t-62.5 342.5t-182.5 235t-281 85.5t-281.5 -85.5t-183 -235t-62.5 -342.5z" />
<glyph unicode="P" horiz-adv-x="1173" d="M176 0v1434h377q251 0 394 -112.5t143 -317.5t-143 -318t-394 -113h-291v-573h-86zM262 651h287q219 0 337 88.5t118 264.5t-118 264t-337 88h-287v-705z" />
<glyph unicode="Q" horiz-adv-x="1433" d="M104 717q0 211 72.5 378t213 265t327.5 98t327.5 -98t212.5 -265t72 -378q0 -198 -64.5 -358.5t-190 -261.5t-292.5 -117q15 -213 287 -213q105 0 178 28q8 -57 10 -78q-81 -24 -188 -24q-77 0 -139.5 15t-113.5 47.5t-81.5 88.5t-36.5 133q-137 4 -249.5 62 t-187.5 156.5t-116 232.5t-41 289zM190 717q0 -193 62.5 -342.5t183 -235.5t281.5 -86t281 86t182.5 235.5t62.5 342.5t-62.5 342.5t-182.5 235t-281 85.5t-281.5 -85.5t-183 -235t-62.5 -342.5z" />
<glyph unicode="R" horiz-adv-x="1210" d="M176 0v1434h402q241 0 379.5 -108t138.5 -294q0 -147 -87 -245.5t-245 -135.5l414 -651h-99l-399 635q-33 -4 -102 -4h-316v-631h-86zM262 709h311q213 0 325 85t112 238t-112.5 238.5t-324.5 85.5h-311v-647z" />
<glyph unicode="S" horiz-adv-x="1083" d="M115 1116q0 156 128.5 249t340.5 93q179 0 307 -51l-8 -86q-126 59 -301 59q-178 0 -279.5 -73t-101.5 -191q0 -115 77.5 -191t262.5 -137q234 -77 336 -176.5t102 -257.5q0 -175 -128 -277t-355 -102q-95 0 -194 24.5t-175 66.5l8 90q165 -103 365 -103q190 0 291.5 81 t101.5 218q0 130 -86 211t-299 150q-207 67 -300 161t-93 242z" />
<glyph unicode="T" horiz-adv-x="1071" d="M23 1356v78h1026v-78h-471v-1356h-86v1356h-469z" />
<glyph unicode="U" horiz-adv-x="1435" d="M176 549v885h86v-877q0 -244 119.5 -374t335.5 -130q217 0 337 130t120 374v877h86v-885q0 -141 -40.5 -251.5t-113 -180.5t-171.5 -106t-218 -36q-244 0 -392.5 147.5t-148.5 426.5z" />
<glyph unicode="V" horiz-adv-x="1347" d="M53 1434h94l527 -1338l526 1338h94l-573 -1434h-94z" />
<glyph unicode="W" horiz-adv-x="2007" d="M53 1434h92l439 -1323l366 1323h107l366 -1323l439 1323h92l-481 -1434h-99l-370 1321l-371 -1321h-98z" />
<glyph unicode="X" horiz-adv-x="1325" d="M43 0l565 723l-551 711h105l500 -641l501 641h105l-553 -711l567 -723h-111l-509 655l-508 -655h-111z" />
<glyph unicode="Y" horiz-adv-x="1310" d="M53 1434h99l503 -781l504 781h98l-559 -865v-569h-86v569z" />
<glyph unicode="Z" horiz-adv-x="1130" d="M68 0v84l878 1272h-848v78h944v-84l-878 -1272h899v-78h-995z" />
<glyph unicode="[" horiz-adv-x="792" d="M258 -266v1802h481v-74h-399v-1655h399v-73h-481z" />
<glyph unicode="\" horiz-adv-x="954" d="M-8 1532h90l881 -1757h-91z" />
<glyph unicode="]" horiz-adv-x="792" d="M53 -193h400v1655h-400v74h482v-1802h-482v73z" />
<glyph unicode="^" horiz-adv-x="1257" d="M113 756l469 678h94l469 -678h-101l-415 598l-416 -598h-100z" />
<glyph unicode="_" horiz-adv-x="1024" d="M0 -248h1024v-78h-1024v78z" />
<glyph unicode="`" horiz-adv-x="806" d="M197 1495h108l258 -332h-82z" />
<glyph unicode="a" horiz-adv-x="1081" d="M84 293q0 158 115 248t329 90h326v80q0 169 -76 235t-248 66q-185 0 -340 -76l-10 76q160 73 350 73q209 0 307.5 -86t98.5 -292v-707h-82v104q-138 -129 -371 -129q-178 0 -288.5 82.5t-110.5 235.5zM166 297q0 -123 85 -185.5t232 -62.5q232 0 371 148v360h-328 q-178 0 -269 -69t-91 -191z" />
<glyph unicode="b" horiz-adv-x="1155" d="M156 0v1495h82v-539q60 60 145.5 94.5t183.5 34.5q101 0 191 -38.5t157.5 -108.5t106.5 -175.5t39 -232.5t-39 -232.5t-106.5 -175.5t-157.5 -108.5t-191 -38.5q-98 0 -183.5 34.5t-145.5 94.5v-104h-82zM238 197q55 -71 140.5 -109.5t180.5 -38.5q180 0 300 130.5 t120 350.5t-120 351t-300 131q-95 0 -180.5 -38.5t-140.5 -109.5v-667z" />
<glyph unicode="c" horiz-adv-x="1005" d="M94 530q0 165 72 292.5t195 195t276 67.5q164 0 278 -57l-8 -84q-110 66 -268 66q-129 0 -233 -56.5t-166 -167t-62 -256.5q0 -221 131 -350t334 -129q165 0 275 74l8 -84q-120 -66 -283 -66q-241 0 -395 151.5t-154 403.5z" />
<glyph unicode="d" horiz-adv-x="1155" d="M94 530q0 127 39 232.5t106.5 175.5t157.5 108.5t191 38.5q98 0 184 -34.5t146 -94.5v539h81v-1495h-81v104q-60 -60 -146 -94.5t-184 -34.5q-101 0 -191 38.5t-157.5 108.5t-106.5 175.5t-39 232.5zM176 530q0 -220 120 -350.5t300 -130.5q96 0 181.5 38.5t140.5 109.5 v667q-55 71 -140.5 109.5t-181.5 38.5q-180 0 -300 -131t-120 -351z" />
<glyph unicode="e" horiz-adv-x="1093" d="M94 535q0 252 125.5 401t331.5 149q205 0 332 -150t127 -388q0 -41 -2 -51h-830q6 -201 118 -324t316 -123q178 0 303 88l9 -82q-124 -80 -308 -80q-164 0 -284 74.5t-179 200t-59 285.5zM178 571h746q-3 198 -106 319.5t-267 121.5q-165 0 -266 -117.5t-107 -323.5z" />
<glyph unicode="f" horiz-adv-x="673" d="M16 987v74h236v57q0 201 74.5 289t222.5 88q77 0 133 -18l-10 -74q-52 18 -121 18q-113 0 -165 -67t-52 -240v-53h321v-74h-321v-987h-82v987h-236z" />
<glyph unicode="g" horiz-adv-x="1155" d="M94 530q0 127 39 232.5t106.5 175.5t157.5 108.5t191 38.5q98 0 184 -34.5t146 -94.5v105h81v-1002q0 -249 -110.5 -359t-345.5 -110q-185 0 -340 76l6 88q142 -90 336 -90q192 0 282.5 88.5t90.5 294.5v57q-60 -60 -146 -94.5t-184 -34.5q-101 0 -191 38.5t-157.5 108.5 t-106.5 175.5t-39 232.5zM176 530q0 -220 120 -350.5t300 -130.5q96 0 181.5 38.5t140.5 109.5v667q-55 71 -140.5 109.5t-181.5 38.5q-180 0 -300 -131t-120 -351z" />
<glyph unicode="h" horiz-adv-x="1157" d="M156 0v1495h82v-547q67 62 160 99.5t186 37.5q201 0 314.5 -121t113.5 -343v-621h-82v618q0 190 -91 292t-264 102q-95 0 -185 -41.5t-152 -112.5v-858h-82z" />
<glyph unicode="i" horiz-adv-x="413" d="M154 1397q0 56 11.5 77t41.5 21t41.5 -21t11.5 -77t-11.5 -76.5t-41.5 -20.5t-41.5 20.5t-11.5 76.5zM166 0v1061h82v-1061h-82z" />
<glyph unicode="j" horiz-adv-x="446" d="M-111 -393l9 74q42 -17 90 -17q103 0 151.5 59.5t48.5 192.5v1145h82v-1141q0 -177 -70.5 -253.5t-209.5 -76.5q-45 0 -101 17zM176 1397q0 56 11.5 77t41.5 21t42 -21t12 -77t-12 -76.5t-42 -20.5t-41.5 20.5t-11.5 76.5z" />
<glyph unicode="k" horiz-adv-x="1009" d="M156 0v1495h82v-883l585 449h117l-600 -463l641 -598h-113l-630 582v-582h-82z" />
<glyph unicode="l" horiz-adv-x="413" d="M166 0v1495h82v-1495h-82z" />
<glyph unicode="m" horiz-adv-x="1755" d="M156 0v1061h82v-115q58 62 140.5 100.5t170.5 38.5q107 0 185 -46.5t124 -129.5q71 82 166.5 129t204.5 47q183 0 282 -116t99 -336v-633h-82v633q0 193 -79 286t-226 93q-94 0 -181.5 -45.5t-152.5 -122.5q35 -96 35 -213v-631h-82v633q0 183 -74.5 281t-226.5 98 q-86 0 -166.5 -41.5t-136.5 -112.5v-858h-82z" />
<glyph unicode="n" horiz-adv-x="1157" d="M156 0v1061h82v-113q67 62 160 99.5t186 37.5q201 0 314.5 -121t113.5 -343v-621h-82v618q0 190 -91 292t-264 102q-95 0 -185 -41.5t-152 -112.5v-858h-82z" />
<glyph unicode="o" horiz-adv-x="1167" d="M94 530q0 159 62.5 286t174.5 198t253 71t252.5 -71t174 -198t62.5 -286q0 -243 -137.5 -399t-351.5 -156t-352 156t-138 399zM176 530q0 -213 116.5 -347t291.5 -134t291 134t116 347t-116 347.5t-291 134.5t-291.5 -134.5t-116.5 -347.5z" />
<glyph unicode="p" horiz-adv-x="1155" d="M156 -395v1456h82v-105q60 60 145.5 94.5t183.5 34.5q101 0 191 -38.5t157.5 -108.5t106.5 -175.5t39 -232.5t-39 -232.5t-106.5 -175.5t-157.5 -108.5t-191 -38.5q-98 0 -183.5 34.5t-145.5 94.5v-499h-82zM238 197q55 -71 140.5 -109.5t180.5 -38.5q180 0 300 130.5 t120 350.5t-120 351t-300 131q-95 0 -180.5 -38.5t-140.5 -109.5v-667z" />
<glyph unicode="q" horiz-adv-x="1155" d="M94 530q0 127 39 232.5t106.5 175.5t157.5 108.5t191 38.5q98 0 184 -34.5t146 -94.5v105h81v-1456h-81v499q-60 -60 -146 -94.5t-184 -34.5q-101 0 -191 38.5t-157.5 108.5t-106.5 175.5t-39 232.5zM176 530q0 -220 120 -350.5t300 -130.5q96 0 181.5 38.5t140.5 109.5 v667q-55 71 -140.5 109.5t-181.5 38.5q-180 0 -300 -131t-120 -351z" />
<glyph unicode="r" horiz-adv-x="727" d="M156 0v1061h82v-174q57 89 148.5 143.5t201.5 54.5q74 0 121 -18l-11 -78q-48 23 -112 23q-220 0 -348 -238v-774h-82z" />
<glyph unicode="s" horiz-adv-x="913" d="M98 57l8 86q140 -94 314 -94q153 0 233 57t80 158q0 90 -70 150t-231 100q-328 84 -328 305q0 124 101.5 195t259.5 71q156 0 287 -59l-9 -84q-123 70 -280 70q-130 0 -203.5 -51.5t-73.5 -139.5q0 -87 67 -143.5t220 -97.5q185 -49 263.5 -126.5t78.5 -187.5 q0 -141 -103.5 -216t-289.5 -75q-83 0 -170 21t-154 61z" />
<glyph unicode="t" horiz-adv-x="727" d="M37 987v74h207v317h82v-317h348v-74h-348v-645q0 -157 49 -225t168 -68q58 0 110 14l13 -75q-67 -13 -127 -13q-152 0 -223.5 83.5t-71.5 263.5v665h-207z" />
<glyph unicode="u" horiz-adv-x="1157" d="M145 440v621h82v-619q0 -190 91 -291.5t264 -101.5q95 0 185.5 41.5t152.5 112.5v858h81v-1061h-81v113q-67 -62 -160.5 -100t-186.5 -38q-201 0 -314.5 121.5t-113.5 343.5z" />
<glyph unicode="v" horiz-adv-x="1036" d="M43 1061h90l369 -965l401 965h90l-444 -1061h-94z" />
<glyph unicode="w" horiz-adv-x="1576" d="M43 1061h92l314 -955l294 955h91l294 -955l314 955h92l-360 -1061h-89l-297 934l-296 -934h-89z" />
<glyph unicode="x" horiz-adv-x="1011" d="M33 0l422 543l-400 518h99l352 -453l352 453h98l-401 -518l424 -543h-102l-371 479l-371 -479h-102z" />
<glyph unicode="y" horiz-adv-x="1054" d="M43 1061h92l402 -963l383 963h92l-588 -1456h-90l160 395z" />
<glyph unicode="z" horiz-adv-x="935" d="M57 0v88l713 899h-682v74h770v-88l-713 -899h734v-74h-822z" />
<glyph unicode="{" horiz-adv-x="741" d="M176 600v70q176 34 176 200v381q0 153 54 219t190 66h94v-74h-90q-87 0 -126.5 -40.5t-39.5 -123.5v-380q0 -124 -36 -187.5t-126 -95.5q90 -32 126 -95.5t36 -187.5v-381q0 -83 39.5 -123.5t126.5 -40.5h90v-73h-94q-137 0 -190.5 65.5t-53.5 218.5v381q0 167 -176 201z " />
<glyph unicode="|" horiz-adv-x="552" d="M236 -410v1985h81v-1985h-81z" />
<glyph unicode="}" horiz-adv-x="741" d="M51 -193h90q87 0 126.5 40.5t39.5 123.5v381q0 124 36 187.5t126 95.5q-90 32 -126 95.5t-36 187.5v380q0 83 -39.5 123.5t-126.5 40.5h-90v74h94q136 0 190 -66t54 -219v-381q0 -166 176 -200v-70q-176 -34 -176 -201v-381q0 -153 -53.5 -218.5t-190.5 -65.5h-94v73z " />
<glyph unicode="~" horiz-adv-x="1257" d="M135 528q0 151 70 228.5t190 77.5q135 0 260 -125q59 -59 108.5 -84t106.5 -25q78 0 123.5 58t46.5 171h82q0 -151 -70 -228t-190 -77q-135 0 -260 125q-59 59 -108.5 84t-106.5 25q-78 0 -123.5 -58.5t-46.5 -171.5h-82z" />
<glyph unicode="&#xa1;" horiz-adv-x="491" d="M186 983q0 58 13.5 79t46.5 21t46 -20.5t13 -79.5t-13 -79.5t-46 -20.5t-46.5 21t-13.5 79zM203 66l14 647h59l15 -647v-441h-88v441z" />
<glyph unicode="&#xa2;" horiz-adv-x="1005" d="M94 530q0 226 130 375t335 174v183h78v-177q164 0 278 -57l-8 -84q-110 66 -268 66h-2v-959h6q165 0 275 74l8 -84q-120 -66 -283 -66h-6v-176h-78v183q-209 25 -337 172.5t-128 375.5zM178 530q1 -197 106 -322.5t275 -150.5v947q-168 -27 -274 -152.5t-107 -321.5z" />
<glyph unicode="&#xa3;" horiz-adv-x="1169" d="M94 0v80q87 77 124.5 178t37.5 240v209h-162v73h162v264q0 208 107.5 311t312.5 103q189 0 328 -74l-13 -81q-134 77 -309 77q-170 0 -255 -80t-85 -256v-264h479v-73h-479v-199q0 -142 -34.5 -246t-112.5 -184h901v-78h-1002z" />
<glyph unicode="&#xa4;" horiz-adv-x="1400" d="M176 221l174 174q-98 121 -98 285q0 161 98 285l-174 174l57 61l173 -176q125 109 294 109q171 0 293 -109l174 176l58 -61l-174 -174q98 -129 98 -285q0 -160 -98 -285l174 -174l-58 -61l-174 174q-123 -107 -293 -107q-168 0 -294 107l-173 -174zM334 680 q0 -157 103 -263t263 -106t263.5 106t103.5 263t-103.5 263t-263.5 106t-263 -106t-103 -263z" />
<glyph unicode="&#xa5;" horiz-adv-x="1167" d="M51 1434h92l441 -754l440 754h92l-454 -775h393v-65h-428v-168h428v-66h-428v-360h-86v360h-428v66h428v168h-428v65h393z" />
<glyph unicode="&#xa6;" horiz-adv-x="552" d="M236 -205v658h81v-658h-81zM236 752v657h81v-657h-81z" />
<glyph unicode="&#xa7;" horiz-adv-x="1028" d="M154 -131l10 90q144 -88 313 -88q151 0 229 57t78 158q0 88 -67 148.5t-223 101.5q-334 88 -334 307q0 103 67 175t183 100q-123 36 -186.5 105.5t-63.5 164.5q0 126 98.5 198t261.5 72q159 0 291 -61l-10 -84q-123 69 -283 69q-126 0 -197 -52t-71 -142q0 -81 67 -138.5 t218 -97.5q337 -92 337 -303q0 -107 -67.5 -178.5t-190.5 -101.5q136 -37 198 -111.5t62 -169.5q0 -139 -104 -216t-291 -77q-177 0 -325 74zM250 645q0 -79 67.5 -139.5t200.5 -95.5q264 38 264 239q0 80 -65 141t-197 95q-270 -39 -270 -240z" />
<glyph unicode="&#xa8;" horiz-adv-x="806" d="M141 1327q0 56 12 77t42 21t41.5 -21t11.5 -77t-11.5 -77t-41.5 -21t-42 21t-12 77zM559 1327q0 56 11.5 77t41.5 21t42 -21t12 -77t-12 -77t-42 -21t-41.5 21t-11.5 77z" />
<glyph unicode="&#xa9;" horiz-adv-x="1703" d="M117 717q0 151 58.5 288.5t157.5 236.5t234.5 157.5t284.5 58.5t284.5 -58.5t234.5 -157.5t157.5 -236.5t58.5 -288.5t-58.5 -288.5t-157.5 -236.5t-234.5 -158t-284.5 -59t-284.5 59t-234.5 158t-157.5 236.5t-58.5 288.5zM174 717q0 -139 54 -266t145 -219 t216.5 -146.5t262.5 -54.5t262.5 54.5t216.5 146.5t145 219t54 266t-54 266t-145 219t-216.5 146.5t-262.5 54.5t-262.5 -54.5t-216.5 -146.5t-145 -219t-54 -266zM438 713q0 197 126.5 320.5t314.5 123.5q147 0 251 -49l-6 -74q-103 56 -241 56q-168 0 -268.5 -106 t-100.5 -271t100.5 -271t268.5 -106q138 0 241 53l6 -72q-104 -49 -251 -49q-188 0 -314.5 123.5t-126.5 321.5z" />
<glyph unicode="&#xaa;" horiz-adv-x="886" d="M117 901q0 121 92.5 183.5t257.5 62.5h184v22q0 117 -48.5 165t-172.5 48q-139 0 -242 -53l-8 70q112 51 252 51q160 0 228.5 -67.5t68.5 -219.5v-489h-78v104q-42 -59 -112 -89t-156 -30q-114 0 -190 62.5t-76 179.5zM195 903q0 -84 53.5 -130t142.5 -46q81 0 150 32.5 t110 98.5v223h-184q-129 0 -200.5 -45.5t-71.5 -132.5z" />
<glyph unicode="&#xab;" horiz-adv-x="1101" d="M156 612v50l424 393v-84l-361 -334l361 -334v-84zM543 612v50l424 393v-84l-361 -334l361 -334v-84z" />
<glyph unicode="&#xac;" horiz-adv-x="1257" d="M125 817v78h987v-563h-86v485h-901z" />
<glyph unicode="&#xad;" horiz-adv-x="823" d="M135 643v74h553v-74h-553z" />
<glyph unicode="&#xae;" horiz-adv-x="1703" d="M117 725q0 151 58.5 288.5t157.5 236.5t234.5 157.5t284.5 58.5t284.5 -58.5t234.5 -157.5t157.5 -236.5t58.5 -288.5t-58.5 -288.5t-157.5 -236.5t-234.5 -157.5t-284.5 -58.5t-284.5 58.5t-234.5 157.5t-157.5 236.5t-58.5 288.5zM174 725q0 -139 54 -266t145 -219 t216.5 -146.5t262.5 -54.5t262.5 54.5t216.5 146.5t145 219t54 266t-54 266t-145 219t-216.5 146.5t-262.5 54.5t-262.5 -54.5t-216.5 -146.5t-145 -219t-54 -266zM555 297v854h295q153 0 240.5 -66.5t87.5 -185.5q0 -174 -177 -229l220 -373h-84l-209 356q-44 -6 -92 -6 h-205v-350h-76zM631 715h215q126 0 191 47.5t65 136.5q0 184 -256 184h-215v-368z" />
<glyph unicode="&#xaf;" horiz-adv-x="806" d="M127 1288v74h553v-74h-553z" />
<glyph unicode="&#xb0;" horiz-adv-x="806" d="M143 1202q0 107 75.5 181.5t184.5 74.5t185 -74.5t76 -181.5t-76 -181.5t-185 -74.5t-184.5 74.5t-75.5 181.5zM217 1202q0 -78 54.5 -132t131.5 -54t132 54t55 132t-55 132.5t-132 54.5t-131.5 -54.5t-54.5 -132.5z" />
<glyph unicode="&#xb1;" horiz-adv-x="1257" d="M135 115v78h987v-78h-987zM135 772v78h451v430h86v-430h450v-78h-450v-430h-86v430h-451z" />
<glyph unicode="&#xb2;" d="M102 483v72q198 157 361 365q117 148 117 264q0 196 -220 196q-124 0 -227 -59l-6 76q101 53 235 53q141 0 218 -69.5t77 -196.5q0 -70 -28.5 -140t-102.5 -165q-149 -189 -317 -328h457v-68h-564z" />
<glyph unicode="&#xb3;" d="M100 508l9 76q97 -47 221 -47q121 0 185.5 54t64.5 134q0 98 -85 159.5t-276 61.5v70q175 0 260.5 57t85.5 137q0 82 -61 126t-164 44q-121 0 -215 -49l-8 72q99 47 225 47q139 0 220 -62t81 -176q0 -86 -58.5 -147t-168.5 -82q241 -56 241 -258q0 -117 -87 -187.5 t-238 -70.5q-130 0 -232 41z" />
<glyph unicode="&#xb4;" horiz-adv-x="806" d="M246 1163l258 332h108l-284 -332h-82z" />
<glyph unicode="&#xb5;" horiz-adv-x="1177" d="M158 -395v1456h82v-852q63 -73 157 -116.5t191 -43.5q98 0 191.5 43t158.5 117v852h82v-1061h-82v119q-67 -67 -160 -105.5t-190 -38.5t-190 38.5t-158 105.5v-514h-82z" />
<glyph unicode="&#xb7;" horiz-adv-x="585" d="M233 680q0 58 13.5 79t46.5 21t46 -20.5t13 -79.5t-13 -79.5t-46 -20.5t-46.5 21t-13.5 79z" />
<glyph unicode="&#xb8;" horiz-adv-x="806" d="M229 -406q43 -18 101 -18q78 0 120 31.5t42 83.5q0 55 -54.5 93t-156.5 44l96 172h80l-76 -133q89 -18 137.5 -65.5t48.5 -110.5q0 -82 -59.5 -130t-175.5 -48q-57 0 -103 14v67z" />
<glyph unicode="&#xb9;" d="M160 1260l235 176h70v-953h-78v856l-188 -141z" />
<glyph unicode="&#xba;" horiz-adv-x="886" d="M90 1055q0 172 99 283.5t253 111.5t253.5 -111.5t99.5 -283.5t-99.5 -284t-253.5 -112q-153 0 -252.5 112t-99.5 284zM168 1055q0 -151 78 -239.5t196 -88.5t196.5 88.5t78.5 239.5t-78.5 239t-196.5 88t-196 -88t-78 -239z" />
<glyph unicode="&#xbb;" horiz-adv-x="1101" d="M135 219v84l361 334l-361 334v84l424 -393v-50zM522 219v84l361 334l-361 334v84l424 -393v-50z" />
<glyph unicode="&#xbf;" horiz-adv-x="1054" d="M156 -68q0 107 61 200t193 190q99 71 130 140.5t31 199.5v47h86v-54q0 -142 -42 -228.5t-146 -160.5q-122 -86 -174.5 -166.5t-52.5 -171.5q0 -118 93.5 -184t270.5 -66q185 0 326 78l8 -80q-68 -35 -158.5 -55t-171.5 -20q-209 0 -331.5 88t-122.5 243zM555 983 q0 59 13 79.5t46 20.5t46.5 -21t13.5 -79t-13.5 -79t-46.5 -21t-46 20.5t-13 79.5z" />
<glyph unicode="&#xc0;" horiz-adv-x="1290" d="M25 0l573 1434h94l574 -1434h-95l-161 410h-729l-162 -410h-94zM311 487h668l-334 850zM340 1892h109l258 -331h-82z" />
<glyph unicode="&#xc1;" horiz-adv-x="1290" d="M25 0l573 1434h94l574 -1434h-95l-161 410h-729l-162 -410h-94zM311 487h668l-334 850zM563 1561l258 331h109l-285 -331h-82z" />
<glyph unicode="&#xc2;" horiz-adv-x="1290" d="M25 0l573 1434h94l574 -1434h-95l-161 410h-729l-162 -410h-94zM311 487h668l-334 850zM317 1561l285 331h86l285 -331h-88l-240 270l-239 -270h-89z" />
<glyph unicode="&#xc3;" horiz-adv-x="1290" d="M25 0l573 1434h94l574 -1434h-95l-161 410h-729l-162 -410h-94zM311 487h668l-334 850zM328 1587q0 141 46 208t124 67q42 0 77.5 -21t61 -51t48.5 -60.5t48.5 -51.5t52.5 -21q99 0 99 201h78q0 -140 -46.5 -207.5t-123.5 -67.5q-42 0 -78.5 21t-61.5 51.5t-48 60.5 t-48.5 51t-52.5 21q-98 0 -98 -201h-78z" />
<glyph unicode="&#xc4;" horiz-adv-x="1290" d="M25 0l573 1434h94l574 -1434h-95l-161 410h-729l-162 -410h-94zM311 487h668l-334 850zM383 1726q0 56 11.5 77.5t41.5 21.5t41.5 -21.5t11.5 -77.5t-11.5 -77t-41.5 -21t-41.5 21t-11.5 77zM801 1726q0 56 11.5 77.5t41.5 21.5t41.5 -21.5t11.5 -77.5t-11.5 -77 t-41.5 -21t-41.5 21t-11.5 77z" />
<glyph unicode="&#xc5;" horiz-adv-x="1290" d="M25 0l573 1434h94l574 -1434h-95l-161 410h-729l-162 -410h-94zM311 487h668l-334 850zM436 1722q0 86 60.5 146.5t148.5 60.5t148.5 -60.5t60.5 -146.5t-60.5 -146t-148.5 -60t-148.5 60t-60.5 146zM502 1722q0 -60 41.5 -102.5t101.5 -42.5t101.5 42.5t41.5 102.5 t-41.5 103t-101.5 43t-101.5 -43t-41.5 -103z" />
<glyph unicode="&#xc6;" horiz-adv-x="1716" d="M23 0l790 1434h795v-78h-656v-576h604v-78h-604v-624h674v-78h-760v412h-516l-225 -412h-102zM391 489h475v865z" />
<glyph unicode="&#xc7;" horiz-adv-x="1222" d="M104 717q0 220 88 387.5t252.5 260.5t382.5 93q175 0 295 -53l-8 -82q-123 57 -283 57q-299 0 -470 -181t-171 -482q0 -304 172.5 -484t471.5 -180q166 0 286 60l8 -84q-117 -50 -284 -54l-62 -108q89 -18 138 -65.5t49 -110.5q0 -82 -59.5 -130t-176.5 -48 q-56 0 -102 14v67q44 -18 100 -18q78 0 120 31.5t42 83.5q0 55 -54.5 93t-156.5 44l84 149q-307 20 -484.5 220t-177.5 520z" />
<glyph unicode="&#xc8;" horiz-adv-x="1132" d="M176 0v1434h848v-78h-762v-576h711v-78h-711v-624h780v-78h-866zM332 1892h108l258 -331h-82z" />
<glyph unicode="&#xc9;" horiz-adv-x="1132" d="M176 0v1434h848v-78h-762v-576h711v-78h-711v-624h780v-78h-866zM492 1561l258 331h108l-285 -331h-81z" />
<glyph unicode="&#xca;" horiz-adv-x="1132" d="M176 0v1434h848v-78h-762v-576h711v-78h-711v-624h780v-78h-866zM270 1561l285 331h86l285 -331h-88l-240 270l-240 -270h-88z" />
<glyph unicode="&#xcb;" horiz-adv-x="1132" d="M176 0v1434h848v-78h-762v-576h711v-78h-711v-624h780v-78h-866zM338 1726q0 56 11.5 77.5t41.5 21.5t41.5 -21.5t11.5 -77.5t-11.5 -77t-41.5 -21t-41.5 21t-11.5 77zM756 1726q0 56 11.5 77.5t41.5 21.5t41.5 -21.5t11.5 -77.5t-11.5 -77t-41.5 -21t-41.5 21t-11.5 77z " />
<glyph unicode="&#xcc;" horiz-adv-x="458" d="M-72 1892h109l258 -331h-82zM186 0v1434h86v-1434h-86z" />
<glyph unicode="&#xcd;" horiz-adv-x="458" d="M164 1561l258 331h108l-284 -331h-82zM186 0v1434h86v-1434h-86z" />
<glyph unicode="&#xce;" horiz-adv-x="458" d="M-98 1561l284 331h86l285 -331h-88l-240 270l-239 -270h-88zM186 0v1434h86v-1434h-86z" />
<glyph unicode="&#xcf;" horiz-adv-x="458" d="M-33 1726q0 56 11.5 77.5t41.5 21.5t42 -21.5t12 -77.5t-12 -77t-42 -21t-41.5 21t-11.5 77zM186 0v1434h86v-1434h-86zM385 1726q0 56 11.5 77.5t41.5 21.5t42 -21.5t12 -77.5t-12 -77t-42 -21t-41.5 21t-11.5 77z" />
<glyph unicode="&#xd0;" horiz-adv-x="1363" d="M33 678v78h143v678h291q241 0 417.5 -80t276 -243t99.5 -394q0 -347 -213.5 -532t-579.5 -185h-291v678h-143zM262 78h199q163 0 292.5 38.5t224 115.5t145.5 200t51 285q0 161 -51 284t-145.5 200.5t-224 116t-292.5 38.5h-199v-600h391v-78h-391v-600z" />
<glyph unicode="&#xd1;" horiz-adv-x="1421" d="M176 0v1434h105l878 -1317v1317h86v-1434h-104l-879 1315v-1315h-86zM393 1587q0 141 46 208t124 67q42 0 78 -21t61 -51t48 -60.5t49 -51.5t53 -21q98 0 98 201h78q0 -140 -46.5 -207.5t-123.5 -67.5q-42 0 -78.5 21t-61.5 51.5t-48 60.5t-48.5 51t-52.5 21 q-98 0 -98 -201h-78z" />
<glyph unicode="&#xd2;" horiz-adv-x="1433" d="M104 717q0 211 72.5 378t213 265t327.5 98t327.5 -98t212.5 -265t72 -378q0 -157 -42.5 -293t-119.5 -235.5t-193 -156.5t-257 -57q-187 0 -327.5 98t-213 265.5t-72.5 378.5zM190 717q0 -193 62.5 -342.5t183 -235.5t281.5 -86t281 86t182.5 235.5t62.5 342.5 t-62.5 342.5t-182.5 235t-281 85.5t-281.5 -85.5t-183 -235t-62.5 -342.5zM455 1892h108l258 -331h-82z" />
<glyph unicode="&#xd3;" horiz-adv-x="1433" d="M104 717q0 211 72.5 378t213 265t327.5 98t327.5 -98t212.5 -265t72 -378q0 -157 -42.5 -293t-119.5 -235.5t-193 -156.5t-257 -57q-187 0 -327.5 98t-213 265.5t-72.5 378.5zM190 717q0 -193 62.5 -342.5t183 -235.5t281.5 -86t281 86t182.5 235.5t62.5 342.5 t-62.5 342.5t-182.5 235t-281 85.5t-281.5 -85.5t-183 -235t-62.5 -342.5zM612 1561l258 331h109l-285 -331h-82z" />
<glyph unicode="&#xd4;" horiz-adv-x="1433" d="M104 717q0 211 72.5 378t213 265t327.5 98t327.5 -98t212.5 -265t72 -378q0 -157 -42.5 -293t-119.5 -235.5t-193 -156.5t-257 -57q-187 0 -327.5 98t-213 265.5t-72.5 378.5zM190 717q0 -193 62.5 -342.5t183 -235.5t281.5 -86t281 86t182.5 235.5t62.5 342.5 t-62.5 342.5t-182.5 235t-281 85.5t-281.5 -85.5t-183 -235t-62.5 -342.5zM389 1561l285 331h86l284 -331h-88l-239 270l-240 -270h-88z" />
<glyph unicode="&#xd5;" horiz-adv-x="1433" d="M104 717q0 211 72.5 378t213 265t327.5 98t327.5 -98t212.5 -265t72 -378q0 -157 -42.5 -293t-119.5 -235.5t-193 -156.5t-257 -57q-187 0 -327.5 98t-213 265.5t-72.5 378.5zM190 717q0 -193 62.5 -342.5t183 -235.5t281.5 -86t281 86t182.5 235.5t62.5 342.5 t-62.5 342.5t-182.5 235t-281 85.5t-281.5 -85.5t-183 -235t-62.5 -342.5zM399 1587q0 141 46 208t124 67q42 0 78 -21t61 -51t48 -60.5t49 -51.5t53 -21q98 0 98 201h78q0 -140 -46.5 -207.5t-123.5 -67.5q-42 0 -78.5 21t-61.5 51.5t-48 60.5t-48.5 51t-52.5 21 q-98 0 -98 -201h-78z" />
<glyph unicode="&#xd6;" horiz-adv-x="1433" d="M104 717q0 211 72.5 378t213 265t327.5 98t327.5 -98t212.5 -265t72 -378q0 -157 -42.5 -293t-119.5 -235.5t-193 -156.5t-257 -57q-187 0 -327.5 98t-213 265.5t-72.5 378.5zM190 717q0 -193 62.5 -342.5t183 -235.5t281.5 -86t281 86t182.5 235.5t62.5 342.5 t-62.5 342.5t-182.5 235t-281 85.5t-281.5 -85.5t-183 -235t-62.5 -342.5zM455 1726q0 56 11.5 77.5t41.5 21.5t41.5 -21.5t11.5 -77.5t-11.5 -77t-41.5 -21t-41.5 21t-11.5 77zM872 1726q0 56 12 77.5t42 21.5t41.5 -21.5t11.5 -77.5t-11.5 -77t-41.5 -21t-42 21t-12 77z " />
<glyph unicode="&#xd7;" horiz-adv-x="1257" d="M225 338l346 344l-346 346l58 57l346 -346l346 346l57 -57l-346 -346l346 -344l-57 -57l-346 344l-346 -344z" />
<glyph unicode="&#xd8;" horiz-adv-x="1433" d="M104 717q0 211 72.5 378t213 265t327.5 98q181 0 323 -96l158 276h86l-184 -323q110 -100 169.5 -255t59.5 -343q0 -157 -42.5 -293t-119.5 -235.5t-193 -156.5t-257 -57q-186 0 -326 95l-155 -275h-86l182 322q-110 99 -169 255.5t-59 344.5zM190 717 q0 -166 47.5 -302.5t135.5 -224.5l628 1102q-128 88 -284 88q-161 0 -281.5 -85.5t-183 -235t-62.5 -342.5zM432 141q120 -88 285 -88q161 0 281 86t182.5 235.5t62.5 342.5q0 166 -47.5 301.5t-136.5 224.5z" />
<glyph unicode="&#xd9;" horiz-adv-x="1435" d="M176 549v885h86v-877q0 -244 119.5 -374t335.5 -130q217 0 337 130t120 374v877h86v-885q0 -141 -40.5 -251.5t-113 -180.5t-171.5 -106t-218 -36q-244 0 -392.5 147.5t-148.5 426.5zM446 1892h109l258 -331h-82z" />
<glyph unicode="&#xda;" horiz-adv-x="1435" d="M176 549v885h86v-877q0 -244 119.5 -374t335.5 -130q217 0 337 130t120 374v877h86v-885q0 -141 -40.5 -251.5t-113 -180.5t-171.5 -106t-218 -36q-244 0 -392.5 147.5t-148.5 426.5zM623 1561l258 331h108l-284 -331h-82z" />
<glyph unicode="&#xdb;" horiz-adv-x="1435" d="M176 549v885h86v-877q0 -244 119.5 -374t335.5 -130q217 0 337 130t120 374v877h86v-885q0 -141 -40.5 -251.5t-113 -180.5t-171.5 -106t-218 -36q-244 0 -392.5 147.5t-148.5 426.5zM389 1561l285 331h86l284 -331h-88l-239 270l-240 -270h-88z" />
<glyph unicode="&#xdc;" horiz-adv-x="1435" d="M176 549v885h86v-877q0 -244 119.5 -374t335.5 -130q217 0 337 130t120 374v877h86v-885q0 -141 -40.5 -251.5t-113 -180.5t-171.5 -106t-218 -36q-244 0 -392.5 147.5t-148.5 426.5zM455 1726q0 56 11.5 77.5t41.5 21.5t41.5 -21.5t11.5 -77.5t-11.5 -77t-41.5 -21 t-41.5 21t-11.5 77zM872 1726q0 56 12 77.5t42 21.5t41.5 -21.5t11.5 -77.5t-11.5 -77t-41.5 -21t-42 21t-12 77z" />
<glyph unicode="&#xdd;" horiz-adv-x="1310" d="M53 1434h99l503 -781l504 781h98l-559 -865v-569h-86v569zM578 1561l258 331h108l-285 -331h-81z" />
<glyph unicode="&#xde;" horiz-adv-x="1173" d="M176 0v1434h86v-271h291q251 0 394 -112.5t143 -317.5t-143 -317.5t-394 -112.5h-291v-303h-86zM262 381h287q219 0 337 88t118 264t-118 264t-337 88h-287v-704z" />
<glyph unicode="&#xdf;" horiz-adv-x="1148" d="M176 0v967q0 243 107.5 367t316.5 124q177 0 289 -104.5t112 -261.5q0 -137 -69.5 -222t-196.5 -118q320 -80 320 -398q0 -175 -104 -277t-300 -102q-156 0 -264 54l10 86q45 -28 113 -45t139 -17q159 0 239.5 81t80.5 220q0 167 -115.5 262t-321.5 95v77q186 0 284.5 78 t98.5 226q0 126 -86.5 207t-232.5 81q-334 0 -334 -405v-975h-86z" />
<glyph unicode="&#xe0;" horiz-adv-x="1081" d="M84 293q0 158 115 248t329 90h326v80q0 169 -76 235t-248 66q-185 0 -340 -76l-10 76q160 73 350 73q209 0 307.5 -86t98.5 -292v-707h-82v104q-138 -129 -371 -129q-178 0 -288.5 82.5t-110.5 235.5zM166 297q0 -123 85 -185.5t232 -62.5q232 0 371 148v360h-328 q-178 0 -269 -69t-91 -191zM272 1536h109l258 -332h-82z" />
<glyph unicode="&#xe1;" horiz-adv-x="1081" d="M84 293q0 158 115 248t329 90h326v80q0 169 -76 235t-248 66q-185 0 -340 -76l-10 76q160 73 350 73q209 0 307.5 -86t98.5 -292v-707h-82v104q-138 -129 -371 -129q-178 0 -288.5 82.5t-110.5 235.5zM166 297q0 -123 85 -185.5t232 -62.5q232 0 371 148v360h-328 q-178 0 -269 -69t-91 -191zM434 1204l258 332h109l-285 -332h-82z" />
<glyph unicode="&#xe2;" horiz-adv-x="1081" d="M84 293q0 158 115 248t329 90h326v80q0 169 -76 235t-248 66q-185 0 -340 -76l-10 76q160 73 350 73q209 0 307.5 -86t98.5 -292v-707h-82v104q-138 -129 -371 -129q-178 0 -288.5 82.5t-110.5 235.5zM166 297q0 -123 85 -185.5t232 -62.5q232 0 371 148v360h-328 q-178 0 -269 -69t-91 -191zM221 1204l285 332h86l285 -332h-89l-239 271l-240 -271h-88z" />
<glyph unicode="&#xe3;" horiz-adv-x="1081" d="M84 293q0 158 115 248t329 90h326v80q0 169 -76 235t-248 66q-185 0 -340 -76l-10 76q160 73 350 73q209 0 307.5 -86t98.5 -292v-707h-82v104q-138 -129 -371 -129q-178 0 -288.5 82.5t-110.5 235.5zM166 297q0 -123 85 -185.5t232 -62.5q232 0 371 148v360h-328 q-178 0 -269 -69t-91 -191zM215 1231q0 141 46 207.5t124 66.5q42 0 78 -21t61 -51.5t48 -60.5t49 -51t53 -21q98 0 98 201h78q0 -140 -46.5 -207t-123.5 -67q-42 0 -78.5 21t-61.5 51.5t-48 60.5t-48.5 51t-52.5 21q-98 0 -98 -201h-78z" />
<glyph unicode="&#xe4;" horiz-adv-x="1081" d="M84 293q0 158 115 248t329 90h326v80q0 169 -76 235t-248 66q-185 0 -340 -76l-10 76q160 73 350 73q209 0 307.5 -86t98.5 -292v-707h-82v104q-138 -129 -371 -129q-178 0 -288.5 82.5t-110.5 235.5zM166 297q0 -123 85 -185.5t232 -62.5q232 0 371 148v360h-328 q-178 0 -269 -69t-91 -191zM283 1368q0 56 11.5 77t41.5 21t41.5 -21t11.5 -77t-11.5 -77t-41.5 -21t-41.5 21t-11.5 77zM700 1368q0 56 12 77t42 21t41.5 -21t11.5 -77t-11.5 -77t-41.5 -21t-42 21t-12 77z" />
<glyph unicode="&#xe5;" horiz-adv-x="1081" d="M84 293q0 158 115 248t329 90h326v80q0 169 -76 235t-248 66q-185 0 -340 -76l-10 76q160 73 350 73q209 0 307.5 -86t98.5 -292v-707h-82v104q-138 -129 -371 -129q-178 0 -288.5 82.5t-110.5 235.5zM166 297q0 -123 85 -185.5t232 -62.5q232 0 371 148v360h-328 q-178 0 -269 -69t-91 -191zM340 1370q0 86 60.5 146.5t148.5 60.5t148.5 -60.5t60.5 -146.5t-60.5 -146.5t-148.5 -60.5t-148.5 60.5t-60.5 146.5zM406 1370q0 -60 41.5 -102.5t101.5 -42.5t101.5 42.5t41.5 102.5t-41.5 103t-101.5 43t-101.5 -43t-41.5 -103z" />
<glyph unicode="&#xe6;" horiz-adv-x="1742" d="M84 295q0 161 109 248.5t323 87.5h285v67q0 151 -80.5 232.5t-231.5 81.5q-164 0 -301 -70l-10 74q144 69 314 69q147 0 240.5 -67t125.5 -195q49 124 140.5 193t226.5 69q205 0 319.5 -147.5t114.5 -390.5v-51h-782q12 -213 112.5 -330t292.5 -117q173 0 283 88l8 -82 q-115 -80 -299 -80q-169 0 -278 79t-156 214q-49 -144 -153 -218.5t-253 -74.5q-147 0 -248.5 84t-101.5 236zM166 299q0 -65 22 -114.5t60.5 -77.5t84.5 -42t99 -14q308 0 367 359v147h-277q-182 0 -269 -63.5t-87 -194.5zM877 571h696q-2 199 -94.5 320t-253.5 121 q-159 0 -252 -121.5t-96 -319.5z" />
<glyph unicode="&#xe7;" horiz-adv-x="1005" d="M94 530q0 165 72 292.5t195 195t276 67.5q164 0 278 -57l-8 -84q-110 66 -268 66q-129 0 -233 -56.5t-166 -167t-62 -256.5q0 -221 131 -350t334 -129q165 0 275 74l8 -84q-105 -60 -256 -66l-62 -108q89 -18 138 -65.5t49 -110.5q0 -82 -59.5 -130t-176.5 -48 q-56 0 -102 14v67q43 -18 100 -18q78 0 120 31.5t42 83.5q0 55 -54.5 93t-156.5 44l84 149q-222 18 -360 166.5t-138 386.5z" />
<glyph unicode="&#xe8;" horiz-adv-x="1093" d="M94 535q0 252 125.5 401t331.5 149q205 0 332 -150t127 -388q0 -41 -2 -51h-830q6 -201 118 -324t316 -123q178 0 303 88l9 -82q-124 -80 -308 -80q-164 0 -284 74.5t-179 200t-59 285.5zM178 571h746q-3 198 -106 319.5t-267 121.5q-165 0 -266 -117.5t-107 -323.5z M295 1536h108l259 -332h-82z" />
<glyph unicode="&#xe9;" horiz-adv-x="1093" d="M94 535q0 252 125.5 401t331.5 149q205 0 332 -150t127 -388q0 -41 -2 -51h-830q6 -201 118 -324t316 -123q178 0 303 88l9 -82q-124 -80 -308 -80q-164 0 -284 74.5t-179 200t-59 285.5zM178 571h746q-3 198 -106 319.5t-267 121.5q-165 0 -266 -117.5t-107 -323.5z M444 1204l258 332h109l-285 -332h-82z" />
<glyph unicode="&#xea;" horiz-adv-x="1093" d="M94 535q0 252 125.5 401t331.5 149q205 0 332 -150t127 -388q0 -41 -2 -51h-830q6 -201 118 -324t316 -123q178 0 303 88l9 -82q-124 -80 -308 -80q-164 0 -284 74.5t-179 200t-59 285.5zM178 571h746q-3 198 -106 319.5t-267 121.5q-165 0 -266 -117.5t-107 -323.5z M219 1204l285 332h86l284 -332h-88l-239 271l-240 -271h-88z" />
<glyph unicode="&#xeb;" horiz-adv-x="1093" d="M94 535q0 252 125.5 401t331.5 149q205 0 332 -150t127 -388q0 -41 -2 -51h-830q6 -201 118 -324t316 -123q178 0 303 88l9 -82q-124 -80 -308 -80q-164 0 -284 74.5t-179 200t-59 285.5zM178 571h746q-3 198 -106 319.5t-267 121.5q-165 0 -266 -117.5t-107 -323.5z M270 1368q0 56 12 77t42 21t41.5 -21t11.5 -77t-11.5 -77t-41.5 -21t-42 21t-12 77zM688 1368q0 56 11.5 77t41.5 21t42 -21t12 -77t-12 -77t-42 -21t-41.5 21t-11.5 77z" />
<glyph unicode="&#xec;" horiz-adv-x="413" d="M-104 1536h108l258 -332h-82zM166 0v1061h82v-1061h-82z" />
<glyph unicode="&#xed;" horiz-adv-x="413" d="M152 1204l258 332h108l-285 -332h-81zM166 0v1061h82v-1061h-82z" />
<glyph unicode="&#xee;" horiz-adv-x="413" d="M-121 1204l285 332h86l285 -332h-89l-239 271l-240 -271h-88zM166 0v1061h82v-1061h-82z" />
<glyph unicode="&#xef;" horiz-adv-x="413" d="M-55 1368q0 56 11.5 77t41.5 21t41.5 -21t11.5 -77t-11.5 -77t-41.5 -21t-41.5 21t-11.5 77zM166 0v1061h82v-1061h-82zM362 1368q0 56 12 77t42 21t41.5 -21t11.5 -77t-11.5 -77t-41.5 -21t-42 21t-12 77z" />
<glyph unicode="&#xf0;" horiz-adv-x="1114" d="M94 496q0 247 121.5 383.5t333.5 136.5q107 0 207.5 -47t161.5 -115q-39 237 -191 379l-467 -141l-22 63l428 129q-135 97 -336 135l6 76q271 -59 424 -182l237 71l23 -63l-203 -61q199 -205 199 -598q0 -325 -121 -506t-363 -181q-197 0 -317.5 138t-120.5 383zM176 496 q0 -203 95 -325t261 -122q402 0 402 615q0 25 -4 75q-72 97 -169.5 150t-207.5 53q-175 0 -276 -114t-101 -332z" />
<glyph unicode="&#xf1;" horiz-adv-x="1157" d="M156 0v1061h82v-113q67 62 160 99.5t186 37.5q201 0 314.5 -121t113.5 -343v-621h-82v618q0 190 -91 292t-264 102q-95 0 -185 -41.5t-152 -112.5v-858h-82zM270 1231q0 141 46 207.5t124 66.5q42 0 78 -21t61 -51.5t48 -60.5t49 -51t53 -21q98 0 98 201h78 q0 -140 -46.5 -207t-123.5 -67q-42 0 -78.5 21t-61.5 51.5t-48 60.5t-48.5 51t-52.5 21q-98 0 -98 -201h-78z" />
<glyph unicode="&#xf2;" horiz-adv-x="1167" d="M94 530q0 159 62.5 286t174.5 198t253 71t252.5 -71t174 -198t62.5 -286q0 -243 -137.5 -399t-351.5 -156t-352 156t-138 399zM176 530q0 -213 116.5 -347t291.5 -134t291 134t116 347t-116 347.5t-291 134.5t-291.5 -134.5t-116.5 -347.5zM334 1536h108l258 -332h-82z " />
<glyph unicode="&#xf3;" horiz-adv-x="1167" d="M94 530q0 159 62.5 286t174.5 198t253 71t252.5 -71t174 -198t62.5 -286q0 -243 -137.5 -399t-351.5 -156t-352 156t-138 399zM176 530q0 -213 116.5 -347t291.5 -134t291 134t116 347t-116 347.5t-291 134.5t-291.5 -134.5t-116.5 -347.5zM479 1204l258 332h109 l-285 -332h-82z" />
<glyph unicode="&#xf4;" horiz-adv-x="1167" d="M94 530q0 159 62.5 286t174.5 198t253 71t252.5 -71t174 -198t62.5 -286q0 -243 -137.5 -399t-351.5 -156t-352 156t-138 399zM176 530q0 -213 116.5 -347t291.5 -134t291 134t116 347t-116 347.5t-291 134.5t-291.5 -134.5t-116.5 -347.5zM256 1204l285 332h86l284 -332 h-88l-239 271l-240 -271h-88z" />
<glyph unicode="&#xf5;" horiz-adv-x="1167" d="M94 530q0 159 62.5 286t174.5 198t253 71t252.5 -71t174 -198t62.5 -286q0 -243 -137.5 -399t-351.5 -156t-352 156t-138 399zM176 530q0 -213 116.5 -347t291.5 -134t291 134t116 347t-116 347.5t-291 134.5t-291.5 -134.5t-116.5 -347.5zM266 1231q0 141 46 207.5 t124 66.5q42 0 78 -21t61 -51.5t48 -60.5t49 -51t53 -21q98 0 98 201h78q0 -140 -46.5 -207t-123.5 -67q-42 0 -78.5 21t-61.5 51.5t-48 60.5t-48.5 51t-52.5 21q-98 0 -98 -201h-78z" />
<glyph unicode="&#xf6;" horiz-adv-x="1167" d="M94 530q0 159 62.5 286t174.5 198t253 71t252.5 -71t174 -198t62.5 -286q0 -243 -137.5 -399t-351.5 -156t-352 156t-138 399zM176 530q0 -213 116.5 -347t291.5 -134t291 134t116 347t-116 347.5t-291 134.5t-291.5 -134.5t-116.5 -347.5zM322 1368q0 56 11.5 77 t41.5 21t41.5 -21t11.5 -77t-11.5 -77t-41.5 -21t-41.5 21t-11.5 77zM739 1368q0 56 12 77t42 21t41.5 -21t11.5 -77t-11.5 -77t-41.5 -21t-42 21t-12 77z" />
<glyph unicode="&#xf7;" horiz-adv-x="1257" d="M135 641v78h987v-78h-987zM569 268q0 59 13.5 80t46.5 21t46 -21t13 -80t-13 -79.5t-46 -20.5t-46.5 21t-13.5 79zM569 1092q0 58 13.5 79t46.5 21t46 -20.5t13 -79.5t-13 -80t-46 -21t-46.5 21t-13.5 80z" />
<glyph unicode="&#xf8;" horiz-adv-x="1175" d="M94 530q0 242 139 398.5t355 156.5q133 0 241 -63l154 264h84l-178 -307q90 -74 141 -191t51 -258q0 -243 -138 -399t-355 -156q-131 0 -242 62l-151 -262h-84l176 305q-92 74 -142.5 190.5t-50.5 259.5zM176 530q0 -120 39.5 -218.5t110.5 -164.5l465 807 q-92 58 -203 58q-179 0 -295.5 -134.5t-116.5 -347.5zM385 104q88 -55 203 -55q179 0 295 134t116 347q0 119 -39.5 217t-109.5 164z" />
<glyph unicode="&#xf9;" horiz-adv-x="1157" d="M145 440v621h82v-619q0 -190 91 -291.5t264 -101.5q95 0 185.5 41.5t152.5 112.5v858h81v-1061h-81v113q-67 -62 -160.5 -100t-186.5 -38q-201 0 -314.5 121.5t-113.5 343.5zM274 1536h109l258 -332h-82z" />
<glyph unicode="&#xfa;" horiz-adv-x="1157" d="M145 440v621h82v-619q0 -190 91 -291.5t264 -101.5q95 0 185.5 41.5t152.5 112.5v858h81v-1061h-81v113q-67 -62 -160.5 -100t-186.5 -38q-201 0 -314.5 121.5t-113.5 343.5zM494 1204l258 332h108l-285 -332h-81z" />
<glyph unicode="&#xfb;" horiz-adv-x="1157" d="M145 440v621h82v-619q0 -190 91 -291.5t264 -101.5q95 0 185.5 41.5t152.5 112.5v858h81v-1061h-81v113q-67 -62 -160.5 -100t-186.5 -38q-201 0 -314.5 121.5t-113.5 343.5zM246 1204l284 332h86l285 -332h-88l-240 271l-239 -271h-88z" />
<glyph unicode="&#xfc;" horiz-adv-x="1157" d="M145 440v621h82v-619q0 -190 91 -291.5t264 -101.5q95 0 185.5 41.5t152.5 112.5v858h81v-1061h-81v113q-67 -62 -160.5 -100t-186.5 -38q-201 0 -314.5 121.5t-113.5 343.5zM311 1368q0 56 12 77t42 21t41.5 -21t11.5 -77t-11.5 -77t-41.5 -21t-42 21t-12 77zM729 1368 q0 56 11.5 77t41.5 21t42 -21t12 -77t-12 -77t-42 -21t-41.5 21t-11.5 77z" />
<glyph unicode="&#xfd;" horiz-adv-x="1054" d="M43 1061h92l402 -963l383 963h92l-588 -1456h-90l160 395zM446 1204l259 332h108l-285 -332h-82z" />
<glyph unicode="&#xfe;" horiz-adv-x="1155" d="M156 -393v1888h82v-539q60 60 145.5 94.5t183.5 34.5q101 0 191 -38.5t157.5 -108.5t106.5 -175.5t39 -232.5t-39 -232.5t-106.5 -175.5t-157.5 -108.5t-191 -38.5q-98 0 -183.5 34.5t-145.5 94.5v-497h-82zM238 197q55 -71 140.5 -109.5t180.5 -38.5q180 0 300 130.5 t120 350.5t-120 351t-300 131q-95 0 -180.5 -38.5t-140.5 -109.5v-667z" />
<glyph unicode="&#xff;" horiz-adv-x="1054" d="M43 1061h92l402 -963l383 963h92l-588 -1456h-90l160 395zM270 1368q0 56 12 77t42 21t41.5 -21t11.5 -77t-11.5 -77t-41.5 -21t-42 21t-12 77zM688 1368q0 56 11.5 77t41.5 21t42 -21t12 -77t-12 -77t-42 -21t-41.5 21t-11.5 77z" />
<glyph unicode="&#x100;" horiz-adv-x="1290" d="M25 0l573 1434h94l574 -1434h-95l-161 410h-729l-162 -410h-94zM311 487h668l-334 850zM369 1683v74h553v-74h-553z" />
<glyph unicode="&#x101;" horiz-adv-x="1081" d="M84 293q0 158 115 248t329 90h326v80q0 169 -76 235t-248 66q-185 0 -340 -76l-10 76q160 73 350 73q209 0 307.5 -86t98.5 -292v-707h-82v104q-138 -129 -371 -129q-178 0 -288.5 82.5t-110.5 235.5zM166 297q0 -123 85 -185.5t232 -62.5q232 0 371 148v360h-328 q-178 0 -269 -69t-91 -191zM260 1329v74h553v-74h-553z" />
<glyph unicode="&#x102;" horiz-adv-x="1290" d="M25 0l573 1434h94l574 -1434h-95l-161 410h-729l-162 -410h-94zM311 487h668l-334 850zM328 1884h78q3 -118 68.5 -182t170.5 -64t171 64t69 182h78q-4 -153 -93.5 -235t-224.5 -82q-134 0 -223.5 82t-93.5 235z" />
<glyph unicode="&#x103;" horiz-adv-x="1081" d="M84 293q0 158 115 248t329 90h326v80q0 169 -76 235t-248 66q-185 0 -340 -76l-10 76q160 73 350 73q209 0 307.5 -86t98.5 -292v-707h-82v104q-138 -129 -371 -129q-178 0 -288.5 82.5t-110.5 235.5zM166 297q0 -123 85 -185.5t232 -62.5q232 0 371 148v360h-328 q-178 0 -269 -69t-91 -191zM225 1528h78q3 -118 69 -182t171 -64t170.5 64t68.5 182h78q-4 -153 -93.5 -235.5t-223.5 -82.5t-224 82.5t-94 235.5z" />
<glyph unicode="&#x104;" horiz-adv-x="1290" d="M25 0l573 1434h94l574 -1434q-166 -147 -166 -276q0 -101 131 -101q47 0 88 15v-74q-41 -13 -98 -13q-100 0 -151.5 43.5t-51.5 118.5q0 142 166 287h-13l-161 410h-729l-162 -410h-94zM311 487h668l-334 850z" />
<glyph unicode="&#x105;" horiz-adv-x="1081" d="M84 293q0 158 115 248t329 90h326v80q0 169 -76 235t-248 66q-185 0 -340 -76l-10 76q160 73 350 73q209 0 307.5 -86t98.5 -292v-707q-166 -147 -166 -276q0 -101 131 -101q47 0 88 15v-74q-41 -13 -98 -13q-100 0 -151.5 43.5t-51.5 118.5q0 142 166 287v104 q-138 -129 -371 -129q-178 0 -288.5 82.5t-110.5 235.5zM166 297q0 -123 85 -185.5t232 -62.5q232 0 371 148v360h-328q-178 0 -269 -69t-91 -191z" />
<glyph unicode="&#x106;" horiz-adv-x="1222" d="M104 717q0 220 88 387.5t252.5 260.5t382.5 93q175 0 295 -53l-8 -82q-123 57 -283 57q-299 0 -470 -181t-171 -482q0 -304 172.5 -484t471.5 -180q166 0 286 60l8 -84q-125 -54 -299 -54q-333 0 -529 203t-196 539zM653 1561l258 331h109l-285 -331h-82z" />
<glyph unicode="&#x107;" horiz-adv-x="1005" d="M94 530q0 165 72 292.5t195 195t276 67.5q164 0 278 -57l-8 -84q-110 66 -268 66q-129 0 -233 -56.5t-166 -167t-62 -256.5q0 -221 131 -350t334 -129q165 0 275 74l8 -84q-120 -66 -283 -66q-241 0 -395 151.5t-154 403.5zM479 1204l258 332h109l-285 -332h-82z" />
<glyph unicode="&#x108;" horiz-adv-x="1222" d="M104 717q0 220 88 387.5t252.5 260.5t382.5 93q175 0 295 -53l-8 -82q-123 57 -283 57q-299 0 -470 -181t-171 -482q0 -304 172.5 -484t471.5 -180q166 0 286 60l8 -84q-125 -54 -299 -54q-333 0 -529 203t-196 539zM420 1561l285 331h86l284 -331h-88l-239 270 l-240 -270h-88z" />
<glyph unicode="&#x109;" horiz-adv-x="1005" d="M94 530q0 165 72 292.5t195 195t276 67.5q164 0 278 -57l-8 -84q-110 66 -268 66q-129 0 -233 -56.5t-166 -167t-62 -256.5q0 -221 131 -350t334 -129q165 0 275 74l8 -84q-120 -66 -283 -66q-241 0 -395 151.5t-154 403.5zM270 1204l285 332h86l285 -332h-88l-240 271 l-240 -271h-88z" />
<glyph unicode="&#x10a;" horiz-adv-x="1222" d="M104 717q0 220 88 387.5t252.5 260.5t382.5 93q175 0 295 -53l-8 -82q-123 57 -283 57q-299 0 -470 -181t-171 -482q0 -304 172.5 -484t471.5 -180q166 0 286 60l8 -84q-125 -54 -299 -54q-333 0 -529 203t-196 539zM702 1726q0 56 12 77.5t42 21.5t41.5 -21.5 t11.5 -77.5t-11.5 -77t-41.5 -21t-42 21t-12 77z" />
<glyph unicode="&#x10b;" horiz-adv-x="1005" d="M94 530q0 165 72 292.5t195 195t276 67.5q164 0 278 -57l-8 -84q-110 66 -268 66q-129 0 -233 -56.5t-166 -167t-62 -256.5q0 -221 131 -350t334 -129q165 0 275 74l8 -84q-120 -66 -283 -66q-241 0 -395 151.5t-154 403.5zM557 1368q0 56 11.5 77t41.5 21t42 -21t12 -77 t-12 -77t-42 -21t-41.5 21t-11.5 77z" />
<glyph unicode="&#x10c;" horiz-adv-x="1222" d="M104 717q0 220 88 387.5t252.5 260.5t382.5 93q175 0 295 -53l-8 -82q-123 57 -283 57q-299 0 -470 -181t-171 -482q0 -304 172.5 -484t471.5 -180q166 0 286 60l8 -84q-125 -54 -299 -54q-333 0 -529 203t-196 539zM438 1892h88l240 -270l240 270h88l-285 -331h-86z" />
<glyph unicode="&#x10d;" horiz-adv-x="1005" d="M94 530q0 165 72 292.5t195 195t276 67.5q164 0 278 -57l-8 -84q-110 66 -268 66q-129 0 -233 -56.5t-166 -167t-62 -256.5q0 -221 131 -350t334 -129q165 0 275 74l8 -84q-120 -66 -283 -66q-241 0 -395 151.5t-154 403.5zM270 1532h88l240 -270l240 270h88l-285 -332 h-86z" />
<glyph unicode="&#x10e;" horiz-adv-x="1363" d="M176 0v1434h291q241 0 417.5 -80t276 -243t99.5 -394q0 -347 -213.5 -532t-579.5 -185h-291zM215 1892h88l240 -270l239 270h88l-284 -331h-86zM262 78h199q163 0 292.5 38.5t224 115.5t145.5 200t51 285q0 161 -51 284t-145.5 200.5t-224 116t-292.5 38.5h-199v-1278z " />
<glyph unicode="&#x10f;" horiz-adv-x="1269" d="M94 530q0 127 39 232.5t106.5 175.5t157.5 108.5t191 38.5q98 0 184 -34.5t146 -94.5v539h81v-1495h-81v104q-60 -60 -146 -94.5t-184 -34.5q-101 0 -191 38.5t-157.5 108.5t-106.5 175.5t-39 232.5zM176 530q0 -220 120 -350.5t300 -130.5q96 0 181.5 38.5t140.5 109.5 v667q-55 71 -140.5 109.5t-181.5 38.5q-180 0 -300 -131t-120 -351zM1075 1151q66 81 70 170q-24 4 -32.5 28.5t-8.5 69.5q0 59 13 80t46 21t46.5 -21t13.5 -80q0 -97 -25 -171t-88 -140z" />
<glyph unicode="&#x110;" horiz-adv-x="1363" d="M33 678v78h143v678h291q241 0 417.5 -80t276 -243t99.5 -394q0 -347 -213.5 -532t-579.5 -185h-291v678h-143zM262 78h199q163 0 292.5 38.5t224 115.5t145.5 200t51 285q0 161 -51 284t-145.5 200.5t-224 116t-292.5 38.5h-199v-600h391v-78h-391v-600z" />
<glyph unicode="&#x111;" horiz-adv-x="1175" d="M94 530q0 127 39 232.5t106.5 175.5t157.5 108.5t191 38.5q98 0 184 -34.5t146 -94.5v291h-420v74h420v174h81v-174h140v-74h-140v-1247h-81v104q-60 -60 -146 -94.5t-184 -34.5q-101 0 -191 38.5t-157.5 108.5t-106.5 175.5t-39 232.5zM176 530q0 -220 120 -350.5 t300 -130.5q96 0 181.5 38.5t140.5 109.5v667q-55 71 -140.5 109.5t-181.5 38.5q-180 0 -300 -131t-120 -351z" />
<glyph unicode="&#x112;" horiz-adv-x="1132" d="M176 0v1434h848v-78h-762v-576h711v-78h-711v-624h780v-78h-866zM322 1688v73h552v-73h-552z" />
<glyph unicode="&#x113;" horiz-adv-x="1093" d="M94 535q0 252 125.5 401t331.5 149q205 0 332 -150t127 -388q0 -41 -2 -51h-830q6 -201 118 -324t316 -123q178 0 303 88l9 -82q-124 -80 -308 -80q-164 0 -284 74.5t-179 200t-59 285.5zM178 571h746q-3 198 -106 319.5t-267 121.5q-165 0 -266 -117.5t-107 -323.5z M274 1329v74h553v-74h-553z" />
<glyph unicode="&#x114;" horiz-adv-x="1132" d="M176 0v1434h848v-78h-762v-576h711v-78h-711v-624h780v-78h-866zM283 1882h77q3 -118 69 -182t171 -64t171 64t69 182h78q-4 -153 -93.5 -235t-224.5 -82q-134 0 -223.5 82t-93.5 235z" />
<glyph unicode="&#x115;" horiz-adv-x="1093" d="M94 535q0 252 125.5 401t331.5 149q205 0 332 -150t127 -388q0 -41 -2 -51h-830q6 -201 118 -324t316 -123q178 0 303 88l9 -82q-124 -80 -308 -80q-164 0 -284 74.5t-179 200t-59 285.5zM178 571h746q-3 198 -106 319.5t-267 121.5q-165 0 -266 -117.5t-107 -323.5z M233 1528h78q3 -118 69 -182t171 -64t171 64t69 182h77q-4 -153 -93.5 -235.5t-223.5 -82.5t-224 82.5t-94 235.5z" />
<glyph unicode="&#x116;" horiz-adv-x="1132" d="M176 0v1434h848v-78h-762v-576h711v-78h-711v-624h780v-78h-866zM537 1726q0 56 11.5 77.5t41.5 21.5t41.5 -21.5t11.5 -77.5t-11.5 -77t-41.5 -21t-41.5 21t-11.5 77z" />
<glyph unicode="&#x117;" horiz-adv-x="1093" d="M94 535q0 252 125.5 401t331.5 149q205 0 332 -150t127 -388q0 -41 -2 -51h-830q6 -201 118 -324t316 -123q178 0 303 88l9 -82q-124 -80 -308 -80q-164 0 -284 74.5t-179 200t-59 285.5zM178 571h746q-3 198 -106 319.5t-267 121.5q-165 0 -266 -117.5t-107 -323.5z M494 1368q0 56 11.5 77t41.5 21t41.5 -21t11.5 -77t-11.5 -77t-41.5 -21t-41.5 21t-11.5 77z" />
<glyph unicode="&#x118;" horiz-adv-x="1132" d="M176 0v1434h848v-78h-762v-576h711v-78h-711v-624h780v-78h-92q-166 -147 -166 -276q0 -101 131 -101q49 0 89 15v-74q-41 -13 -99 -13q-100 0 -151.5 43.5t-51.5 118.5q0 142 166 287h-692z" />
<glyph unicode="&#x119;" horiz-adv-x="1093" d="M94 535q0 252 125.5 401t331.5 149q205 0 332 -150t127 -388q0 -41 -2 -51h-830q6 -201 118 -324t316 -123q178 0 303 88l9 -82q-72 -48 -170 -67q-152 -140 -152 -264q0 -101 131 -101q47 0 88 15v-74q-41 -13 -98 -13q-100 0 -151.5 43.5t-51.5 118.5q0 128 139 264 q-14 -2 -43 -2q-164 0 -284 74.5t-179 200t-59 285.5zM178 571h746q-3 198 -106 319.5t-267 121.5q-165 0 -266 -117.5t-107 -323.5z" />
<glyph unicode="&#x11a;" horiz-adv-x="1132" d="M176 0v1434h848v-78h-762v-576h711v-78h-711v-624h780v-78h-866zM270 1892h88l240 -270l240 270h88l-285 -331h-86z" />
<glyph unicode="&#x11b;" horiz-adv-x="1093" d="M94 535q0 252 125.5 401t331.5 149q205 0 332 -150t127 -388q0 -41 -2 -51h-830q6 -201 118 -324t316 -123q178 0 303 88l9 -82q-124 -80 -308 -80q-164 0 -284 74.5t-179 200t-59 285.5zM178 571h746q-3 198 -106 319.5t-267 121.5q-165 0 -266 -117.5t-107 -323.5z M225 1532h88l240 -270l240 270h88l-285 -332h-86z" />
<glyph unicode="&#x11c;" horiz-adv-x="1417" d="M104 717q0 211 92.5 379.5t262 265t385.5 96.5q219 0 385 -72l-8 -86q-154 80 -375 80q-190 0 -340 -86t-233 -237t-83 -340q0 -142 49.5 -265t137.5 -211t215.5 -138t277.5 -50q184 0 306 47v570h-447v75h533v-700q-167 -70 -394 -70q-171 0 -314.5 56t-241.5 155 t-153 235.5t-55 295.5zM451 1561l284 331h86l285 -331h-88l-240 270l-239 -270h-88z" />
<glyph unicode="&#x11d;" horiz-adv-x="1155" d="M94 530q0 127 39 232.5t106.5 175.5t157.5 108.5t191 38.5q98 0 184 -34.5t146 -94.5v105h81v-1002q0 -249 -110.5 -359t-345.5 -110q-185 0 -340 76l6 88q142 -90 336 -90q192 0 282.5 88.5t90.5 294.5v57q-60 -60 -146 -94.5t-184 -34.5q-101 0 -191 38.5t-157.5 108.5 t-106.5 175.5t-39 232.5zM176 530q0 -220 120 -350.5t300 -130.5q96 0 181.5 38.5t140.5 109.5v667q-55 71 -140.5 109.5t-181.5 38.5q-180 0 -300 -131t-120 -351zM272 1204l285 332h86l285 -332h-88l-240 271l-240 -271h-88z" />
<glyph unicode="&#x11e;" horiz-adv-x="1417" d="M104 717q0 211 92.5 379.5t262 265t385.5 96.5q219 0 385 -72l-8 -86q-154 80 -375 80q-190 0 -340 -86t-233 -237t-83 -340q0 -142 49.5 -265t137.5 -211t215.5 -138t277.5 -50q184 0 306 47v570h-447v75h533v-700q-167 -70 -394 -70q-171 0 -314.5 56t-241.5 155 t-153 235.5t-55 295.5zM467 1882h78q3 -118 68.5 -182t170.5 -64t171 64t69 182h78q-4 -153 -93.5 -235t-224.5 -82q-134 0 -223.5 82t-93.5 235z" />
<glyph unicode="&#x11f;" horiz-adv-x="1155" d="M94 530q0 127 39 232.5t106.5 175.5t157.5 108.5t191 38.5q98 0 184 -34.5t146 -94.5v105h81v-1002q0 -249 -110.5 -359t-345.5 -110q-185 0 -340 76l6 88q142 -90 336 -90q192 0 282.5 88.5t90.5 294.5v57q-60 -60 -146 -94.5t-184 -34.5q-101 0 -191 38.5t-157.5 108.5 t-106.5 175.5t-39 232.5zM176 530q0 -220 120 -350.5t300 -130.5q96 0 181.5 38.5t140.5 109.5v667q-55 71 -140.5 109.5t-181.5 38.5q-180 0 -300 -131t-120 -351zM283 1528h77q3 -118 69 -182t171 -64t171 64t69 182h78q-4 -153 -94 -235.5t-224 -82.5t-223.5 82.5 t-93.5 235.5z" />
<glyph unicode="&#x120;" horiz-adv-x="1417" d="M104 717q0 211 92.5 379.5t262 265t385.5 96.5q219 0 385 -72l-8 -86q-154 80 -375 80q-190 0 -340 -86t-233 -237t-83 -340q0 -142 49.5 -265t137.5 -211t215.5 -138t277.5 -50q184 0 306 47v570h-447v75h533v-700q-167 -70 -394 -70q-171 0 -314.5 56t-241.5 155 t-153 235.5t-55 295.5zM729 1726q0 56 11.5 77.5t41.5 21.5t42 -21.5t12 -77.5t-12 -77t-42 -21t-41.5 21t-11.5 77z" />
<glyph unicode="&#x121;" horiz-adv-x="1155" d="M94 530q0 127 39 232.5t106.5 175.5t157.5 108.5t191 38.5q98 0 184 -34.5t146 -94.5v105h81v-1002q0 -249 -110.5 -359t-345.5 -110q-185 0 -340 76l6 88q142 -90 336 -90q192 0 282.5 88.5t90.5 294.5v57q-60 -60 -146 -94.5t-184 -34.5q-101 0 -191 38.5t-157.5 108.5 t-106.5 175.5t-39 232.5zM176 530q0 -220 120 -350.5t300 -130.5q96 0 181.5 38.5t140.5 109.5v667q-55 71 -140.5 109.5t-181.5 38.5q-180 0 -300 -131t-120 -351zM535 1368q0 56 11.5 77t41.5 21t41.5 -21t11.5 -77t-11.5 -77t-41.5 -21t-41.5 21t-11.5 77z" />
<glyph unicode="&#x122;" horiz-adv-x="1417" d="M104 717q0 211 92.5 379.5t262 265t385.5 96.5q219 0 385 -72l-8 -86q-154 80 -375 80q-190 0 -340 -86t-233 -237t-83 -340q0 -142 49.5 -265t137.5 -211t215.5 -138t277.5 -50q184 0 306 47v570h-447v75h533v-700q-167 -70 -394 -70q-171 0 -314.5 56t-241.5 155 t-153 235.5t-55 295.5zM784 -465q59 75 62 154q-24 4 -32.5 28.5t-8.5 69.5q0 59 13 79.5t46 20.5t46.5 -21t13.5 -79q0 -86 -22 -155t-83 -140z" />
<glyph unicode="&#x123;" horiz-adv-x="1155" d="M94 530q0 127 39 232.5t106.5 175.5t157.5 108.5t191 38.5q98 0 184 -34.5t146 -94.5v105h81v-1002q0 -249 -110.5 -359t-345.5 -110q-185 0 -340 76l6 88q142 -90 336 -90q192 0 282.5 88.5t90.5 294.5v57q-60 -60 -146 -94.5t-184 -34.5q-101 0 -191 38.5t-157.5 108.5 t-106.5 175.5t-39 232.5zM176 530q0 -220 120 -350.5t300 -130.5q96 0 181.5 38.5t140.5 109.5v667q-55 71 -140.5 109.5t-181.5 38.5q-180 0 -300 -131t-120 -351zM526 1305q0 86 22 154.5t83 139.5l35 -43q-59 -75 -62 -153q24 -4 32.5 -28.5t8.5 -69.5q0 -59 -13 -80 t-46 -21t-46.5 21t-13.5 80z" />
<glyph unicode="&#x124;" horiz-adv-x="1402" d="M176 0v1434h86v-631h879v631h86v-1434h-86v725h-879v-725h-86zM373 1561l284 331h86l285 -331h-88l-240 270l-239 -270h-88z" />
<glyph unicode="&#x125;" horiz-adv-x="1157" d="M72 1561l284 331h86l285 -331h-88l-240 270l-239 -270h-88zM156 0v1495h82v-547q67 62 160 99.5t186 37.5q201 0 314.5 -121t113.5 -343v-621h-82v618q0 190 -91 292t-264 102q-95 0 -185 -41.5t-152 -112.5v-858h-82z" />
<glyph unicode="&#x126;" horiz-adv-x="1402" d="M49 1126v74h127v234h86v-234h879v234h86v-234h127v-74h-127v-1126h-86v725h-879v-725h-86v1126h-127zM262 803h879v323h-879v-323z" />
<glyph unicode="&#x127;" horiz-adv-x="1177" d="M37 1247v74h139v174h82v-174h420v-74h-420v-299q67 62 160 99.5t186 37.5q201 0 314.5 -121t113.5 -343v-621h-82v618q0 190 -91 292t-263 102q-95 0 -185.5 -41.5t-152.5 -112.5v-858h-82v1247h-139z" />
<glyph unicode="&#x128;" horiz-adv-x="458" d="M-88 1587q0 141 46 208t124 67q42 0 78 -21t61 -51t48 -60.5t49 -51.5t53 -21q98 0 98 201h78q0 -140 -46.5 -207.5t-123.5 -67.5q-42 0 -78.5 21t-61.5 51.5t-48 60.5t-48.5 51t-52.5 21q-98 0 -98 -201h-78zM186 0v1434h86v-1434h-86z" />
<glyph unicode="&#x129;" horiz-adv-x="413" d="M-111 1231q0 141 46 207.5t124 66.5q42 0 78 -21t61 -51.5t48 -60.5t49 -51t53 -21q98 0 98 201h78q0 -140 -46.5 -207t-123.5 -67q-42 0 -78 21t-61.5 51.5t-48 60.5t-48 51t-52.5 21q-99 0 -99 -201h-78zM166 0v1061h82v-1061h-82z" />
<glyph unicode="&#x12a;" horiz-adv-x="458" d="M-47 1683v74h553v-74h-553zM186 0v1434h86v-1434h-86z" />
<glyph unicode="&#x12b;" horiz-adv-x="413" d="M-70 1329v74h553v-74h-553zM166 0v1061h82v-1061h-82z" />
<glyph unicode="&#x12c;" horiz-adv-x="458" d="M-88 1884h78q3 -118 68.5 -182t170.5 -64t171 64t69 182h78q-4 -153 -93.5 -235t-224.5 -82q-134 0 -223.5 82t-93.5 235zM186 0v1434h86v-1434h-86z" />
<glyph unicode="&#x12d;" horiz-adv-x="413" d="M-111 1528h78q3 -118 69 -182t171 -64t170.5 64t68.5 182h78q-4 -153 -93.5 -235.5t-223.5 -82.5t-224 82.5t-94 235.5zM166 0v1061h82v-1061h-82z" />
<glyph unicode="&#x12e;" horiz-adv-x="458" d="M25 -287q0 143 165 287h-4v1434h86v-1434q-166 -147 -166 -276q0 -101 132 -101q48 0 88 15v-74q-41 -13 -99 -13q-100 0 -151 43.5t-51 118.5z" />
<glyph unicode="&#x12f;" horiz-adv-x="413" d="M0 -287q0 142 166 287v1061h82v-1061q-166 -147 -166 -276q0 -101 131 -101q47 0 88 15v-74q-41 -13 -98 -13q-100 0 -151.5 43.5t-51.5 118.5zM154 1397q0 56 11.5 77t41.5 21t41.5 -21t11.5 -77t-11.5 -76.5t-41.5 -20.5t-41.5 20.5t-11.5 76.5z" />
<glyph unicode="&#x130;" horiz-adv-x="458" d="M176 1726q0 56 11.5 77.5t41.5 21.5t42 -21.5t12 -77.5t-12 -77t-42 -21t-41.5 21t-11.5 77zM186 0v1434h86v-1434h-86z" />
<glyph unicode="&#x131;" horiz-adv-x="413" d="M166 0v1061h82v-1061h-82z" />
<glyph unicode="&#x132;" horiz-adv-x="1224" d="M176 0v1434h86v-1434h-86zM381 41l8 84q115 -72 258 -72q156 0 236 95.5t80 304.5v981h86v-981q0 -478 -400 -478q-159 0 -268 66z" />
<glyph unicode="&#x133;" horiz-adv-x="915" d="M164 1397q0 56 11.5 77t41.5 21t41.5 -21t11.5 -77t-11.5 -76.5t-41.5 -20.5t-41.5 20.5t-11.5 76.5zM176 0v1061h82v-1061h-82zM358 -393l9 74q43 -17 90 -17q103 0 151.5 59.5t48.5 192.5v1145h82v-1141q0 -177 -70.5 -253.5t-209.5 -76.5q-45 0 -101 17zM645 1397 q0 56 11.5 77t41.5 21t42 -21t12 -77t-12 -76.5t-42 -20.5t-41.5 20.5t-11.5 76.5z" />
<glyph unicode="&#x134;" horiz-adv-x="876" d="M33 41l8 84q115 -72 258 -72q156 0 235.5 95.5t79.5 304.5v981h86v-981q0 -478 -399 -478q-159 0 -268 66zM328 1561l284 331h86l285 -331h-88l-240 270l-239 -270h-88z" />
<glyph unicode="&#x135;" horiz-adv-x="446" d="M-111 -393l9 74q42 -17 90 -17q103 0 151.5 59.5t48.5 192.5v1145h82v-1141q0 -177 -70.5 -253.5t-209.5 -76.5q-45 0 -101 17zM-98 1204l284 332h86l285 -332h-88l-240 271l-239 -271h-88z" />
<glyph unicode="&#x136;" horiz-adv-x="1167" d="M176 0v1434h86v-656l715 656h115l-725 -670l813 -764h-117l-801 748v-748h-86zM535 -465q58 74 61 154q-24 4 -32.5 28.5t-8.5 69.5q0 59 13 79.5t46 20.5t46.5 -21t13.5 -79q0 -86 -22 -155t-83 -140z" />
<glyph unicode="&#x137;" horiz-adv-x="1009" d="M156 0v1495h82v-883l585 449h117l-600 -463l641 -598h-113l-630 582v-582h-82zM438 -465q59 75 62 154q-24 4 -32.5 28.5t-8.5 69.5q0 59 13 79.5t46 20.5t46.5 -21t13.5 -79q0 -86 -22 -155t-83 -140z" />
<glyph unicode="&#x138;" horiz-adv-x="1009" d="M156 0v1061h82v-494l587 494h115l-604 -508l645 -553h-115l-628 539v-539h-82z" />
<glyph unicode="&#x139;" horiz-adv-x="1124" d="M141 1559l258 331h109l-285 -331h-82zM176 0v1434h86v-1356h819v-78h-905z" />
<glyph unicode="&#x13a;" horiz-adv-x="413" d="M139 1559l258 331h109l-285 -331h-82zM166 0v1495h82v-1495h-82z" />
<glyph unicode="&#x13b;" horiz-adv-x="1124" d="M176 0v1434h86v-1356h819v-78h-905zM569 -465q59 75 62 154q-24 4 -32.5 28.5t-8.5 69.5q0 59 13 79.5t46 20.5t46.5 -21t13.5 -79q0 -86 -22 -155t-83 -140z" />
<glyph unicode="&#x13c;" horiz-adv-x="409" d="M125 -465q58 74 61 154q-24 4 -32.5 28.5t-8.5 69.5q0 58 13.5 79t46.5 21t46 -20.5t13 -79.5q0 -86 -21.5 -155t-82.5 -140zM166 0v1495h82v-1495h-82z" />
<glyph unicode="&#x13d;" horiz-adv-x="1124" d="M176 0v1434h86v-1356h819v-78h-905zM725 1151q66 81 70 170q-24 4 -32.5 28.5t-8.5 69.5q0 59 13 80t46 21t46 -21t13 -80q0 -97 -24.5 -171t-87.5 -140z" />
<glyph unicode="&#x13e;" horiz-adv-x="518" d="M166 0v1495h82v-1495h-82zM324 1151q65 80 69 170q-24 4 -32.5 28.5t-8.5 69.5q0 59 13.5 80t46.5 21t46 -21t13 -80q0 -97 -25 -171t-88 -140z" />
<glyph unicode="&#x13f;" horiz-adv-x="1124" d="M176 0v1434h86v-1356h819v-78h-905zM723 752q0 56 11.5 77t41.5 21t41.5 -21t11.5 -77t-11.5 -77.5t-41.5 -21.5t-41.5 21.5t-11.5 77.5z" />
<glyph unicode="&#x140;" horiz-adv-x="667" d="M166 0v1495h82v-1495h-82zM528 752q0 56 12 77t42 21t41.5 -21t11.5 -77t-11.5 -77.5t-41.5 -21.5t-42 21.5t-12 77.5z" />
<glyph unicode="&#x141;" horiz-adv-x="1142" d="M-18 541l213 143v750h86v-693l593 402l44 -62l-637 -430v-573h819v-78h-905v594l-175 -117z" />
<glyph unicode="&#x142;" horiz-adv-x="704" d="M-18 569l301 217v709h82v-649l311 227l47 -59l-358 -260v-754h-82v694l-258 -186z" />
<glyph unicode="&#x143;" horiz-adv-x="1421" d="M176 0v1434h105l878 -1317v1317h86v-1434h-104l-879 1315v-1315h-86zM645 1561l258 331h109l-285 -331h-82z" />
<glyph unicode="&#x144;" horiz-adv-x="1157" d="M156 0v1061h82v-113q67 62 160 99.5t186 37.5q201 0 314.5 -121t113.5 -343v-621h-82v618q0 190 -91 292t-264 102q-95 0 -185 -41.5t-152 -112.5v-858h-82zM483 1206l258 332h109l-285 -332h-82z" />
<glyph unicode="&#x145;" horiz-adv-x="1421" d="M176 0v1434h105l878 -1317v1317h86v-1434h-104l-879 1315v-1315h-86zM649 -465q59 75 62 154q-24 4 -32.5 28.5t-8.5 69.5q0 59 13 79.5t46 20.5t46 -20.5t13 -79.5q0 -86 -21.5 -155t-82.5 -140z" />
<glyph unicode="&#x146;" horiz-adv-x="1157" d="M156 0v1061h82v-113q67 62 160 99.5t186 37.5q201 0 314.5 -121t113.5 -343v-621h-82v618q0 190 -91 292t-264 102q-95 0 -185 -41.5t-152 -112.5v-858h-82zM510 -465q58 74 61 154q-24 4 -32.5 28.5t-8.5 69.5q0 58 13.5 79t46.5 21t46 -20.5t13 -79.5q0 -86 -21.5 -155 t-82.5 -140z" />
<glyph unicode="&#x147;" horiz-adv-x="1421" d="M176 0v1434h105l878 -1317v1317h86v-1434h-104l-879 1315v-1315h-86zM383 1892h88l240 -270l239 270h88l-284 -331h-86z" />
<glyph unicode="&#x148;" horiz-adv-x="1157" d="M156 0v1061h82v-113q67 62 160 99.5t186 37.5q201 0 314.5 -121t113.5 -343v-621h-82v618q0 190 -91 292t-264 102q-95 0 -185 -41.5t-152 -112.5v-858h-82zM258 1532h88l240 -270l239 270h88l-284 -332h-86z" />
<glyph unicode="&#x149;" horiz-adv-x="1214" d="M47 1151q66 81 70 170q-24 4 -32.5 28.5t-8.5 69.5q0 59 13 80t46 21t46.5 -21t13.5 -80q0 -97 -25 -171t-88 -140zM213 0v1061h82v-113q67 62 160 99.5t186 37.5q201 0 314.5 -121t113.5 -343v-621h-82v618q0 190 -91 292t-263 102q-95 0 -185.5 -41.5t-152.5 -112.5 v-858h-82z" />
<glyph unicode="&#x14a;" horiz-adv-x="1421" d="M176 0v1434h105l878 -1303v1303h86v-1461q0 -108 -19 -182t-58 -116t-90.5 -60t-123.5 -18q-67 0 -114 16l8 74q55 -17 127 -17q95 0 139.5 66.5t44.5 216.5v35l-897 1327v-1315h-86z" />
<glyph unicode="&#x14b;" horiz-adv-x="1157" d="M156 0v1061h82v-113q67 62 160 99.5t186 37.5q201 0 314.5 -121t113.5 -343v-648q0 -108 -19 -182t-58 -116t-90.5 -60t-123.5 -18q-68 0 -115 16l8 74q55 -17 127 -17q96 0 142.5 67t46.5 216v665q0 190 -91 292t-264 102q-95 0 -185 -41.5t-152 -112.5v-858h-82z" />
<glyph unicode="&#x14c;" horiz-adv-x="1433" d="M104 717q0 211 72.5 378t213 265t327.5 98t327.5 -98t212.5 -265t72 -378q0 -157 -42.5 -293t-119.5 -235.5t-193 -156.5t-257 -57q-187 0 -327.5 98t-213 265.5t-72.5 378.5zM190 717q0 -193 62.5 -342.5t183 -235.5t281.5 -86t281 86t182.5 235.5t62.5 342.5 t-62.5 342.5t-182.5 235t-281 85.5t-281.5 -85.5t-183 -235t-62.5 -342.5zM440 1688v73h553v-73h-553z" />
<glyph unicode="&#x14d;" horiz-adv-x="1167" d="M94 530q0 159 62.5 286t174.5 198t253 71t252.5 -71t174 -198t62.5 -286q0 -243 -137.5 -399t-351.5 -156t-352 156t-138 399zM176 530q0 -213 116.5 -347t291.5 -134t291 134t116 347t-116 347.5t-291 134.5t-291.5 -134.5t-116.5 -347.5zM307 1329v74h553v-74h-553z " />
<glyph unicode="&#x14e;" horiz-adv-x="1433" d="M104 717q0 211 72.5 378t213 265t327.5 98t327.5 -98t212.5 -265t72 -378q0 -157 -42.5 -293t-119.5 -235.5t-193 -156.5t-257 -57q-187 0 -327.5 98t-213 265.5t-72.5 378.5zM190 717q0 -193 62.5 -342.5t183 -235.5t281.5 -86t281 86t182.5 235.5t62.5 342.5 t-62.5 342.5t-182.5 235t-281 85.5t-281.5 -85.5t-183 -235t-62.5 -342.5zM399 1882h78q3 -118 69 -182t171 -64t170.5 64t68.5 182h78q-4 -153 -93.5 -235t-223.5 -82q-135 0 -224.5 82t-93.5 235z" />
<glyph unicode="&#x14f;" horiz-adv-x="1167" d="M94 530q0 159 62.5 286t174.5 198t253 71t252.5 -71t174 -198t62.5 -286q0 -243 -137.5 -399t-351.5 -156t-352 156t-138 399zM176 530q0 -213 116.5 -347t291.5 -134t291 134t116 347t-116 347.5t-291 134.5t-291.5 -134.5t-116.5 -347.5zM266 1528h78q3 -118 69 -182 t171 -64t170.5 64t68.5 182h78q-4 -153 -93.5 -235.5t-223.5 -82.5t-224 82.5t-94 235.5z" />
<glyph unicode="&#x150;" horiz-adv-x="1433" d="M104 717q0 211 72.5 378t213 265t327.5 98t327.5 -98t212.5 -265t72 -378q0 -157 -42.5 -293t-119.5 -235.5t-193 -156.5t-257 -57q-187 0 -327.5 98t-213 265.5t-72.5 378.5zM190 717q0 -193 62.5 -342.5t183 -235.5t281.5 -86t281 86t182.5 235.5t62.5 342.5 t-62.5 342.5t-182.5 235t-281 85.5t-281.5 -85.5t-183 -235t-62.5 -342.5zM475 1561l258 331h109l-285 -331h-82zM766 1561l258 331h109l-285 -331h-82z" />
<glyph unicode="&#x151;" horiz-adv-x="1167" d="M94 530q0 159 62.5 286t174.5 198t253 71t252.5 -71t174 -198t62.5 -286q0 -243 -137.5 -399t-351.5 -156t-352 156t-138 399zM176 530q0 -213 116.5 -347t291.5 -134t291 134t116 347t-116 347.5t-291 134.5t-291.5 -134.5t-116.5 -347.5zM344 1204l258 332h109 l-285 -332h-82zM635 1204l258 332h108l-284 -332h-82z" />
<glyph unicode="&#x152;" horiz-adv-x="1699" d="M104 719q0 331 196 523t538 192h753v-78h-655v-576h604v-78h-604v-624h674v-78h-768q-344 0 -541 192.5t-197 526.5zM190 719q0 -301 179 -471t481 -170v1278l-2 2q-305 0 -481.5 -168.5t-176.5 -470.5z" />
<glyph unicode="&#x153;" horiz-adv-x="1863" d="M94 530q0 248 124 401.5t327 153.5q147 0 255.5 -87t153.5 -236q43 149 143 236t249 87q205 0 319.5 -147.5t114.5 -390.5v-51h-783q6 -100 32 -179.5t73.5 -140.5t123.5 -94t177 -33q173 0 283 88l8 -82q-115 -80 -295 -80q-177 0 -289.5 88t-155.5 240 q-38 -153 -147 -240.5t-262 -87.5q-203 0 -327 153.5t-124 401.5zM176 530q0 -221 101.5 -351t267.5 -130q167 0 267.5 130t100.5 351t-100.5 351.5t-267.5 130.5q-166 0 -267.5 -130.5t-101.5 -351.5zM997 571h697q-2 199 -94.5 320t-253.5 121q-159 0 -252.5 -121.5 t-96.5 -319.5z" />
<glyph unicode="&#x154;" horiz-adv-x="1210" d="M176 0v1434h402q241 0 379.5 -108t138.5 -294q0 -147 -87 -245.5t-245 -135.5l414 -651h-99l-399 635q-33 -4 -102 -4h-316v-631h-86zM262 709h311q213 0 325 85t112 238t-112.5 238.5t-324.5 85.5h-311v-647zM463 1561l258 331h108l-284 -331h-82z" />
<glyph unicode="&#x155;" horiz-adv-x="727" d="M156 0v1061h82v-174q57 89 148.5 143.5t201.5 54.5q74 0 121 -18l-11 -78q-48 23 -112 23q-220 0 -348 -238v-774h-82zM256 1206l258 332h109l-285 -332h-82z" />
<glyph unicode="&#x156;" horiz-adv-x="1210" d="M176 0v1434h402q241 0 379.5 -108t138.5 -294q0 -147 -87 -245.5t-245 -135.5l414 -651h-99l-399 635q-33 -4 -102 -4h-316v-631h-86zM262 709h311q213 0 325 85t112 238t-112.5 238.5t-324.5 85.5h-311v-647zM549 -465q58 74 61 154q-24 4 -32.5 28.5t-8.5 69.5 q0 58 13.5 79t46.5 21t46 -20.5t13 -79.5q0 -86 -21.5 -155t-82.5 -140z" />
<glyph unicode="&#x157;" horiz-adv-x="727" d="M119 -465q58 74 61 154q-24 4 -32.5 28.5t-8.5 69.5q0 58 13.5 79t46.5 21t46 -20.5t13 -79.5q0 -86 -21.5 -155t-82.5 -140zM156 0v1061h82v-174q57 89 148.5 143.5t201.5 54.5q74 0 121 -18l-11 -78q-48 23 -112 23q-220 0 -348 -238v-774h-82z" />
<glyph unicode="&#x158;" horiz-adv-x="1210" d="M176 0v1434h402q241 0 379.5 -108t138.5 -294q0 -147 -87 -245.5t-245 -135.5l414 -651h-99l-399 635q-33 -4 -102 -4h-316v-631h-86zM219 1892h88l240 -270l239 270h88l-284 -331h-86zM262 709h311q213 0 325 85t112 238t-112.5 238.5t-324.5 85.5h-311v-647z" />
<glyph unicode="&#x159;" horiz-adv-x="727" d="M90 1532h88l240 -270l239 270h88l-284 -332h-86zM156 0v1061h82v-174q57 89 148.5 143.5t201.5 54.5q74 0 121 -18l-11 -78q-48 23 -112 23q-220 0 -348 -238v-774h-82z" />
<glyph unicode="&#x15a;" horiz-adv-x="1083" d="M115 1116q0 156 128.5 249t340.5 93q179 0 307 -51l-8 -86q-126 59 -301 59q-178 0 -279.5 -73t-101.5 -191q0 -115 77.5 -191t262.5 -137q234 -77 336 -176.5t102 -257.5q0 -175 -128 -277t-355 -102q-95 0 -194 24.5t-175 66.5l8 90q165 -103 365 -103q190 0 291.5 81 t101.5 218q0 130 -86 211t-299 150q-207 67 -300 161t-93 242zM420 1561l258 331h108l-284 -331h-82z" />
<glyph unicode="&#x15b;" horiz-adv-x="913" d="M98 57l8 86q140 -94 314 -94q153 0 233 57t80 158q0 90 -70 150t-231 100q-328 84 -328 305q0 124 101.5 195t259.5 71q156 0 287 -59l-9 -84q-123 70 -280 70q-130 0 -203.5 -51.5t-73.5 -139.5q0 -87 67 -143.5t220 -97.5q185 -49 263.5 -126.5t78.5 -187.5 q0 -141 -103.5 -216t-289.5 -75q-83 0 -170 21t-154 61zM342 1184l258 332h109l-285 -332h-82z" />
<glyph unicode="&#x15c;" horiz-adv-x="1083" d="M115 1116q0 156 128.5 249t340.5 93q179 0 307 -51l-8 -86q-126 59 -301 59q-178 0 -279.5 -73t-101.5 -191q0 -115 77.5 -191t262.5 -137q234 -77 336 -176.5t102 -257.5q0 -175 -128 -277t-355 -102q-95 0 -194 24.5t-175 66.5l8 90q165 -103 365 -103q190 0 291.5 81 t101.5 218q0 130 -86 211t-299 150q-207 67 -300 161t-93 242zM217 1561l285 331h86l284 -331h-88l-239 270l-240 -270h-88z" />
<glyph unicode="&#x15d;" horiz-adv-x="913" d="M98 57l8 86q140 -94 314 -94q153 0 233 57t80 158q0 90 -70 150t-231 100q-328 84 -328 305q0 124 101.5 195t259.5 71q156 0 287 -59l-9 -84q-123 70 -280 70q-130 0 -203.5 -51.5t-73.5 -139.5q0 -87 67 -143.5t220 -97.5q185 -49 263.5 -126.5t78.5 -187.5 q0 -141 -103.5 -216t-289.5 -75q-83 0 -170 21t-154 61zM121 1204l285 332h86l284 -332h-88l-239 271l-240 -271h-88z" />
<glyph unicode="&#x15e;" horiz-adv-x="1083" d="M115 1116q0 156 128.5 249t340.5 93q179 0 307 -51l-8 -86q-126 59 -301 59q-178 0 -279.5 -73t-101.5 -191q0 -115 77.5 -191t262.5 -137q234 -77 336 -176.5t102 -257.5q0 -151 -96 -248t-271 -122l-65 -117q89 -18 137.5 -65.5t48.5 -110.5q0 -82 -59.5 -130 t-175.5 -48q-57 0 -103 14v67q43 -18 101 -18q78 0 119.5 31.5t41.5 83.5q0 55 -54.5 93t-156.5 44l82 147h-32q-95 0 -194 24.5t-175 66.5l8 90q165 -103 365 -103q190 0 291.5 81t101.5 218q0 130 -86 211t-299 150q-207 67 -300 161t-93 242z" />
<glyph unicode="&#x15f;" horiz-adv-x="913" d="M98 57l8 86q140 -94 314 -94q153 0 233 57t80 158q0 90 -70 150t-231 100q-328 84 -328 305q0 124 101.5 195t259.5 71q156 0 287 -59l-9 -84q-123 70 -280 70q-130 0 -203.5 -51.5t-73.5 -139.5q0 -87 67 -143.5t220 -97.5q185 -49 263.5 -126.5t78.5 -187.5 q0 -120 -76 -191.5t-215 -90.5l-65 -117q89 -18 137.5 -65.5t48.5 -110.5q0 -82 -59.5 -130t-175.5 -48q-57 0 -103 14v67q43 -18 101 -18q78 0 119.5 31.5t41.5 83.5q0 55 -54.5 93t-156.5 44l82 147h-18q-83 0 -170 21t-154 61z" />
<glyph unicode="&#x160;" horiz-adv-x="1083" d="M115 1116q0 156 128.5 249t340.5 93q179 0 307 -51l-8 -86q-126 59 -301 59q-178 0 -279.5 -73t-101.5 -191q0 -115 77.5 -191t262.5 -137q234 -77 336 -176.5t102 -257.5q0 -175 -128 -277t-355 -102q-95 0 -194 24.5t-175 66.5l8 90q165 -103 365 -103q190 0 291.5 81 t101.5 218q0 130 -86 211t-299 150q-207 67 -300 161t-93 242zM217 1892h88l240 -270l239 270h88l-284 -331h-86z" />
<glyph unicode="&#x161;" horiz-adv-x="913" d="M98 57l8 86q140 -94 314 -94q153 0 233 57t80 158q0 90 -70 150t-231 100q-328 84 -328 305q0 124 101.5 195t259.5 71q156 0 287 -59l-9 -84q-123 70 -280 70q-130 0 -203.5 -51.5t-73.5 -139.5q0 -87 67 -143.5t220 -97.5q185 -49 263.5 -126.5t78.5 -187.5 q0 -141 -103.5 -216t-289.5 -75q-83 0 -170 21t-154 61zM113 1532h88l239 -270l240 270h88l-285 -332h-86z" />
<glyph unicode="&#x162;" horiz-adv-x="1071" d="M23 1356v78h1026v-78h-471v-1356l-76 -133q89 -18 137.5 -65.5t48.5 -110.5q0 -82 -59.5 -130t-175.5 -48q-57 0 -103 14v67q43 -18 101 -18q78 0 119.5 31.5t41.5 83.5q0 55 -54.5 93t-156.5 44l97 172h-6v1356h-469z" />
<glyph unicode="&#x163;" horiz-adv-x="727" d="M37 987v74h207v317h82v-317h348v-74h-348v-645q0 -157 49 -225t168 -68q58 0 110 14l13 -75q-67 -13 -127 -13h-17l-61 -108q89 -18 137.5 -65.5t48.5 -110.5q0 -82 -59.5 -130t-175.5 -48q-57 0 -103 14v67q43 -18 101 -18q78 0 119.5 31.5t41.5 83.5q0 55 -54.5 93 t-156.5 44l86 158q-104 22 -153 103.5t-49 232.5v665h-207z" />
<glyph unicode="&#x164;" horiz-adv-x="1071" d="M23 1356v78h1026v-78h-471v-1356h-86v1356h-469zM207 1892h88l240 -270l239 270h88l-284 -331h-86z" />
<glyph unicode="&#x165;" horiz-adv-x="874" d="M37 987v74h207v317h82v-317h348v-74h-348v-645q0 -157 49 -225t168 -68q58 0 110 14l13 -75q-67 -13 -127 -13q-152 0 -223.5 83.5t-71.5 263.5v665h-207zM680 1151q66 81 70 170q-24 4 -32.5 28.5t-8.5 69.5q0 59 13 80t46 21t46 -21t13 -80q0 -97 -24.5 -171 t-87.5 -140z" />
<glyph unicode="&#x166;" horiz-adv-x="1071" d="M23 1356v78h1026v-78h-471v-606h342v-74h-342v-676h-86v676h-342v74h342v606h-469z" />
<glyph unicode="&#x167;" horiz-adv-x="727" d="M37 987v74h207v317h82v-317h348v-74h-348v-338h307v-74h-307v-233q0 -157 49 -225t168 -68q58 0 110 14l13 -75q-67 -13 -127 -13q-152 0 -223.5 83.5t-71.5 263.5v253h-166v74h166v338h-207z" />
<glyph unicode="&#x168;" horiz-adv-x="1435" d="M176 549v885h86v-877q0 -244 119.5 -374t335.5 -130q217 0 337 130t120 374v877h86v-885q0 -141 -40.5 -251.5t-113 -180.5t-171.5 -106t-218 -36q-244 0 -392.5 147.5t-148.5 426.5zM399 1587q0 141 46 208t124 67q42 0 78 -21t61 -51t48 -60.5t49 -51.5t53 -21 q98 0 98 201h78q0 -140 -46.5 -207.5t-123.5 -67.5q-42 0 -78.5 21t-61.5 51.5t-48 60.5t-48.5 51t-52.5 21q-98 0 -98 -201h-78z" />
<glyph unicode="&#x169;" horiz-adv-x="1157" d="M145 440v621h82v-619q0 -190 91 -291.5t264 -101.5q95 0 185.5 41.5t152.5 112.5v858h81v-1061h-81v113q-67 -62 -160.5 -100t-186.5 -38q-201 0 -314.5 121.5t-113.5 343.5zM256 1231q0 141 46 207.5t124 66.5q42 0 78 -21t61 -51.5t48 -60.5t49 -51t53 -21q98 0 98 201 h78q0 -140 -46.5 -207t-123.5 -67q-42 0 -78.5 21t-61.5 51.5t-48 60.5t-48.5 51t-52.5 21q-98 0 -98 -201h-78z" />
<glyph unicode="&#x16a;" horiz-adv-x="1435" d="M176 549v885h86v-877q0 -244 119.5 -374t335.5 -130q217 0 337 130t120 374v877h86v-885q0 -141 -40.5 -251.5t-113 -180.5t-171.5 -106t-218 -36q-244 0 -392.5 147.5t-148.5 426.5zM440 1688v73h553v-73h-553z" />
<glyph unicode="&#x16b;" horiz-adv-x="1157" d="M145 440v621h82v-619q0 -190 91 -291.5t264 -101.5q95 0 185.5 41.5t152.5 112.5v858h81v-1061h-81v113q-67 -62 -160.5 -100t-186.5 -38q-201 0 -314.5 121.5t-113.5 343.5zM297 1329v74h553v-74h-553z" />
<glyph unicode="&#x16c;" horiz-adv-x="1435" d="M176 549v885h86v-877q0 -244 119.5 -374t335.5 -130q217 0 337 130t120 374v877h86v-885q0 -141 -40.5 -251.5t-113 -180.5t-171.5 -106t-218 -36q-244 0 -392.5 147.5t-148.5 426.5zM399 1882h78q3 -118 69 -182t171 -64t170.5 64t68.5 182h78q-4 -153 -93.5 -235 t-223.5 -82q-135 0 -224.5 82t-93.5 235z" />
<glyph unicode="&#x16d;" horiz-adv-x="1157" d="M145 440v621h82v-619q0 -190 91 -291.5t264 -101.5q95 0 185.5 41.5t152.5 112.5v858h81v-1061h-81v113q-67 -62 -160.5 -100t-186.5 -38q-201 0 -314.5 121.5t-113.5 343.5zM256 1528h78q3 -118 68.5 -182t170.5 -64t171 64t69 182h78q-4 -153 -94 -235.5t-224 -82.5 t-223.5 82.5t-93.5 235.5z" />
<glyph unicode="&#x16e;" horiz-adv-x="1435" d="M176 549v885h86v-877q0 -244 119.5 -374t335.5 -130q217 0 337 130t120 374v877h86v-885q0 -141 -40.5 -251.5t-113 -180.5t-171.5 -106t-218 -36q-244 0 -392.5 147.5t-148.5 426.5zM508 1722q0 86 60.5 146.5t148.5 60.5t148.5 -60.5t60.5 -146.5t-60.5 -146 t-148.5 -60t-148.5 60t-60.5 146zM573 1722q0 -60 42 -102.5t102 -42.5t101.5 42.5t41.5 102.5t-41.5 103t-101.5 43t-102 -43t-42 -103z" />
<glyph unicode="&#x16f;" horiz-adv-x="1157" d="M145 440v621h82v-619q0 -190 91 -291.5t264 -101.5q95 0 185.5 41.5t152.5 112.5v858h81v-1061h-81v113q-67 -62 -160.5 -100t-186.5 -38q-201 0 -314.5 121.5t-113.5 343.5zM365 1370q0 86 60.5 146.5t147.5 60.5q88 0 148.5 -60.5t60.5 -146.5t-60.5 -146.5 t-148.5 -60.5q-87 0 -147.5 60.5t-60.5 146.5zM430 1370q0 -60 41.5 -102.5t101.5 -42.5t102 42.5t42 102.5t-42 103t-102 43t-101.5 -43t-41.5 -103z" />
<glyph unicode="&#x170;" horiz-adv-x="1435" d="M176 549v885h86v-877q0 -244 119.5 -374t335.5 -130q217 0 337 130t120 374v877h86v-885q0 -141 -40.5 -251.5t-113 -180.5t-171.5 -106t-218 -36q-244 0 -392.5 147.5t-148.5 426.5zM465 1561l258 331h108l-284 -331h-82zM756 1561l258 331h108l-284 -331h-82z" />
<glyph unicode="&#x171;" horiz-adv-x="1159" d="M145 440v621h82v-619q0 -190 91 -291.5t264 -101.5q95 0 185.5 41.5t152.5 112.5v858h81v-1061h-81v113q-67 -62 -160.5 -100t-186.5 -38q-201 0 -314.5 121.5t-113.5 343.5zM346 1204l258 332h109l-285 -332h-82zM637 1204l258 332h109l-285 -332h-82z" />
<glyph unicode="&#x172;" horiz-adv-x="1435" d="M176 549v885h86v-877q0 -244 119.5 -374t335.5 -130q217 0 337 130t120 374v877h86v-885q0 -254 -124 -398.5t-335 -168.5q-144 -135 -144 -258q0 -101 131 -101q48 0 89 15v-74q-41 -13 -99 -13q-100 0 -151.5 43.5t-51.5 118.5q0 131 138 262q-243 2 -390 148.5 t-147 425.5z" />
<glyph unicode="&#x173;" horiz-adv-x="1159" d="M145 440v621h82v-619q0 -190 91 -291.5t264 -101.5q95 0 185.5 41.5t152.5 112.5v858h81v-1061q-165 -146 -165 -276q0 -101 131 -101q47 0 88 15v-74q-41 -13 -99 -13q-100 0 -151 43.5t-51 118.5q0 142 166 287v113q-67 -62 -160.5 -100t-186.5 -38 q-201 0 -314.5 121.5t-113.5 343.5z" />
<glyph unicode="&#x174;" horiz-adv-x="2007" d="M53 1434h92l439 -1323l366 1323h107l366 -1323l439 1323h92l-481 -1434h-99l-370 1321l-371 -1321h-98zM676 1561l285 331h86l284 -331h-88l-239 270l-240 -270h-88z" />
<glyph unicode="&#x175;" horiz-adv-x="1576" d="M43 1061h92l314 -955l294 955h91l294 -955l314 955h92l-360 -1061h-89l-297 934l-296 -934h-89zM461 1204l284 332h86l285 -332h-88l-240 271l-239 -271h-88z" />
<glyph unicode="&#x176;" horiz-adv-x="1310" d="M53 1434h99l503 -781l504 781h98l-559 -865v-569h-86v569zM328 1561l284 331h86l285 -331h-88l-240 270l-239 -270h-88z" />
<glyph unicode="&#x177;" horiz-adv-x="1054" d="M43 1061h92l402 -963l383 963h92l-588 -1456h-90l160 395zM209 1204l285 332h86l284 -332h-88l-239 271l-240 -271h-88z" />
<glyph unicode="&#x178;" horiz-adv-x="1310" d="M53 1434h99l503 -781l504 781h98l-559 -865v-569h-86v569zM393 1726q0 56 11.5 77.5t41.5 21.5t42 -21.5t12 -77.5t-12 -77t-42 -21t-41.5 21t-11.5 77zM811 1726q0 56 11.5 77.5t41.5 21.5t42 -21.5t12 -77.5t-12 -77t-42 -21t-41.5 21t-11.5 77z" />
<glyph unicode="&#x179;" horiz-adv-x="1130" d="M68 0v84l878 1272h-848v78h944v-84l-878 -1272h899v-78h-995zM459 1561l258 331h108l-284 -331h-82z" />
<glyph unicode="&#x17a;" horiz-adv-x="935" d="M57 0v88l713 899h-682v74h770v-88l-713 -899h734v-74h-822zM369 1204l258 332h108l-284 -332h-82z" />
<glyph unicode="&#x17b;" horiz-adv-x="1130" d="M68 0v84l878 1272h-848v78h944v-84l-878 -1272h899v-78h-995zM494 1726q0 56 11.5 77.5t41.5 21.5t41.5 -21.5t11.5 -77.5t-11.5 -77t-41.5 -21t-41.5 21t-11.5 77z" />
<glyph unicode="&#x17c;" horiz-adv-x="935" d="M57 0v88l713 899h-682v74h770v-88l-713 -899h734v-74h-822zM408 1368q0 56 11.5 77t41.5 21t41.5 -21t11.5 -77t-11.5 -77t-41.5 -21t-41.5 21t-11.5 77z" />
<glyph unicode="&#x17d;" horiz-adv-x="1130" d="M68 0v84l878 1272h-848v78h944v-84l-878 -1272h899v-78h-995zM238 1892h88l239 -270l240 270h88l-285 -331h-86z" />
<glyph unicode="&#x17e;" horiz-adv-x="935" d="M57 0v88l713 899h-682v74h770v-88l-713 -899h734v-74h-822zM141 1532h88l240 -270l240 270h88l-285 -332h-86z" />
<glyph unicode="&#x17f;" horiz-adv-x="673" d="M16 987v74h236v57q0 201 74.5 289t222.5 88q77 0 133 -18l-10 -74q-52 18 -121 18q-113 0 -165 -67t-52 -240v-1114h-82v987h-236z" />
<glyph unicode="&#x191;" horiz-adv-x="1073" d="M-168 -391l10 80q53 -21 121 -21q110 0 161.5 66.5t51.5 234.5v1465h848v-78h-762v-572h711v-77h-711v-740q0 -201 -75.5 -289t-227.5 -88q-68 0 -127 19z" />
<glyph unicode="&#x192;" horiz-adv-x="673" d="M-96 -391l10 74q55 -19 121 -19q113 0 165 67t52 240v1016h-236v74h236v57q0 201 74.5 289t222.5 88q77 0 133 -18l-10 -74q-52 18 -121 18q-113 0 -165 -67t-52 -240v-53h321v-74h-321v-1020q0 -201 -74.5 -289t-222.5 -88q-74 0 -133 19z" />
<glyph unicode="&#x1fa;" horiz-adv-x="1290" d="M25 0l536 1343q-56 24 -90.5 75.5t-34.5 115.5q0 86 60.5 146.5t148.5 60.5t148.5 -60.5t60.5 -146.5q0 -64 -35 -116t-92 -75l539 -1343h-95l-161 410h-729l-162 -410h-94zM311 487h668l-330 840h-8zM502 1534q0 -60 41.5 -102.5t101.5 -42.5t101.5 42.5t41.5 102.5 t-41.5 102.5t-101.5 42.5t-101.5 -42.5t-41.5 -102.5zM575 1784l154 223h109l-181 -223h-82z" />
<glyph unicode="&#x1fb;" horiz-adv-x="1081" d="M84 293q0 158 115 248t329 90h326v80q0 169 -76 235t-248 66q-185 0 -340 -76l-10 76q160 73 350 73q209 0 307.5 -86t98.5 -292v-707h-82v104q-138 -129 -371 -129q-178 0 -288.5 82.5t-110.5 235.5zM166 297q0 -123 85 -185.5t232 -62.5q232 0 371 148v360h-328 q-178 0 -269 -69t-91 -191zM340 1370q0 86 60.5 146.5t148.5 60.5t148.5 -60.5t60.5 -146.5t-60.5 -146.5t-148.5 -60.5t-148.5 60.5t-60.5 146.5zM406 1370q0 -60 41.5 -102.5t101.5 -42.5t101.5 42.5t41.5 102.5t-41.5 103t-101.5 43t-101.5 -43t-41.5 -103zM479 1620 l154 223h108l-180 -223h-82z" />
<glyph unicode="&#x1fc;" horiz-adv-x="1716" d="M23 0l790 1434h795v-78h-656v-576h604v-78h-604v-624h674v-78h-760v412h-516l-225 -412h-102zM391 489h475v865zM1057 1561l258 331h108l-284 -331h-82z" />
<glyph unicode="&#x1fd;" horiz-adv-x="1742" d="M84 299q0 161 109 248.5t323 87.5h285v67q0 151 -80.5 232.5t-231.5 81.5q-164 0 -301 -70l-10 74q147 70 314 70q147 0 240.5 -67.5t125.5 -195.5q105 263 367 263q205 0 319.5 -148t114.5 -391v-51h-782q12 -213 112.5 -330t292.5 -117q173 0 283 88l8 -82 q-113 -79 -299 -79q-170 0 -278.5 78.5t-155.5 213.5q-49 -144 -153 -218t-253 -74q-147 0 -248.5 83.5t-101.5 235.5zM166 303q0 -65 22 -114.5t60.5 -77.5t84.5 -42t99 -14q308 0 367 359v147h-277q-182 0 -269 -63.5t-87 -194.5zM776 1204l258 332h109l-285 -332h-82z M877 575h696q-2 199 -94.5 320t-253.5 121q-159 0 -252 -121.5t-96 -319.5z" />
<glyph unicode="&#x1fe;" horiz-adv-x="1433" d="M104 717q0 211 72.5 378t213 265t327.5 98q181 0 323 -96l158 276h86l-184 -323q110 -100 169.5 -255t59.5 -343q0 -157 -42.5 -293t-119.5 -235.5t-193 -156.5t-257 -57q-186 0 -326 95l-155 -275h-86l182 322q-110 99 -169 255.5t-59 344.5zM190 717 q0 -166 47.5 -302.5t135.5 -224.5l628 1102q-128 88 -284 88q-161 0 -281.5 -85.5t-183 -235t-62.5 -342.5zM432 141q120 -88 285 -88q161 0 281 86t182.5 235.5t62.5 342.5q0 166 -47.5 301.5t-136.5 224.5zM621 1561l258 331h108l-285 -331h-81z" />
<glyph unicode="&#x1ff;" horiz-adv-x="1175" d="M94 530q0 242 139 398.5t355 156.5q133 0 241 -63l154 264h84l-178 -307q90 -74 141 -191t51 -258q0 -243 -138 -399t-355 -156q-131 0 -242 62l-151 -262h-84l176 305q-92 74 -142.5 190.5t-50.5 259.5zM176 530q0 -120 39.5 -218.5t110.5 -164.5l465 807 q-92 58 -203 58q-179 0 -295.5 -134.5t-116.5 -347.5zM385 104q88 -55 203 -55q179 0 295 134t116 347q0 119 -39.5 217t-109.5 164zM481 1204l258 332h109l-285 -332h-82z" />
<glyph unicode="&#x218;" horiz-adv-x="1083" d="M115 1116q0 156 128.5 249t340.5 93q179 0 307 -51l-8 -86q-126 59 -301 59q-178 0 -279.5 -73t-101.5 -191q0 -115 77.5 -191t262.5 -137q234 -77 336 -176.5t102 -257.5q0 -175 -128 -277t-355 -102q-95 0 -194 24.5t-175 66.5l8 90q165 -103 365 -103q190 0 291.5 81 t101.5 218q0 130 -86 211t-299 150q-207 67 -300 161t-93 242zM504 -465q58 74 61 154q-24 4 -32.5 28.5t-8.5 69.5q0 58 13.5 79t46.5 21t46 -20.5t13 -79.5q0 -86 -21.5 -155t-82.5 -140z" />
<glyph unicode="&#x219;" horiz-adv-x="913" d="M98 57l8 86q140 -94 314 -94q153 0 233 57t80 158q0 90 -70 150t-231 100q-328 84 -328 305q0 124 101.5 195t259.5 71q156 0 287 -59l-9 -84q-123 70 -280 70q-130 0 -203.5 -51.5t-73.5 -139.5q0 -87 67 -143.5t220 -97.5q185 -49 263.5 -126.5t78.5 -187.5 q0 -141 -103.5 -216t-289.5 -75q-83 0 -170 21t-154 61zM412 -465q58 74 61 154q-24 4 -32.5 28.5t-8.5 69.5q0 58 13.5 79t46.5 21t46 -20.5t13 -79.5q0 -86 -22 -155t-83 -140z" />
<glyph unicode="&#x21a;" horiz-adv-x="1071" d="M23 1356v78h1026v-78h-471v-1356h-86v1356h-469zM457 -465q58 74 61 154q-24 4 -32.5 28.5t-8.5 69.5q0 58 13.5 79t46.5 21t46 -20.5t13 -79.5q0 -86 -21.5 -155t-82.5 -140z" />
<glyph unicode="&#x21b;" horiz-adv-x="727" d="M37 987v74h207v317h82v-317h348v-74h-348v-645q0 -157 49 -225t168 -68q58 0 110 14l13 -75q-67 -13 -127 -13q-152 0 -223.5 83.5t-71.5 263.5v665h-207zM354 -465q59 75 62 154q-24 4 -32.5 28.5t-8.5 69.5q0 59 13 79.5t46 20.5t46.5 -21t13.5 -79q0 -86 -22 -155 t-83 -140z" />
<glyph unicode="&#x237;" horiz-adv-x="446" d="M-111 -393l9 74q42 -17 90 -17q103 0 151.5 59.5t48.5 192.5v1145h82v-1141q0 -177 -70.5 -253.5t-209.5 -76.5q-45 0 -101 17z" />
<glyph unicode="&#x2bc;" horiz-adv-x="806" d="M315 1151q66 81 70 170q-24 4 -32.5 28.5t-8.5 69.5q0 59 13 80t46 21t46.5 -21t13.5 -80q0 -97 -25 -171t-88 -140z" />
<glyph unicode="&#x2c6;" horiz-adv-x="806" d="M76 1163l284 332h86l285 -332h-88l-240 271l-239 -271h-88z" />
<glyph unicode="&#x2c7;" horiz-adv-x="806" d="M76 1495h88l239 -270l240 270h88l-285 -332h-86z" />
<glyph unicode="&#x2c9;" horiz-adv-x="806" d="M127 1288v74h553v-74h-553z" />
<glyph unicode="&#x2d8;" horiz-adv-x="806" d="M86 1487h78q3 -118 68.5 -182t170.5 -64t171 64t69 182h78q-4 -153 -94 -235.5t-224 -82.5t-223.5 82.5t-93.5 235.5z" />
<glyph unicode="&#x2d9;" horiz-adv-x="806" d="M350 1327q0 56 11.5 77t41.5 21t42 -21t12 -77t-12 -77t-42 -21t-41.5 21t-11.5 77z" />
<glyph unicode="&#x2da;" horiz-adv-x="806" d="M195 1329q0 87 60.5 147t147.5 60q88 0 148.5 -60.5t60.5 -146.5t-60.5 -146.5t-148.5 -60.5q-87 0 -147.5 60t-60.5 147zM260 1329q0 -60 41.5 -102.5t101.5 -42.5t102 42.5t42 102.5t-42 103t-102 43t-101.5 -43t-41.5 -103z" />
<glyph unicode="&#x2db;" horiz-adv-x="806" d="M258 -287q0 142 166 287h82q-166 -147 -166 -276q0 -101 131 -101q47 0 88 15v-74q-41 -13 -98 -13q-100 0 -151.5 43.5t-51.5 118.5z" />
<glyph unicode="&#x2dc;" horiz-adv-x="806" d="M86 1192q0 141 46 207.5t124 66.5q42 0 78 -21t61 -51t48 -60t49 -51t53 -21q98 0 98 200h78q0 -140 -46.5 -207t-123.5 -67q-36 0 -67.5 15t-53.5 38t-44 49.5t-39.5 49.5t-39.5 38t-45 15q-98 0 -98 -201h-78z" />
<glyph unicode="&#x2dd;" horiz-adv-x="806" d="M84 1163l258 332h109l-285 -332h-82zM375 1163l258 332h108l-284 -332h-82z" />
<glyph unicode="&#x300;" horiz-adv-x="0" d="M-797 1495h109l258 -332h-82z" />
<glyph unicode="&#x301;" horiz-adv-x="0" d="M-633 1163l258 332h109l-285 -332h-82z" />
<glyph unicode="&#x302;" horiz-adv-x="0" d="M-850 1163l285 332h86l284 -332h-88l-239 271l-240 -271h-88z" />
<glyph unicode="&#x303;" horiz-adv-x="0" d="M-844 1192q0 141 46 207.5t124 66.5q42 0 78 -21t61 -51t48 -60t49 -51t53 -21q98 0 98 200h78q0 -140 -46.5 -207t-123.5 -67q-36 0 -67.5 15t-53.5 38t-44 49.5t-39.5 49.5t-39.5 38t-45 15q-98 0 -98 -201h-78z" />
<glyph unicode="&#x304;" horiz-adv-x="0" d="M-786 1288v74h553v-74h-553z" />
<glyph unicode="&#x306;" horiz-adv-x="0" d="M-846 1487h78q3 -118 69 -182t171 -64t170.5 64t68.5 182h78q-4 -153 -93.5 -235.5t-223.5 -82.5t-224 82.5t-94 235.5z" />
<glyph unicode="&#x307;" horiz-adv-x="0" d="M-575 1327q0 56 11.5 77t41.5 21t41.5 -21t11.5 -77t-11.5 -77t-41.5 -21t-41.5 21t-11.5 77z" />
<glyph unicode="&#x308;" horiz-adv-x="0" d="M-782 1327q0 56 11.5 77t41.5 21t41.5 -21t11.5 -77t-11.5 -77t-41.5 -21t-41.5 21t-11.5 77zM-365 1327q0 56 12 77t42 21t41.5 -21t11.5 -77t-11.5 -77t-41.5 -21t-42 21t-12 77z" />
<glyph unicode="&#x30a;" horiz-adv-x="0" d="M-731 1329q0 86 60.5 146.5t148.5 60.5t148.5 -60.5t60.5 -146.5t-60.5 -146.5t-148.5 -60.5t-148.5 60.5t-60.5 146.5zM-666 1329q0 -60 42 -102.5t102 -42.5t101.5 42.5t41.5 102.5t-41.5 103t-101.5 43t-102 -43t-42 -103z" />
<glyph unicode="&#x30c;" horiz-adv-x="0" d="M-850 1495h88l240 -270l239 270h88l-284 -332h-86z" />
<glyph unicode="&#x327;" horiz-adv-x="0" d="M-684 -406q44 -18 100 -18q78 0 120 31.5t42 83.5q0 55 -54.5 93t-156.5 44l96 172h80l-75 -133q89 -18 137.5 -65.5t48.5 -110.5q0 -82 -59.5 -130t-176.5 -48q-56 0 -102 14v67z" />
<glyph unicode="&#x384;" horiz-adv-x="806" d="M276 1130l164 365h109l-191 -365h-82z" />
<glyph unicode="&#x385;" horiz-adv-x="806" d="M137 1122q0 56 11.5 77.5t41.5 21.5t42 -21.5t12 -77.5t-12 -76t-42 -20t-41.5 20t-11.5 76zM342 1272l219 289h109l-246 -289h-82zM555 1122q0 56 11.5 77.5t41.5 21.5t42 -21.5t12 -77.5t-12 -76t-42 -20t-41.5 20t-11.5 76z" />
<glyph unicode="&#x386;" horiz-adv-x="1290" d="M25 0l573 1434h94l574 -1434h-95l-161 410h-729l-162 -410h-94zM156 1069l163 365h109l-190 -365h-82zM311 487h668l-334 850z" />
<glyph unicode="&#x387;" horiz-adv-x="585" d="M233 680q0 58 13.5 79t46.5 21t46 -20.5t13 -79.5t-13 -79.5t-46 -20.5t-46.5 21t-13.5 79z" />
<glyph unicode="&#x388;" horiz-adv-x="1253" d="M-59 1069l163 365h109l-190 -365h-82zM297 0v1434h848v-78h-762v-576h711v-78h-711v-624h780v-78h-866z" />
<glyph unicode="&#x389;" horiz-adv-x="1525" d="M-59 1069l163 365h109l-190 -365h-82zM299 0v1434h86v-631h879v631h86v-1434h-86v725h-879v-725h-86z" />
<glyph unicode="&#x38a;" horiz-adv-x="555" d="M-59 1069l163 365h109l-190 -365h-82zM283 0v1434h86v-1434h-86z" />
<glyph unicode="&#x38c;" horiz-adv-x="1452" d="M-59 1069l163 365h109l-190 -365h-82zM123 717q0 211 72 378t212.5 265t327.5 98t327.5 -98t213 -265t72.5 -378t-72.5 -378.5t-213 -265.5t-327.5 -98q-141 0 -257 57t-193 156.5t-119.5 235.5t-42.5 293zM209 717q0 -193 62.5 -342.5t182.5 -235.5t281 -86t281.5 86 t183 235.5t62.5 342.5t-62.5 342.5t-183 235t-281.5 85.5t-281 -85.5t-182.5 -235t-62.5 -342.5z" />
<glyph unicode="&#x38e;" horiz-adv-x="1525" d="M-59 1069l163 365h109l-190 -365h-82zM268 1434h99l503 -781l504 781h99l-560 -865v-569h-86v569z" />
<glyph unicode="&#x38f;" horiz-adv-x="1462" d="M-59 1069l163 365h109l-190 -365h-82zM129 758q0 199 70.5 356t211.5 250.5t332 93.5q144 0 261.5 -54t194 -148.5t118 -222t41.5 -275.5q0 -220 -103 -396t-268 -286h344v-76h-469v72q193 119 300.5 291t107.5 395q0 181 -61 320.5t-181.5 220.5t-284.5 81t-284.5 -81 t-181 -221t-60.5 -320q0 -223 107.5 -395t300.5 -291v-72h-469v76h344q-165 110 -268 286t-103 396z" />
<glyph unicode="&#x390;" horiz-adv-x="589" d="M-70 1270q0 56 12 77t42 21t41.5 -21t11.5 -77t-11.5 -76t-41.5 -20t-42 20t-12 76zM135 1419l219 289h109l-246 -289h-82zM156 317v744h82v-742q0 -140 49.5 -205t156.5 -65q54 0 103 17l10 -74q-63 -17 -115 -17q-147 0 -216.5 81.5t-69.5 260.5zM348 1270 q0 56 11.5 77t41.5 21t42 -21t12 -77t-12 -76t-42 -20t-41.5 20t-11.5 76z" />
<glyph unicode="&#x391;" horiz-adv-x="1290" d="M25 0l573 1434h94l574 -1434h-95l-161 410h-729l-162 -410h-94zM311 487h668l-334 850z" />
<glyph unicode="&#x392;" horiz-adv-x="1253" d="M176 0v1434h453q207 0 330.5 -101.5t123.5 -265.5q0 -236 -204 -317q280 -80 280 -359q0 -185 -134 -288t-382 -103h-467zM262 78h377q214 0 324 79.5t110 233.5t-101 234t-296 80h-414v-627zM262 782h408q164 0 245.5 74t81.5 211q0 134 -98 211.5t-274 77.5h-363v-574z " />
<glyph unicode="&#x393;" horiz-adv-x="1042" d="M176 0v1434h844v-78h-758v-1356h-86z" />
<glyph unicode="&#x394;" horiz-adv-x="1294" d="M25 0l575 1434h94l576 -1434h-1245zM150 76h995l-498 1253z" />
<glyph unicode="&#x395;" horiz-adv-x="1132" d="M176 0v1434h848v-78h-762v-576h711v-78h-711v-624h780v-78h-866z" />
<glyph unicode="&#x396;" horiz-adv-x="1130" d="M68 0v84l878 1272h-848v78h944v-84l-878 -1272h899v-78h-995z" />
<glyph unicode="&#x397;" horiz-adv-x="1402" d="M176 0v1434h86v-631h879v631h86v-1434h-86v725h-879v-725h-86z" />
<glyph unicode="&#x398;" horiz-adv-x="1433" d="M104 717q0 211 72.5 378t213 265t327.5 98t327.5 -98t212.5 -265t72 -378q0 -157 -42.5 -293t-119.5 -235.5t-193 -156.5t-257 -57q-187 0 -327.5 98t-213 265.5t-72.5 378.5zM190 717q0 -193 62.5 -342.5t183 -235.5t281.5 -86t281 86t182.5 235.5t62.5 342.5 t-62.5 342.5t-182.5 235t-281 85.5t-281.5 -85.5t-183 -235t-62.5 -342.5zM461 680v74h512v-74h-512z" />
<glyph unicode="&#x399;" horiz-adv-x="458" d="M186 0v1434h86v-1434h-86z" />
<glyph unicode="&#x39a;" horiz-adv-x="1167" d="M176 0v1434h86v-656l715 656h115l-725 -670l813 -764h-117l-801 748v-748h-86z" />
<glyph unicode="&#x39b;" horiz-adv-x="1290" d="M25 0l573 1434h94l574 -1434h-95l-526 1337l-526 -1337h-94z" />
<glyph unicode="&#x39c;" horiz-adv-x="1699" d="M176 0v1434h94l580 -852l580 852h94v-1434h-86v1307l-549 -811h-78l-549 811v-1307h-86z" />
<glyph unicode="&#x39d;" horiz-adv-x="1421" d="M176 0v1434h105l878 -1317v1317h86v-1434h-104l-879 1315v-1315h-86z" />
<glyph unicode="&#x39e;" horiz-adv-x="1116" d="M80 0v78h956v-78h-956zM80 1356v78h956v-78h-956zM184 684v78h752v-78h-752z" />
<glyph unicode="&#x39f;" horiz-adv-x="1433" d="M104 717q0 211 72.5 378t213 265t327.5 98t327.5 -98t212.5 -265t72 -378q0 -157 -42.5 -293t-119.5 -235.5t-193 -156.5t-257 -57q-187 0 -327.5 98t-213 265.5t-72.5 378.5zM190 717q0 -193 62.5 -342.5t183 -235.5t281.5 -86t281 86t182.5 235.5t62.5 342.5 t-62.5 342.5t-182.5 235t-281 85.5t-281.5 -85.5t-183 -235t-62.5 -342.5z" />
<glyph unicode="&#x3a0;" horiz-adv-x="1402" d="M176 0v1434h1051v-1434h-86v1356h-879v-1356h-86z" />
<glyph unicode="&#x3a1;" horiz-adv-x="1173" d="M176 0v1434h377q251 0 394 -112.5t143 -317.5t-143 -318t-394 -113h-291v-573h-86zM262 651h287q219 0 337 88.5t118 264.5t-118 264t-337 88h-287v-705z" />
<glyph unicode="&#x3a3;" horiz-adv-x="1069" d="M74 0v78l397 684l-397 592v80h942v-76h-840l387 -578v-41l-387 -663h840v-76h-942z" />
<glyph unicode="&#x3a4;" horiz-adv-x="1071" d="M23 1356v78h1026v-78h-471v-1356h-86v1356h-469z" />
<glyph unicode="&#x3a5;" horiz-adv-x="1310" d="M53 1434h99l503 -781l504 781h98l-559 -865v-569h-86v569z" />
<glyph unicode="&#x3a6;" horiz-adv-x="1429" d="M98 717q0 150 75 262.5t204 172.5t295 67v215h86v-215q166 -7 294.5 -67t203.5 -172.5t75 -262.5q0 -151 -75 -264t-203 -173t-295 -67v-213h-86v213q-167 7 -295.5 67t-203.5 173t-75 264zM184 717q0 -196 135 -307t353 -119v852q-218 -8 -353 -119.5t-135 -306.5z M758 291q218 8 352.5 119t134.5 307q0 195 -134.5 306.5t-352.5 119.5v-852z" />
<glyph unicode="&#x3a7;" horiz-adv-x="1325" d="M43 0l565 723l-551 711h105l500 -641l501 641h105l-553 -711l567 -723h-111l-509 655l-508 -655h-111z" />
<glyph unicode="&#x3a8;" horiz-adv-x="1400" d="M156 885v549h86v-541q0 -237 110.5 -364t304.5 -138v1043h86v-1043q193 11 304.5 138t111.5 364v541h86v-549q0 -139 -38 -247t-106.5 -176.5t-158.5 -106t-199 -42.5v-313h-86v313q-109 5 -199 42.5t-158 106t-106 176.5t-38 247z" />
<glyph unicode="&#x3a9;" horiz-adv-x="1437" d="M104 758q0 148 41.5 275.5t118 222t194 148.5t261.5 54q191 0 332 -93.5t211.5 -250.5t70.5 -356q0 -220 -102.5 -396t-267.5 -286h344v-76h-469v72q193 119 300 291t107 395q0 277 -140 449.5t-386 172.5q-164 0 -284.5 -81t-181 -221t-60.5 -320q0 -223 107 -395 t300 -291v-72h-469v76h344q-165 110 -268 286t-103 396z" />
<glyph unicode="&#x3aa;" horiz-adv-x="458" d="M-33 1726q0 56 11.5 77.5t41.5 21.5t42 -21.5t12 -77.5t-12 -77t-42 -21t-41.5 21t-11.5 77zM186 0v1434h86v-1434h-86zM385 1726q0 56 11.5 77.5t41.5 21.5t42 -21.5t12 -77.5t-12 -77t-42 -21t-41.5 21t-11.5 77z" />
<glyph unicode="&#x3ab;" horiz-adv-x="1310" d="M53 1434h99l503 -781l504 781h98l-559 -865v-569h-86v569zM393 1726q0 56 11.5 77.5t41.5 21.5t42 -21.5t12 -77.5t-12 -77t-42 -21t-41.5 21t-11.5 77zM811 1726q0 56 11.5 77.5t41.5 21.5t42 -21.5t12 -77.5t-12 -77t-42 -21t-41.5 21t-11.5 77z" />
<glyph unicode="&#x3ac;" horiz-adv-x="1204" d="M94 530q0 249 111.5 402t279.5 153q156 0 257.5 -107.5t158.5 -334.5l148 418h81l-194 -557q27 -123 49.5 -204t39 -126.5t35.5 -67.5t32.5 -27t37.5 -5h44v-74h-60q-30 0 -50.5 7.5t-43.5 30t-42.5 66t-42 114.5t-46.5 175q-48 -130 -96.5 -214.5t-101 -128 t-102.5 -59.5t-116 -16q-164 0 -271.5 143.5t-107.5 411.5zM176 530q0 -225 83.5 -353t213.5 -128q59 0 104 18t93 67.5t94 144t94 239.5q-52 265 -144 379.5t-229 114.5q-134 0 -221.5 -135.5t-87.5 -346.5zM528 1204l258 332h109l-285 -332h-82z" />
<glyph unicode="&#x3ad;" horiz-adv-x="942" d="M115 260q0 115 91 191.5t240 105.5q-151 18 -236 83t-85 175q0 129 110 199.5t312 70.5q174 0 317 -41l-8 -77q-139 45 -307 45q-164 0 -253 -50.5t-89 -146.5q0 -107 129 -162t366 -55v-74q-232 0 -368.5 -71.5t-136.5 -186.5q0 -105 96.5 -161t277.5 -56q162 0 310 51 l10 -77q-149 -48 -322 -48q-134 0 -233.5 28.5t-160 94t-60.5 162.5zM401 1204l258 332h109l-285 -332h-82z" />
<glyph unicode="&#x3ae;" horiz-adv-x="1157" d="M156 0v1061h82v-113q67 62 160 99.5t186 37.5q201 0 314.5 -121t113.5 -343v-1014h-82v1011q0 190 -91 292t-264 102q-95 0 -185 -41.5t-152 -112.5v-858h-82zM475 1204l258 332h109l-285 -332h-82z" />
<glyph unicode="&#x3af;" horiz-adv-x="589" d="M127 1204l258 332h109l-285 -332h-82zM156 317v744h82v-742q0 -140 49.5 -205t156.5 -65q54 0 103 17l10 -74q-63 -17 -115 -17q-147 0 -216.5 81.5t-69.5 260.5z" />
<glyph unicode="&#x3b0;" horiz-adv-x="1093" d="M33 1065q33 10 73 10q78 0 114 -51t36 -180v-406q0 -389 328 -389q163 0 246 104.5t83 311.5q0 328 -137 596h88q135 -280 135 -594q0 -237 -104.5 -364.5t-310.5 -127.5q-202 0 -306 118t-104 341v395q0 102 -17.5 137t-58.5 35q-33 0 -57 -8zM244 1270q0 56 11.5 77 t41.5 21t41.5 -21t11.5 -77t-11.5 -76t-41.5 -20t-41.5 20t-11.5 76zM449 1419l219 289h108l-246 -289h-81zM662 1270q0 56 11.5 77t41.5 21t41.5 -21t11.5 -77t-11.5 -76t-41.5 -20t-41.5 20t-11.5 76z" />
<glyph unicode="&#x3b1;" horiz-adv-x="1204" d="M94 530q0 249 111.5 402t279.5 153q156 0 257.5 -107.5t158.5 -334.5l148 418h81l-194 -557q27 -123 49.5 -204t39 -126.5t35.5 -67.5t32.5 -27t37.5 -5h44v-74h-60q-30 0 -50.5 7.5t-43.5 30t-42.5 66t-42 114.5t-46.5 175q-48 -130 -96.5 -214.5t-101 -128 t-102.5 -59.5t-116 -16q-164 0 -271.5 143.5t-107.5 411.5zM176 530q0 -225 83.5 -353t213.5 -128q59 0 104 18t93 67.5t94 144t94 239.5q-52 265 -144 379.5t-229 114.5q-134 0 -221.5 -135.5t-87.5 -346.5z" />
<glyph unicode="&#x3b2;" horiz-adv-x="1064" d="M156 -395v1446q0 233 103 351t282 118q171 0 274 -103.5t103 -271.5q0 -145 -80.5 -238.5t-216.5 -128.5q165 -49 257.5 -158.5t92.5 -273.5q0 -162 -106 -266.5t-294 -104.5q-144 0 -264 52l8 84q109 -62 254 -62q151 0 235.5 83t84.5 218q0 173 -137.5 282t-335.5 109 v74q113 0 197 27t131 74.5t69.5 104.5t22.5 124q0 139 -80 220t-219 81q-135 0 -217 -95t-82 -292v-1454h-82z" />
<glyph unicode="&#x3b3;" horiz-adv-x="1097" d="M43 1059h90l416 -735l416 735h90l-461 -815q112 -191 150 -280.5t38 -149.5q0 -101 -66 -162.5t-167 -61.5q-102 0 -168 61.5t-66 162.5q0 59 38 149t151 281zM397 -186q0 -69 41.5 -109.5t110.5 -40.5t110 40.5t41 109.5q0 54 -30.5 125.5t-120.5 228.5 q-91 -158 -121.5 -229.5t-30.5 -124.5z" />
<glyph unicode="&#x3b4;" horiz-adv-x="1167" d="M94 530q0 159 62.5 286t174.5 198t253 71q27 0 45 -6l-445 340v76h752v-74h-631l565 -432q95 -73 149 -193t54 -266q0 -243 -137.5 -399t-351.5 -156t-352 156t-138 399zM176 530q0 -213 116.5 -347t291.5 -134t291 134t116 347t-116 347.5t-291 134.5t-291.5 -134.5 t-116.5 -347.5z" />
<glyph unicode="&#x3b5;" horiz-adv-x="942" d="M115 260q0 115 91 191.5t240 105.5q-151 18 -236 83t-85 175q0 129 110 199.5t312 70.5q174 0 317 -41l-8 -77q-139 45 -307 45q-164 0 -253 -50.5t-89 -146.5q0 -107 129 -162t366 -55v-74q-232 0 -368.5 -71.5t-136.5 -186.5q0 -105 96.5 -161t277.5 -56q162 0 310 51 l10 -77q-149 -48 -322 -48q-134 0 -233.5 28.5t-160 94t-60.5 162.5z" />
<glyph unicode="&#x3b6;" horiz-adv-x="831" d="M94 461q0 258 159.5 508t444.5 452h-497v74h610v-80q-305 -199 -470 -450t-165 -504q0 -73 22.5 -134t64.5 -103.5t91.5 -74.5t113 -53.5t119 -34.5t120.5 -22q46 -6 66 -22.5t20 -47.5q0 -37 -27 -86l-154 -278h-90l174 317q9 18 9 29q0 15 -41 20q-97 15 -174 36 t-154 59.5t-128 89.5t-82.5 129t-31.5 176z" />
<glyph unicode="&#x3b7;" horiz-adv-x="1157" d="M156 0v1061h82v-113q67 62 160 99.5t186 37.5q201 0 314.5 -121t113.5 -343v-1014h-82v1011q0 190 -91 292t-264 102q-95 0 -185 -41.5t-152 -112.5v-858h-82z" />
<glyph unicode="&#x3b8;" horiz-adv-x="1175" d="M94 748q0 361 132 566.5t362 205.5t361.5 -205.5t131.5 -566.5q0 -360 -131.5 -566.5t-361.5 -206.5t-362 206.5t-132 566.5zM180 711q4 -315 112.5 -488.5t295.5 -173.5t295 173.5t112 488.5h-815zM180 784h815q-4 315 -112 488.5t-295 173.5t-295.5 -173.5 t-112.5 -488.5z" />
<glyph unicode="&#x3b9;" horiz-adv-x="589" d="M156 317v744h82v-742q0 -140 49.5 -205t156.5 -65q54 0 103 17l10 -74q-63 -17 -115 -17q-147 0 -216.5 81.5t-69.5 260.5z" />
<glyph unicode="&#x3ba;" horiz-adv-x="1019" d="M156 0v1061h82v-494l413 383q66 61 113.5 90t99.5 29q40 0 78 -12l-10 -78q-32 16 -68 16q-26 0 -47 -11t-51 -38l-430 -393l645 -553h-115l-628 539v-539h-82z" />
<glyph unicode="&#x3bb;" horiz-adv-x="995" d="M25 0l434 963l-234 532h90l656 -1495h-90l-379 860l-387 -860h-90z" />
<glyph unicode="&#x3bc;" horiz-adv-x="1185" d="M156 -395v1456h82v-852q63 -73 157 -116.5t191 -43.5q98 0 191.5 43t158.5 117v852h82v-881q0 -74 18 -102.5t58 -28.5q31 0 51 10l10 -71q-33 -13 -76 -13q-62 0 -99 37t-44 107q-67 -67 -160 -105.5t-190 -38.5t-190 38.5t-158 105.5v-514h-82z" />
<glyph unicode="&#x3bd;" horiz-adv-x="1054" d="M43 1061h90l387 -973q175 195 273.5 445t107.5 528h84q-12 -305 -120.5 -575.5t-309.5 -485.5h-84z" />
<glyph unicode="&#x3be;" horiz-adv-x="847" d="M115 444q0 141 86.5 247t234.5 151q-129 31 -199.5 114.5t-70.5 206.5q0 154 109 243t319 89h100v-74h-112q-165 0 -249.5 -69t-84.5 -189q0 -117 90.5 -196.5t259.5 -79.5h84v-74q-224 0 -354.5 -99.5t-130.5 -269.5q0 -202 192 -299q132 -67 320 -108q65 -13 91.5 -34 t26.5 -52q0 -36 -26 -86l-150 -260h-96l166 286q14 28 14 46q0 11 -11 18t-46 14q-152 30 -305 101q-258 118 -258 374z" />
<glyph unicode="&#x3bf;" horiz-adv-x="1167" d="M94 530q0 159 62.5 286t174.5 198t253 71t252.5 -71t174 -198t62.5 -286q0 -243 -137.5 -399t-351.5 -156t-352 156t-138 399zM176 530q0 -213 116.5 -347t291.5 -134t291 134t116 347t-116 347.5t-291 134.5t-291.5 -134.5t-116.5 -347.5z" />
<glyph unicode="&#x3c0;" horiz-adv-x="1214" d="M37 987v74h1114v-74h-313v-645q0 -154 48 -223.5t152 -69.5q62 0 111 14l12 -75q-70 -13 -127 -13q-278 0 -278 347v665h-340q-2 -315 -47.5 -560.5t-161.5 -449.5l-78 33q117 210 160 441.5t45 535.5h-297z" />
<glyph unicode="&#x3c1;" horiz-adv-x="1144" d="M145 -395v1020q0 223 119 341.5t309 118.5q210 0 344 -148t134 -407q0 -127 -39 -232.5t-106.5 -175.5t-157.5 -108.5t-191 -38.5q-98 0 -184 34.5t-146 94.5v-499h-82zM227 197q55 -71 140.5 -109.5t181.5 -38.5q180 0 300 130.5t120 350.5q0 225 -109 353.5t-291 128.5 q-156 0 -249 -97.5t-93 -281.5v-436z" />
<glyph unicode="&#x3c2;" horiz-adv-x="960" d="M94 530q0 249 152 402t383 153q169 0 289 -57l-9 -80q-117 64 -280 64q-195 0 -324 -131t-129 -351q0 -218 131.5 -344t337.5 -137q285 -15 285 -203q0 -103 -85 -158t-237 -55v74q117 0 178.5 35.5t61.5 103.5q0 117 -205 129q-119 6 -219.5 46t-174 109.5t-114.5 172 t-41 227.5z" />
<glyph unicode="&#x3c3;" horiz-adv-x="1167" d="M94 518q0 234 138.5 388.5t351.5 154.5h526v-74h-291q116 -60 185 -186.5t69 -282.5q0 -235 -138 -389t-351 -154t-351.5 154t-138.5 389zM176 518q0 -205 116.5 -337t291.5 -132t291 132t116 337t-116 337t-291 132t-291.5 -132t-116.5 -337z" />
<glyph unicode="&#x3c4;" horiz-adv-x="882" d="M37 987v74h792v-74h-368v-645q0 -157 49 -225t168 -68q58 0 110 14l13 -75q-67 -13 -127 -13q-152 0 -223.5 83.5t-71.5 263.5v665h-342z" />
<glyph unicode="&#x3c5;" horiz-adv-x="1093" d="M33 1065q33 10 73 10q78 0 114 -51t36 -180v-406q0 -389 328 -389q163 0 246 104.5t83 311.5q0 328 -137 596h88q135 -280 135 -594q0 -237 -104.5 -364.5t-310.5 -127.5q-202 0 -306 118t-104 341v395q0 102 -17.5 137t-58.5 35q-33 0 -57 -8z" />
<glyph unicode="&#x3c6;" horiz-adv-x="1298" d="M94 524q0 151 55 296t152 265l68 -43q-90 -108 -141.5 -245t-51.5 -275q0 -218 120.5 -344t309.5 -137v688q0 356 254 356q151 0 247.5 -140.5t96.5 -409.5q0 -256 -139 -405t-377 -161v-364h-82v364q-230 14 -371 160.5t-141 394.5zM688 41q194 8 314 138.5t120 355.5 q0 230 -72.5 353.5t-189.5 123.5q-93 0 -132.5 -75t-39.5 -237v-659z" />
<glyph unicode="&#x3c7;" horiz-adv-x="1030" d="M33 -395l434 743l-412 713h95l364 -627l367 627h94l-412 -713l434 -743h-98l-385 659l-383 -659h-98z" />
<glyph unicode="&#x3c8;" horiz-adv-x="1351" d="M145 528v533h82v-526q0 -234 109 -355.5t299 -132.5v1014h82v-1014q190 11 298.5 132.5t108.5 355.5v526h82v-533q0 -263 -132.5 -401.5t-356.5 -151.5v-370h-82v370q-224 13 -357 151.5t-133 401.5z" />
<glyph unicode="&#x3c9;" horiz-adv-x="1523" d="M94 598q0 242 58 477l84 -8q-60 -215 -60 -467q0 -271 70.5 -412t189.5 -141q52 0 93 22t78 79.5t61.5 149.5t38.5 239t14 342h82q0 -242 20.5 -409.5t60.5 -257.5t88.5 -127.5t114.5 -37.5q119 0 190 141.5t71 411.5q0 252 -60 467l84 8q58 -235 58 -477 q0 -302 -92 -463.5t-248 -161.5q-270 0 -328 449q-58 -449 -328 -449q-156 0 -248 161.5t-92 463.5z" />
<glyph unicode="&#x3ca;" horiz-adv-x="589" d="M-66 1368q0 56 12 77t42 21t41.5 -21t11.5 -77t-11.5 -77t-41.5 -21t-42 21t-12 77zM156 317v744h82v-742q0 -140 49.5 -205t156.5 -65q54 0 103 17l10 -74q-63 -17 -115 -17q-147 0 -216.5 81.5t-69.5 260.5zM352 1368q0 56 12 77t42 21t41.5 -21t11.5 -77t-11.5 -77 t-41.5 -21t-42 21t-12 77z" />
<glyph unicode="&#x3cb;" horiz-adv-x="1093" d="M33 1065q33 10 73 10q78 0 114 -51t36 -180v-406q0 -389 328 -389q163 0 246 104.5t83 311.5q0 328 -137 596h88q135 -280 135 -594q0 -237 -104.5 -364.5t-310.5 -127.5q-202 0 -306 118t-104 341v395q0 102 -17.5 137t-58.5 35q-33 0 -57 -8zM256 1368q0 56 11.5 77 t41.5 21t41.5 -21t11.5 -77t-11.5 -77t-41.5 -21t-41.5 21t-11.5 77zM674 1368q0 56 11.5 77t41.5 21t41.5 -21t11.5 -77t-11.5 -77t-41.5 -21t-41.5 21t-11.5 77z" />
<glyph unicode="&#x3cc;" horiz-adv-x="1167" d="M94 530q0 159 62.5 286t174.5 198t253 71t252.5 -71t174 -198t62.5 -286q0 -243 -137.5 -399t-351.5 -156t-352 156t-138 399zM176 530q0 -213 116.5 -347t291.5 -134t291 134t116 347t-116 347.5t-291 134.5t-291.5 -134.5t-116.5 -347.5zM479 1204l258 332h109 l-285 -332h-82z" />
<glyph unicode="&#x3cd;" horiz-adv-x="1093" d="M33 1065q33 10 73 10q78 0 114 -51t36 -180v-406q0 -389 328 -389q163 0 246 104.5t83 311.5q0 328 -137 596h88q135 -280 135 -594q0 -237 -104.5 -364.5t-310.5 -127.5q-202 0 -306 118t-104 341v395q0 102 -17.5 137t-58.5 35q-33 0 -57 -8zM438 1204l258 332h109 l-285 -332h-82z" />
<glyph unicode="&#x3ce;" horiz-adv-x="1544" d="M104 598q0 242 58 477l84 -8q-60 -215 -60 -467q0 -271 70.5 -412t189.5 -141q52 0 93 22t78 79.5t61.5 149.5t38.5 239t14 342h82q0 -195 14 -342t38.5 -239t61.5 -149.5t78 -79.5t93 -22q119 0 189.5 141t70.5 412q0 252 -60 467l84 8q58 -235 58 -477 q0 -302 -92 -463.5t-248 -161.5q-270 0 -328 449q-58 -449 -328 -449q-156 0 -248 161.5t-92 463.5zM684 1204l258 332h109l-285 -332h-82z" />
<glyph unicode="&#x400;" horiz-adv-x="1132" d="M176 0v1434h848v-78h-762v-576h711v-78h-711v-624h780v-78h-866zM367 1892h108l258 -331h-82z" />
<glyph unicode="&#x401;" horiz-adv-x="1132" d="M176 0v1434h848v-78h-762v-576h711v-78h-711v-624h780v-78h-866zM338 1726q0 56 11.5 77.5t41.5 21.5t41.5 -21.5t11.5 -77.5t-11.5 -77t-41.5 -21t-41.5 21t-11.5 77zM756 1726q0 56 11.5 77.5t41.5 21.5t41.5 -21.5t11.5 -77.5t-11.5 -77t-41.5 -21t-41.5 21t-11.5 77z " />
<glyph unicode="&#x402;" horiz-adv-x="1411" d="M23 1356v78h1026v-78h-471v-531h256q234 0 358.5 -105.5t124.5 -322.5q0 -204 -108.5 -313t-303.5 -109q-92 0 -174 31v86q71 -39 172 -39q159 0 243.5 89.5t84.5 252.5q0 181 -97 267t-288 86h-268v-748h-86v1356h-469z" />
<glyph unicode="&#x403;" horiz-adv-x="1042" d="M176 0v1434h844v-78h-758v-1356h-86zM494 1561l258 331h108l-285 -331h-81z" />
<glyph unicode="&#x404;" horiz-adv-x="1222" d="M104 717q0 220 88 387.5t252.5 260.5t382.5 93q175 0 295 -53l-8 -82q-123 57 -283 57q-290 0 -458.5 -169.5t-179.5 -456.5h845v-76h-845q11 -288 182 -456.5t459 -168.5q166 0 286 60l8 -84q-125 -54 -299 -54q-333 0 -529 203t-196 539z" />
<glyph unicode="&#x405;" horiz-adv-x="1083" d="M115 1116q0 156 128.5 249t340.5 93q179 0 307 -51l-8 -86q-126 59 -301 59q-178 0 -279.5 -73t-101.5 -191q0 -115 77.5 -191t262.5 -137q234 -77 336 -176.5t102 -257.5q0 -175 -128 -277t-355 -102q-95 0 -194 24.5t-175 66.5l8 90q165 -103 365 -103q190 0 291.5 81 t101.5 218q0 130 -86 211t-299 150q-207 67 -300 161t-93 242z" />
<glyph unicode="&#x406;" horiz-adv-x="458" d="M186 0v1434h86v-1434h-86z" />
<glyph unicode="&#x407;" horiz-adv-x="458" d="M-33 1726q0 56 11.5 77.5t41.5 21.5t42 -21.5t12 -77.5t-12 -77t-42 -21t-41.5 21t-11.5 77zM186 0v1434h86v-1434h-86zM385 1726q0 56 11.5 77.5t41.5 21.5t42 -21.5t12 -77.5t-12 -77t-42 -21t-41.5 21t-11.5 77z" />
<glyph unicode="&#x408;" horiz-adv-x="876" d="M33 41l8 84q115 -72 258 -72q156 0 235.5 95.5t79.5 304.5v981h86v-981q0 -478 -399 -478q-159 0 -268 66z" />
<glyph unicode="&#x409;" horiz-adv-x="1902" d="M33 -10l8 78q62 -15 117 -15q105 0 154.5 62.5t49.5 206.5v1112h695v-623h280q221 0 346 -110.5t125 -294.5t-125 -295t-346 -111h-366v1358h-522v-1059q0 -167 -73 -245.5t-224 -78.5q-66 0 -119 15zM1057 78h274q187 0 289 87.5t102 240.5t-102 240t-289 87h-274v-655z " />
<glyph unicode="&#x40a;" horiz-adv-x="1974" d="M176 0v1434h86v-621h780v621h86v-623h281q221 0 346 -110.5t125 -294.5t-125 -295t-346 -111h-367v735h-780v-735h-86zM1128 78h275q187 0 289 87.5t102 240.5t-102 240t-289 87h-275v-655z" />
<glyph unicode="&#x40b;" horiz-adv-x="1558" d="M23 1356v78h1026v-78h-471v-527q78 54 180 84.5t203 30.5q216 0 334 -120t118 -347v-477h-86v471q0 196 -94.5 295.5t-276.5 99.5q-217 0 -378 -125v-741h-86v1356h-469z" />
<glyph unicode="&#x40c;" horiz-adv-x="1167" d="M176 0v1434h86v-656l715 656h115l-725 -670l813 -764h-117l-801 748v-748h-86zM477 1561l258 331h109l-285 -331h-82z" />
<glyph unicode="&#x40d;" horiz-adv-x="1421" d="M176 0v1434h86v-1317l879 1317h104v-1434h-86v1315l-878 -1315h-105zM422 1892h108l258 -331h-81z" />
<glyph unicode="&#x40e;" horiz-adv-x="1159" d="M43 1434h92l465 -879l424 879h92l-688 -1434h-92l221 461zM283 1884h77q3 -118 69 -182t171 -64t171 64t69 182h78q-4 -153 -93.5 -235t-224.5 -82q-134 0 -223.5 82t-93.5 235z" />
<glyph unicode="&#x40f;" horiz-adv-x="1400" d="M176 0v1434h86v-1356h877v1356h86v-1434h-482v-336h-86v336h-481z" />
<glyph unicode="&#x410;" horiz-adv-x="1290" d="M25 0l573 1434h94l574 -1434h-95l-161 410h-729l-162 -410h-94zM311 487h668l-334 850z" />
<glyph unicode="&#x411;" horiz-adv-x="1153" d="M176 0v1434h778v-78h-692v-467h316q220 0 345.5 -120t125.5 -325q0 -204 -126.5 -324t-344.5 -120h-402zM262 78h309q191 0 291.5 97.5t100.5 268.5t-100.5 269t-291.5 98h-309v-733z" />
<glyph unicode="&#x412;" horiz-adv-x="1253" d="M176 0v1434h453q207 0 330.5 -101.5t123.5 -265.5q0 -236 -204 -317q280 -80 280 -359q0 -185 -134 -288t-382 -103h-467zM262 78h377q214 0 324 79.5t110 233.5t-101 234t-296 80h-414v-627zM262 782h408q164 0 245.5 74t81.5 211q0 134 -98 211.5t-274 77.5h-363v-574z " />
<glyph unicode="&#x413;" horiz-adv-x="1042" d="M176 0v1434h844v-78h-758v-1356h-86z" />
<glyph unicode="&#x414;" horiz-adv-x="1232" d="M33 78h102q343 605 346 1356h539v-1356h160v-283h-86v205h-975v-205h-86v283zM233 78h701v1278h-371q-10 -315 -90 -642.5t-240 -635.5z" />
<glyph unicode="&#x415;" horiz-adv-x="1132" d="M176 0v1434h848v-78h-762v-576h711v-78h-711v-624h780v-78h-866z" />
<glyph unicode="&#x416;" horiz-adv-x="1609" d="M8 0l664 764l-576 670h113l553 -652v652h86v-652l553 652h112l-575 -670l664 -764h-115l-639 743v-743h-86v743l-639 -743h-115z" />
<glyph unicode="&#x417;" horiz-adv-x="1067" d="M78 33l8 82q154 -62 352 -62q210 0 324.5 85t114.5 218q0 164 -154 255t-438 102v78q118 3 220 25t181 62t124.5 104t45.5 144q0 113 -96 183.5t-293 70.5q-198 0 -348 -69l-10 82q151 65 362 65q228 0 349.5 -88t121.5 -237q0 -80 -36.5 -147.5t-98.5 -114t-139 -76.5 t-164 -43q212 -29 335.5 -130.5t123.5 -267.5q0 -170 -136.5 -274.5t-386.5 -104.5q-204 0 -362 58z" />
<glyph unicode="&#x418;" horiz-adv-x="1421" d="M176 0v1434h86v-1317l879 1317h104v-1434h-86v1315l-878 -1315h-105z" />
<glyph unicode="&#x419;" horiz-adv-x="1421" d="M176 0v1434h86v-1317l879 1317h104v-1434h-86v1315l-878 -1315h-105zM393 1884h78q3 -118 69 -182t171 -64t170.5 64t68.5 182h78q-4 -153 -93.5 -235t-223.5 -82q-135 0 -224.5 82t-93.5 235z" />
<glyph unicode="&#x41a;" horiz-adv-x="1167" d="M176 0v1434h86v-656l715 656h115l-725 -670l813 -764h-117l-801 748v-748h-86z" />
<glyph unicode="&#x41b;" horiz-adv-x="1404" d="M33 -8l8 76q59 -15 117 -15q106 0 155 62t49 211v1108h867v-1434h-86v1356h-694v-1055q0 -169 -73 -247.5t-222 -78.5q-55 0 -121 17z" />
<glyph unicode="&#x41c;" horiz-adv-x="1699" d="M176 0v1434h94l580 -852l580 852h94v-1434h-86v1307l-549 -811h-78l-549 811v-1307h-86z" />
<glyph unicode="&#x41d;" horiz-adv-x="1402" d="M176 0v1434h86v-631h879v631h86v-1434h-86v725h-879v-725h-86z" />
<glyph unicode="&#x41e;" horiz-adv-x="1433" d="M104 717q0 211 72.5 378t213 265t327.5 98t327.5 -98t212.5 -265t72 -378q0 -157 -42.5 -293t-119.5 -235.5t-193 -156.5t-257 -57q-187 0 -327.5 98t-213 265.5t-72.5 378.5zM190 717q0 -193 62.5 -342.5t183 -235.5t281.5 -86t281 86t182.5 235.5t62.5 342.5 t-62.5 342.5t-182.5 235t-281 85.5t-281.5 -85.5t-183 -235t-62.5 -342.5z" />
<glyph unicode="&#x41f;" horiz-adv-x="1402" d="M176 0v1434h1051v-1434h-86v1356h-879v-1356h-86z" />
<glyph unicode="&#x420;" horiz-adv-x="1173" d="M176 0v1434h377q251 0 394 -112.5t143 -317.5t-143 -318t-394 -113h-291v-573h-86zM262 651h287q219 0 337 88.5t118 264.5t-118 264t-337 88h-287v-705z" />
<glyph unicode="&#x421;" horiz-adv-x="1222" d="M104 717q0 220 88 387.5t252.5 260.5t382.5 93q175 0 295 -53l-8 -82q-123 57 -283 57q-299 0 -470 -181t-171 -482q0 -304 172.5 -484t471.5 -180q166 0 286 60l8 -84q-125 -54 -299 -54q-333 0 -529 203t-196 539z" />
<glyph unicode="&#x422;" horiz-adv-x="1071" d="M23 1356v78h1026v-78h-471v-1356h-86v1356h-469z" />
<glyph unicode="&#x423;" horiz-adv-x="1159" d="M43 1434h92l465 -879l424 879h92l-688 -1434h-92l221 461z" />
<glyph unicode="&#x424;" horiz-adv-x="1429" d="M98 717q0 150 75 262.5t204 172.5t295 67v215h86v-215q166 -7 294.5 -67t203.5 -172.5t75 -262.5q0 -151 -75 -264t-203 -173t-295 -67v-213h-86v213q-167 7 -295.5 67t-203.5 173t-75 264zM184 717q0 -196 135 -307t353 -119v852q-218 -8 -353 -119.5t-135 -306.5z M758 291q218 8 352.5 119t134.5 307q0 195 -134.5 306.5t-352.5 119.5v-852z" />
<glyph unicode="&#x425;" horiz-adv-x="1325" d="M43 0l565 723l-551 711h105l500 -641l501 641h105l-553 -711l567 -723h-111l-509 655l-508 -655h-111z" />
<glyph unicode="&#x426;" horiz-adv-x="1417" d="M176 0v1434h86v-1356h877v1356h86v-1356h118v-309h-86v231h-1081z" />
<glyph unicode="&#x427;" horiz-adv-x="1298" d="M156 893v541h82v-541q0 -197 93.5 -305.5t278.5 -108.5q250 0 426 131v824h86v-1434h-86v528q-181 -122 -430 -122q-217 0 -333.5 128.5t-116.5 358.5z" />
<glyph unicode="&#x428;" horiz-adv-x="1662" d="M176 0v1434h86v-1356h526v1356h86v-1356h527v1356h86v-1434h-1311z" />
<glyph unicode="&#x429;" horiz-adv-x="1679" d="M176 0v1434h86v-1356h526v1356h86v-1356h527v1356h86v-1356h119v-309h-86v231h-1344z" />
<glyph unicode="&#x42a;" horiz-adv-x="1333" d="M33 1356v78h411v-545h320q220 0 345.5 -120t125.5 -325q0 -204 -126.5 -324t-344.5 -120h-406v1356h-325zM444 78h314q191 0 291 97.5t100 268.5t-100 269t-291 98h-314v-733z" />
<glyph unicode="&#x42b;" horiz-adv-x="1505" d="M176 0v1434h86v-545h320q220 0 345.5 -120t125.5 -325q0 -204 -126.5 -324t-344.5 -120h-406zM262 78h313q191 0 291.5 97.5t100.5 268.5t-100.5 269t-291.5 98h-313v-733zM1243 0v1434h86v-1434h-86z" />
<glyph unicode="&#x42c;" horiz-adv-x="1150" d="M176 0v1434h86v-545h320q220 0 345.5 -120t125.5 -325q0 -204 -126.5 -324t-344.5 -120h-406zM262 78h313q191 0 291.5 97.5t100.5 268.5t-100.5 269t-291.5 98h-313v-733z" />
<glyph unicode="&#x42d;" horiz-adv-x="1222" d="M94 29l8 84q120 -60 287 -60q288 0 459 168.5t182 456.5h-846v76h846q-11 287 -180 456.5t-459 169.5q-159 0 -282 -57l-9 82q120 53 295 53q218 0 382.5 -93t252.5 -260.5t88 -387.5q0 -336 -196 -539t-529 -203q-174 0 -299 54z" />
<glyph unicode="&#x42e;" horiz-adv-x="1648" d="M176 0v1434h86v-678h246q8 318 144.5 510t373.5 192q244 0 381 -203t137 -538t-137 -538.5t-381 -203.5q-237 0 -373.5 191.5t-144.5 511.5h-246v-678h-86zM596 717q0 -306 112 -484t318 -178t318 178t112 484t-112 483.5t-318 177.5t-318 -177.5t-112 -483.5z" />
<glyph unicode="&#x42f;" horiz-adv-x="1210" d="M33 0l411 651q-158 37 -243.5 135.5t-85.5 245.5q0 186 138.5 294t379.5 108h401v-1434h-86v631h-315q-70 0 -103 4l-399 -635h-98zM201 1032q0 -153 112 -238t324 -85h311v647h-311q-212 0 -324 -85.5t-112 -238.5z" />
<glyph unicode="&#x430;" horiz-adv-x="1081" d="M84 293q0 158 115 248t329 90h326v80q0 169 -76 235t-248 66q-185 0 -340 -76l-10 76q160 73 350 73q209 0 307.5 -86t98.5 -292v-707h-82v104q-138 -129 -371 -129q-178 0 -288.5 82.5t-110.5 235.5zM166 297q0 -123 85 -185.5t232 -62.5q232 0 371 148v360h-328 q-178 0 -269 -69t-91 -191z" />
<glyph unicode="&#x431;" horiz-adv-x="1097" d="M94 662q0 397 204.5 596t670.5 237l6 -74q-365 -30 -555 -163.5t-232 -413.5q63 77 161.5 124.5t205.5 47.5q212 0 330.5 -136t118.5 -384q0 -244 -119 -382.5t-314 -138.5q-236 0 -356.5 182t-120.5 505zM176 664q0 -314 104 -464.5t291 -150.5q164 0 257.5 122.5 t93.5 324.5q0 218 -98.5 332t-272.5 114q-111 0 -206.5 -52t-166.5 -145q-2 -27 -2 -81z" />
<glyph unicode="&#x432;" horiz-adv-x="1032" d="M156 0v1061h313q200 0 307 -70t107 -198q0 -182 -201 -238q256 -52 256 -264q0 -142 -118.5 -216.5t-344.5 -74.5h-319zM238 74h229q191 0 290 55.5t99 159.5q0 106 -90.5 165.5t-282.5 59.5h-245v-440zM238 588h243q161 0 240.5 55.5t79.5 144.5q0 199 -338 199h-225 v-399z" />
<glyph unicode="&#x433;" horiz-adv-x="870" d="M156 0v1061h692v-74h-610v-987h-82z" />
<glyph unicode="&#x434;" horiz-adv-x="1114" d="M33 74h98q273 461 293 987h477v-987h160v-279h-82v205h-864v-205h-82v279zM223 74h596v913h-321q-26 -473 -275 -913z" />
<glyph unicode="&#x435;" horiz-adv-x="1093" d="M94 535q0 252 125.5 401t331.5 149q205 0 332 -150t127 -388q0 -41 -2 -51h-830q6 -201 118 -324t316 -123q178 0 303 88l9 -82q-124 -80 -308 -80q-164 0 -284 74.5t-179 200t-59 285.5zM178 571h746q-3 198 -106 319.5t-267 121.5q-165 0 -266 -117.5t-107 -323.5z" />
<glyph unicode="&#x436;" horiz-adv-x="1413" d="M29 0l540 553l-499 508h112l484 -492v492h82v-492l483 492h112l-499 -508l540 -553h-112l-524 537v-537h-82v537l-525 -537h-112z" />
<glyph unicode="&#x437;" horiz-adv-x="929" d="M51 23l10 77q148 -51 310 -51q181 0 277.5 56t96.5 161q0 115 -136.5 186.5t-368.5 71.5v74q237 0 366 55t129 162q0 96 -89 146.5t-253 50.5q-168 0 -307 -45l-8 77q143 41 317 41q202 0 312 -70.5t110 -199.5q0 -110 -85 -175t-236 -83q149 -29 240 -105.5t91 -191.5 q0 -97 -60.5 -162.5t-160 -94t-233.5 -28.5q-173 0 -322 48z" />
<glyph unicode="&#x438;" horiz-adv-x="1189" d="M156 0v1061h82v-938l708 938h88v-1061h-82v938l-708 -938h-88z" />
<glyph unicode="&#x439;" horiz-adv-x="1189" d="M156 0v1061h82v-938l708 938h88v-1061h-82v938l-708 -938h-88zM276 1528h78q3 -118 69 -182t171 -64t171 64t69 182h77q-4 -153 -93.5 -235.5t-223.5 -82.5t-224 82.5t-94 235.5z" />
<glyph unicode="&#x43a;" horiz-adv-x="1009" d="M156 0v1061h82v-494l587 494h115l-604 -508l645 -553h-115l-628 539v-539h-82z" />
<glyph unicode="&#x43b;" horiz-adv-x="1161" d="M23 -10l8 73q52 -14 114 -14q115 0 160 66.5t45 208.5v737h656v-1061h-82v987h-492v-573q0 -121 -12.5 -199t-44.5 -134.5t-89 -81t-145 -24.5q-63 0 -118 15z" />
<glyph unicode="&#x43c;" horiz-adv-x="1386" d="M156 0v1061h82l456 -617l457 617h80v-1061h-82v928l-426 -570h-59l-426 570v-928h-82z" />
<glyph unicode="&#x43d;" horiz-adv-x="1157" d="M156 0v1061h82v-447h682v447h81v-1061h-81v541h-682v-541h-82z" />
<glyph unicode="&#x43e;" horiz-adv-x="1167" d="M94 530q0 159 62.5 286t174.5 198t253 71t252.5 -71t174 -198t62.5 -286q0 -243 -137.5 -399t-351.5 -156t-352 156t-138 399zM176 530q0 -213 116.5 -347t291.5 -134t291 134t116 347t-116 347.5t-291 134.5t-291.5 -134.5t-116.5 -347.5z" />
<glyph unicode="&#x43f;" horiz-adv-x="1124" d="M156 0v1061h813v-1061h-82v987h-649v-987h-82z" />
<glyph unicode="&#x440;" horiz-adv-x="1155" d="M156 -395v1456h82v-105q60 60 145.5 94.5t183.5 34.5q101 0 191 -38.5t157.5 -108.5t106.5 -175.5t39 -232.5t-39 -232.5t-106.5 -175.5t-157.5 -108.5t-191 -38.5q-98 0 -183.5 34.5t-145.5 94.5v-499h-82zM238 197q55 -71 140.5 -109.5t180.5 -38.5q180 0 300 130.5 t120 350.5t-120 351t-300 131q-95 0 -180.5 -38.5t-140.5 -109.5v-667z" />
<glyph unicode="&#x441;" horiz-adv-x="1005" d="M94 530q0 165 72 292.5t195 195t276 67.5q164 0 278 -57l-8 -84q-110 66 -268 66q-129 0 -233 -56.5t-166 -167t-62 -256.5q0 -221 131 -350t334 -129q165 0 275 74l8 -84q-120 -66 -283 -66q-241 0 -395 151.5t-154 403.5z" />
<glyph unicode="&#x442;" horiz-adv-x="948" d="M23 987v74h901v-74h-410v-987h-82v987h-409z" />
<glyph unicode="&#x443;" horiz-adv-x="1054" d="M43 1061h92l402 -963l383 963h92l-588 -1456h-90l160 395z" />
<glyph unicode="&#x444;" horiz-adv-x="1789" d="M94 530q0 127 35 232.5t95.5 175.5t142 108.5t174.5 38.5q91 0 175 -39.5t138 -103.5v553h82v-553q54 64 138 103.5t175 39.5q93 0 174.5 -38.5t142 -108.5t95.5 -175.5t35 -232.5q0 -254 -127.5 -404.5t-319.5 -150.5q-91 0 -175.5 39t-137.5 103v-512h-82v512 q-53 -64 -137.5 -103t-175.5 -39q-192 0 -319.5 150.5t-127.5 404.5zM176 530q0 -222 106 -351.5t267 -129.5q90 0 170.5 40.5t134.5 111.5v657q-55 72 -135 113t-170 41q-160 0 -266.5 -130.5t-106.5 -351.5zM936 201q54 -71 134.5 -111.5t170.5 -40.5q161 0 267 129.5 t106 351.5q0 221 -106.5 351.5t-266.5 130.5q-90 0 -170 -41t-135 -113v-657z" />
<glyph unicode="&#x445;" horiz-adv-x="1011" d="M33 0l422 543l-400 518h99l352 -453l352 453h98l-401 -518l424 -543h-102l-371 479l-371 -479h-102z" />
<glyph unicode="&#x446;" horiz-adv-x="1157" d="M156 0v1061h82v-987h649v987h82v-987h114v-287h-82v213h-845z" />
<glyph unicode="&#x447;" horiz-adv-x="1071" d="M125 778v283h82v-283q0 -158 81 -251t228 -93q185 0 318 115v512h81v-1061h-81v467q-143 -107 -324 -107q-177 0 -281 115t-104 303z" />
<glyph unicode="&#x448;" horiz-adv-x="1396" d="M156 0v1061h82v-987h419v987h82v-987h420v987h82v-1061h-1085z" />
<glyph unicode="&#x449;" horiz-adv-x="1429" d="M156 0v1061h82v-987h419v987h82v-987h420v987h82v-987h115v-287h-82v213h-1118z" />
<glyph unicode="&#x44a;" horiz-adv-x="1236" d="M18 987v74h385v-375h238q259 0 390.5 -86.5t131.5 -255.5q0 -344 -522 -344h-319v987h-304zM403 74h242q434 0 434 270q-3 268 -434 268h-242v-538z" />
<glyph unicode="&#x44b;" horiz-adv-x="1404" d="M156 0v1061h82v-375h237q259 0 390.5 -86.5t131.5 -255.5q0 -344 -522 -344h-319zM238 74h241q434 0 434 270q-3 268 -434 268h-241v-538zM1169 0v1061h80v-1061h-80z" />
<glyph unicode="&#x44c;" horiz-adv-x="1071" d="M156 0v1061h82v-375h237q259 0 390.5 -86.5t131.5 -255.5q0 -344 -522 -344h-319zM238 74h241q434 0 434 270q-3 268 -434 268h-241v-538z" />
<glyph unicode="&#x44d;" horiz-adv-x="1005" d="M80 41l8 84q110 -74 274 -74q193 0 321.5 119t141.5 324h-655v73h655q-13 205 -141 324t-317 119q-159 0 -269 -66l-8 84q114 57 279 57q234 0 388 -153t154 -402q0 -252 -154 -403.5t-395 -151.5q-162 0 -282 66z" />
<glyph unicode="&#x44e;" horiz-adv-x="1396" d="M156 0v1061h80v-494h176q9 240 132.5 378t311.5 138q194 0 319 -148.5t125 -404.5t-125 -404.5t-319 -148.5q-188 0 -311.5 138t-132.5 379h-176v-494h-80zM496 530q0 -216 101 -347.5t259 -131.5q159 0 260 131.5t101 347.5t-101 348t-260 132q-158 0 -259 -132 t-101 -348z" />
<glyph unicode="&#x44f;" horiz-adv-x="1064" d="M33 0l297 469q-102 35 -156.5 108t-54.5 175q0 141 105.5 225t293.5 84h391v-1061h-82v442h-309q-56 0 -102 9l-283 -451h-100zM201 752q0 -107 78.5 -171.5t240.5 -64.5h307v471h-307q-162 0 -240.5 -64.5t-78.5 -170.5z" />
<glyph unicode="&#x450;" horiz-adv-x="1093" d="M94 535q0 252 125.5 401t331.5 149q205 0 332 -150t127 -388q0 -41 -2 -51h-830q6 -201 118 -324t316 -123q178 0 303 88l9 -82q-124 -80 -308 -80q-164 0 -284 74.5t-179 200t-59 285.5zM178 571h746q-3 198 -106 319.5t-267 121.5q-165 0 -266 -117.5t-107 -323.5z M295 1536h108l259 -332h-82z" />
<glyph unicode="&#x451;" horiz-adv-x="1093" d="M94 535q0 252 125.5 401t331.5 149q205 0 332 -150t127 -388q0 -41 -2 -51h-830q6 -201 118 -324t316 -123q178 0 303 88l9 -82q-124 -80 -308 -80q-164 0 -284 74.5t-179 200t-59 285.5zM178 571h746q-3 198 -106 319.5t-267 121.5q-165 0 -266 -117.5t-107 -323.5z M283 1368q0 56 11.5 77t41.5 21t41.5 -21t11.5 -77t-11.5 -77t-41.5 -21t-41.5 21t-11.5 77zM700 1368q0 56 12 77t42 21t41.5 -21t11.5 -77t-11.5 -77t-41.5 -21t-42 21t-12 77z" />
<glyph unicode="&#x452;" horiz-adv-x="1177" d="M37 1247v74h139v174h82v-174h420v-74h-420v-299q67 62 160 99.5t186 37.5q201 0 314.5 -121t113.5 -343v-648q0 -108 -19 -182t-58 -116t-90.5 -60t-123.5 -18q-67 0 -114 16l8 74q55 -17 127 -17q96 0 142 67t46 216v665q0 190 -91 292t-263 102q-95 0 -185.5 -41.5 t-152.5 -112.5v-858h-82v1247h-139z" />
<glyph unicode="&#x453;" horiz-adv-x="870" d="M156 0v1061h692v-74h-610v-987h-82zM373 1204l258 332h108l-284 -332h-82z" />
<glyph unicode="&#x454;" horiz-adv-x="1005" d="M94 530q0 165 72 292.5t195 195t276 67.5q164 0 278 -57l-8 -84q-110 66 -268 66q-189 0 -317.5 -119t-141.5 -324h656v-73h-656q13 -205 141.5 -324t321.5 -119q165 0 275 74l8 -84q-120 -66 -283 -66q-241 0 -395 151.5t-154 403.5z" />
<glyph unicode="&#x455;" horiz-adv-x="913" d="M98 57l8 86q140 -94 314 -94q153 0 233 57t80 158q0 90 -70 150t-231 100q-328 84 -328 305q0 124 101.5 195t259.5 71q156 0 287 -59l-9 -84q-123 70 -280 70q-130 0 -203.5 -51.5t-73.5 -139.5q0 -87 67 -143.5t220 -97.5q185 -49 263.5 -126.5t78.5 -187.5 q0 -141 -103.5 -216t-289.5 -75q-83 0 -170 21t-154 61z" />
<glyph unicode="&#x456;" horiz-adv-x="413" d="M154 1397q0 56 11.5 77t41.5 21t41.5 -21t11.5 -77t-11.5 -76.5t-41.5 -20.5t-41.5 20.5t-11.5 76.5zM166 0v1061h82v-1061h-82z" />
<glyph unicode="&#x457;" horiz-adv-x="413" d="M-55 1368q0 56 11.5 77t41.5 21t41.5 -21t11.5 -77t-11.5 -77t-41.5 -21t-41.5 21t-11.5 77zM166 0v1061h82v-1061h-82zM362 1368q0 56 12 77t42 21t41.5 -21t11.5 -77t-11.5 -77t-41.5 -21t-42 21t-12 77z" />
<glyph unicode="&#x458;" horiz-adv-x="446" d="M-111 -393l9 74q42 -17 90 -17q103 0 151.5 59.5t48.5 192.5v1145h82v-1141q0 -177 -70.5 -253.5t-209.5 -76.5q-45 0 -101 17zM176 1397q0 56 11.5 77t41.5 21t42 -21t12 -77t-12 -76.5t-42 -20.5t-41.5 20.5t-11.5 76.5z" />
<glyph unicode="&#x459;" horiz-adv-x="1611" d="M18 -10l9 73q52 -14 114 -14q108 0 156.5 65.5t48.5 211.5v735h578v-416h118q252 0 374 -79t122 -242q0 -165 -121.5 -244.5t-374.5 -79.5h-200v987h-414v-645q0 -195 -67 -281t-224 -86q-64 0 -119 15zM926 74h123q216 0 311.5 62t95.5 188q-2 125 -97 186t-310 61h-123 v-497z" />
<glyph unicode="&#x45a;" horiz-adv-x="1576" d="M156 0v1061h84v-416h567v416h82v-416h119q252 0 373.5 -79t121.5 -242q0 -165 -121 -244.5t-374 -79.5h-201v571h-567v-571h-84zM891 74h123q216 0 311.5 62t95.5 188q-2 125 -97 186t-310 61h-123v-497z" />
<glyph unicode="&#x45b;" horiz-adv-x="1177" d="M37 1247v74h139v174h82v-174h420v-74h-420v-299q67 62 160 99.5t186 37.5q201 0 314.5 -121t113.5 -343v-621h-82v618q0 190 -91 292t-263 102q-95 0 -185.5 -41.5t-152.5 -112.5v-858h-82v1247h-139z" />
<glyph unicode="&#x45c;" horiz-adv-x="1009" d="M156 0v1061h82v-494l587 494h115l-604 -508l645 -553h-115l-628 539v-539h-82zM422 1204l258 332h108l-284 -332h-82z" />
<glyph unicode="&#x45d;" horiz-adv-x="1189" d="M156 0v1061h82v-938l708 938h88v-1061h-82v938l-708 -938h-88zM344 1536h109l258 -332h-82z" />
<glyph unicode="&#x45e;" horiz-adv-x="1054" d="M43 1061h92l402 -963l383 963h92l-588 -1456h-90l160 395zM219 1528h78q3 -118 69 -182t171 -64t170.5 64t68.5 182h78q-4 -153 -93.5 -235.5t-223.5 -82.5t-224 82.5t-94 235.5z" />
<glyph unicode="&#x45f;" horiz-adv-x="1122" d="M156 0v1061h82v-987h647v987h82v-1061h-365v-213h-82v213h-364z" />
<glyph unicode="&#x490;" horiz-adv-x="1042" d="M176 0v1434h758v252h86v-330h-758v-1356h-86z" />
<glyph unicode="&#x491;" horiz-adv-x="868" d="M156 0v1061h608v270h82v-344h-608v-987h-82z" />
<glyph unicode="&#x1e80;" horiz-adv-x="2007" d="M53 1434h92l439 -1323l366 1323h107l366 -1323l439 1323h92l-481 -1434h-99l-370 1321l-371 -1321h-98zM692 1892h109l258 -331h-82z" />
<glyph unicode="&#x1e81;" horiz-adv-x="1576" d="M43 1061h92l314 -955l294 955h91l294 -955l314 955h92l-360 -1061h-89l-297 934l-296 -934h-89zM479 1536h109l258 -332h-82z" />
<glyph unicode="&#x1e82;" horiz-adv-x="2007" d="M53 1434h92l439 -1323l366 1323h107l366 -1323l439 1323h92l-481 -1434h-99l-370 1321l-371 -1321h-98zM948 1561l258 331h109l-285 -331h-82z" />
<glyph unicode="&#x1e83;" horiz-adv-x="1576" d="M43 1061h92l314 -955l294 955h91l294 -955l314 955h92l-360 -1061h-89l-297 934l-296 -934h-89zM731 1204l258 332h109l-285 -332h-82z" />
<glyph unicode="&#x1e84;" horiz-adv-x="2007" d="M53 1434h92l439 -1323l366 1323h107l366 -1323l439 1323h92l-481 -1434h-99l-370 1321l-371 -1321h-98zM741 1726q0 56 12 77.5t42 21.5t41.5 -21.5t11.5 -77.5t-11.5 -77t-41.5 -21t-42 21t-12 77zM1159 1726q0 56 11.5 77.5t41.5 21.5t42 -21.5t12 -77.5t-12 -77 t-42 -21t-41.5 21t-11.5 77z" />
<glyph unicode="&#x1e85;" horiz-adv-x="1576" d="M43 1061h92l314 -955l294 955h91l294 -955l314 955h92l-360 -1061h-89l-297 934l-296 -934h-89zM526 1368q0 56 12 77t42 21t41.5 -21t11.5 -77t-11.5 -77t-41.5 -21t-42 21t-12 77zM944 1368q0 56 11.5 77t41.5 21t42 -21t12 -77t-12 -77t-42 -21t-41.5 21t-11.5 77z " />
<glyph unicode="&#x1ef2;" horiz-adv-x="1310" d="M53 1434h99l503 -781l504 781h98l-559 -865v-569h-86v569zM369 1892h108l258 -331h-82z" />
<glyph unicode="&#x1ef3;" horiz-adv-x="1054" d="M43 1061h92l402 -963l383 963h92l-588 -1456h-90l160 395zM233 1536h109l258 -332h-82z" />
<glyph unicode="&#x2000;" horiz-adv-x="1023" />
<glyph unicode="&#x2001;" horiz-adv-x="2046" />
<glyph unicode="&#x2002;" horiz-adv-x="1023" />
<glyph unicode="&#x2003;" horiz-adv-x="2046" />
<glyph unicode="&#x2004;" horiz-adv-x="682" />
<glyph unicode="&#x2005;" horiz-adv-x="511" />
<glyph unicode="&#x2006;" horiz-adv-x="341" />
<glyph unicode="&#x2007;" horiz-adv-x="341" />
<glyph unicode="&#x2008;" horiz-adv-x="255" />
<glyph unicode="&#x2009;" horiz-adv-x="409" />
<glyph unicode="&#x200a;" horiz-adv-x="113" />
<glyph unicode="&#x2010;" horiz-adv-x="823" d="M135 641v78h553v-78h-553z" />
<glyph unicode="&#x2011;" horiz-adv-x="823" d="M135 639v82h553v-82h-553z" />
<glyph unicode="&#x2012;" horiz-adv-x="1171" d="M82 641v78h1008v-78h-1008z" />
<glyph unicode="&#x2013;" horiz-adv-x="1024" d="M0 641v78h1024v-78h-1024z" />
<glyph unicode="&#x2014;" horiz-adv-x="2048" d="M0 641v78h2048v-78h-2048z" />
<glyph unicode="&#x2015;" horiz-adv-x="2048" d="M205 641v78h1638v-78h-1638z" />
<glyph unicode="&#x2016;" horiz-adv-x="802" d="M217 -266v1800h78v-1800h-78zM508 -266v1800h78v-1800h-78z" />
<glyph unicode="&#x2017;" horiz-adv-x="1253" d="M115 -96h1024v-68h-1024v68zM115 -307h1024v-68h-1024v68z" />
<glyph unicode="&#x2018;" horiz-adv-x="585" d="M233 1235q0 97 25 171t88 140l35 -43q-66 -81 -70 -170q24 -4 32.5 -28.5t8.5 -69.5q0 -59 -13 -79.5t-46 -20.5t-46.5 21t-13.5 79z" />
<glyph unicode="&#x2019;" horiz-adv-x="585" d="M205 1182q65 80 69 170q-24 4 -32.5 28.5t-8.5 69.5q0 58 13.5 79t46.5 21t46 -20.5t13 -79.5q0 -97 -24.5 -171t-87.5 -140z" />
<glyph unicode="&#x201a;" horiz-adv-x="585" d="M205 -193q65 80 69 170q-24 4 -32.5 29t-8.5 70q0 58 13.5 79t46.5 21t46 -20.5t13 -79.5q0 -97 -24.5 -172t-87.5 -140z" />
<glyph unicode="&#x201b;" horiz-adv-x="585" d="M233 1448q0 58 13.5 79t46.5 21t46 -20.5t13 -79.5q0 -45 -8.5 -69.5t-32.5 -28.5q4 -89 70 -170l-35 -43q-63 66 -88 140t-25 171z" />
<glyph unicode="&#x201c;" horiz-adv-x="823" d="M233 1235q0 97 25 171t88 140l35 -43q-66 -81 -70 -170q24 -4 32.5 -28.5t8.5 -69.5q0 -59 -13 -79.5t-46 -20.5t-46.5 21t-13.5 79zM471 1235q0 97 25 171t88 140l34 -43q-65 -80 -69 -170q24 -4 32.5 -28.5t8.5 -69.5q0 -58 -13.5 -79t-46.5 -21t-46 20.5t-13 79.5z " />
<glyph unicode="&#x201d;" horiz-adv-x="823" d="M205 1182q65 80 69 170q-24 4 -32.5 28.5t-8.5 69.5q0 58 13.5 79t46.5 21t46 -20.5t13 -79.5q0 -97 -24.5 -171t-87.5 -140zM442 1182q66 81 70 170q-24 4 -32.5 28.5t-8.5 69.5q0 59 13 79.5t46 20.5t46.5 -21t13.5 -79q0 -97 -25 -171t-88 -140z" />
<glyph unicode="&#x201e;" horiz-adv-x="823" d="M205 -193q65 80 69 170q-24 4 -32.5 29t-8.5 70q0 58 13.5 79t46.5 21t46 -20.5t13 -79.5q0 -97 -24.5 -172t-87.5 -140zM442 -193q66 81 70 170q-24 4 -32.5 29t-8.5 70q0 59 13 79.5t46 20.5t46.5 -21t13.5 -79q0 -97 -25 -171.5t-88 -140.5z" />
<glyph unicode="&#x201f;" horiz-adv-x="823" d="M233 1448q0 58 13.5 79t46.5 21t46 -20.5t13 -79.5q0 -45 -8.5 -69.5t-32.5 -28.5q4 -89 70 -170l-35 -43q-63 66 -88 140t-25 171zM471 1448q0 59 13 79.5t46 20.5t46.5 -21t13.5 -79q0 -45 -8.5 -69.5t-32.5 -28.5q4 -90 69 -170l-34 -43q-63 66 -88 140t-25 171z" />
<glyph unicode="&#x2020;" horiz-adv-x="1208" d="M176 1071v76h385v385h84v-385h387v-76h-387v-1339h-84v1339h-385z" />
<glyph unicode="&#x2021;" horiz-adv-x="1208" d="M176 117v76h385v878h-385v76h385v385h84v-385h387v-76h-387v-878h387v-76h-387v-385h-84v385h-385z" />
<glyph unicode="&#x2022;" horiz-adv-x="757" d="M217 678q0 77 43 120.5t119 43.5t119 -43.5t43 -120.5t-43 -120.5t-119 -43.5t-119 43.5t-43 120.5z" />
<glyph unicode="&#x2024;" horiz-adv-x="585" d="M233 76q0 58 13.5 79t46.5 21t46 -20.5t13 -79.5t-13 -80t-46 -21t-46.5 21t-13.5 80z" />
<glyph unicode="&#x2025;" horiz-adv-x="1171" d="M233 76q0 58 13.5 79t46.5 21t46 -20.5t13 -79.5t-13 -80t-46 -21t-46.5 21t-13.5 80zM819 76q0 58 13.5 79t46.5 21t46 -20.5t13 -79.5t-13 -80t-46 -21t-46.5 21t-13.5 80z" />
<glyph unicode="&#x2026;" horiz-adv-x="1757" d="M233 76q0 58 13.5 79t46.5 21t46 -20.5t13 -79.5t-13 -80t-46 -21t-46.5 21t-13.5 80zM819 76q0 58 13.5 79t46.5 21t46 -20.5t13 -79.5t-13 -80t-46 -21t-46.5 21t-13.5 80zM1405 76q0 59 13 79.5t46 20.5t46.5 -21t13.5 -79q0 -59 -13.5 -80t-46.5 -21t-46 21t-13 80z " />
<glyph unicode="&#x202f;" horiz-adv-x="409" />
<glyph unicode="&#x2032;" horiz-adv-x="585" d="M154 874l170 560h108l-196 -560h-82z" />
<glyph unicode="&#x2033;" horiz-adv-x="907" d="M164 874l170 560h108l-196 -560h-82zM465 874l170 560h108l-196 -560h-82z" />
<glyph unicode="&#x2039;" horiz-adv-x="714" d="M156 612v50l424 393v-84l-361 -334l361 -334v-84z" />
<glyph unicode="&#x203a;" horiz-adv-x="714" d="M135 219v84l361 334l-361 334v84l424 -393v-50z" />
<glyph unicode="&#x203c;" horiz-adv-x="808" d="M186 76q0 58 13.5 79t46.5 21t46 -20.5t13 -79.5t-13 -80t-46 -21t-46.5 21t-13.5 80zM203 993v441h88v-441q-6 -329 -15 -647h-59q-6 211 -14 647zM504 76q0 59 13 79.5t46 20.5t46.5 -21t13.5 -79q0 -59 -13.5 -80t-46.5 -21t-46 21t-13 80zM520 993v441h88v-441 q-8 -436 -14 -647h-59q-9 319 -15 647z" />
<glyph unicode="&#x203e;" horiz-adv-x="806" d="M127 1288v74h553v-74h-553z" />
<glyph unicode="&#x2044;" horiz-adv-x="866" d="M-8 -31l801 1495h81l-800 -1495h-82z" />
<glyph unicode="&#x205f;" horiz-adv-x="511" />
<glyph unicode="&#x2070;" d="M55 961q0 225 87.5 357t244.5 132q159 0 246.5 -132t87.5 -357q0 -226 -87.5 -358t-246.5 -132q-158 0 -245 132t-87 358zM133 961q0 -196 66 -308t188 -112q123 0 189.5 112t66.5 308q0 195 -66.5 306t-189.5 111q-122 0 -188 -111.5t-66 -305.5z" />
<glyph unicode="&#x2071;" d="M342 1348q0 56 11 76t34 20t34 -20t11 -76t-11 -76.5t-34 -20.5t-34 20.5t-11 76.5zM348 485v674h78v-674h-78z" />
<glyph unicode="&#x2074;" d="M49 700v68l475 666h78v-666h113v-68h-113v-215h-78v215h-475zM135 768h389v545z" />
<glyph unicode="&#x2075;" d="M115 510l8 76q88 -49 196 -49q128 0 203.5 63t75.5 174q0 109 -70 171.5t-194 62.5q-109 0 -191 -45v471h500v-68h-424v-317q56 26 131 26q145 0 235.5 -80t90.5 -223t-97.5 -223t-256.5 -80q-114 0 -207 41z" />
<glyph unicode="&#x2076;" d="M80 920q0 146 29.5 252t84 165t121.5 86t152 27q109 0 184 -37l-8 -70q-74 39 -178 39q-68 0 -119.5 -20t-93.5 -65.5t-66 -126.5t-28 -197q43 53 111 83.5t143 30.5q141 0 225 -86t84 -227q0 -136 -88.5 -221.5t-218.5 -85.5q-151 0 -242.5 115.5t-91.5 337.5zM158 889 q6 -185 75.5 -269.5t178.5 -84.5q103 0 167 69t64 170q0 110 -62 178t-178 68q-146 0 -245 -131z" />
<glyph unicode="&#x2077;" d="M109 1366v68h571v-70l-363 -879h-90l365 881h-483z" />
<glyph unicode="&#x2078;" d="M70 723q0 89 60.5 157.5t164.5 106.5q-189 79 -189 230q0 105 79.5 169t203.5 64q123 0 201 -65.5t78 -167.5q0 -154 -195 -234q127 -52 180.5 -115.5t53.5 -144.5q0 -117 -88 -186.5t-228 -69.5q-141 0 -231 68.5t-90 187.5zM145 723q0 -86 70 -137t176 -51 q103 0 171.5 51.5t68.5 132.5q0 73 -55.5 127t-202.5 106q-119 -43 -173.5 -95t-54.5 -134zM182 1219q0 -68 49.5 -112t165.5 -93q195 67 195 205q0 68 -57 115.5t-146 47.5q-95 0 -151 -48t-56 -115z" />
<glyph unicode="&#x2079;" d="M55 1143q0 136 88.5 221.5t218.5 85.5q151 0 242.5 -115.5t91.5 -337.5q0 -146 -29.5 -252t-84 -165t-121.5 -86t-152 -27q-109 0 -184 37l8 69q72 -38 178 -38q67 0 118.5 20t93 65.5t65.5 126.5t28 197q-41 -53 -109.5 -84t-141.5 -31q-141 0 -225.5 86.5t-84.5 227.5z M133 1143q0 -110 62 -178t178 -68q146 0 245 131q-6 183 -76 268.5t-177 85.5q-103 0 -167.5 -69t-64.5 -170z" />
<glyph unicode="&#x207a;" d="M49 930v69h299v291h78v-291h299v-69h-299v-293h-78v293h-299z" />
<glyph unicode="&#x207b;" d="M49 930v69h676v-69h-676z" />
<glyph unicode="&#x207c;" d="M49 803v69h676v-69h-676zM49 1055v69h676v-69h-676z" />
<glyph unicode="&#x207d;" d="M272 961q0 312 211 593h72q-207 -284 -207 -593q0 -310 207 -594h-72q-211 281 -211 594z" />
<glyph unicode="&#x207e;" d="M221 367q207 284 207 594q0 309 -207 593h72q211 -281 211 -593q0 -313 -211 -594h-72z" />
<glyph unicode="&#x207f;" d="M94 485v682h78v-77q94 94 227 94q132 0 207.5 -82t75.5 -232v-385h-76v351q0 278 -217 278q-135 0 -217 -106v-523h-78z" />
<glyph unicode="&#x2080;" d="M55 217q0 225 87.5 357.5t244.5 132.5q159 0 246.5 -132.5t87.5 -357.5q0 -226 -87.5 -357.5t-246.5 -131.5q-158 0 -245 131.5t-87 357.5zM133 217q0 -196 66 -308t188 -112q123 0 189.5 112t66.5 308q0 195 -66.5 306.5t-189.5 111.5q-121 0 -187.5 -111.5 t-66.5 -306.5z" />
<glyph unicode="&#x2081;" d="M160 516l235 176h70v-952h-78v856l-188 -141z" />
<glyph unicode="&#x2082;" d="M102 -188q200 158 361 364q117 148 117 264q0 101 -58 149t-162 48q-124 0 -227 -59l-6 75q103 54 235 54q141 0 218 -69.5t77 -197.5q0 -70 -28.5 -140t-102.5 -165q-149 -189 -317 -328h457v-67h-564v72z" />
<glyph unicode="&#x2083;" d="M100 -236l9 76q97 -47 221 -47q121 0 185.5 54.5t64.5 134.5q0 98 -85 159.5t-276 61.5v69q175 0 260.5 57.5t85.5 137.5q0 82 -61 126t-164 44q-121 0 -215 -49l-8 71q101 48 225 48q139 0 220 -62t81 -176q0 -86 -58.5 -147t-168.5 -82q241 -56 241 -258 q0 -117 -87 -187.5t-238 -70.5q-133 0 -232 40z" />
<glyph unicode="&#x2084;" d="M49 25l475 665h78v-665h113v-68h-113v-215h-78v215h-475v68zM135 25h389v544z" />
<glyph unicode="&#x2085;" d="M115 -233l8 75q88 -49 196 -49q127 0 203 63.5t76 174.5q0 109 -70 171t-194 62q-109 0 -191 -45v471h500v-67h-424v-318q59 27 131 27q145 0 235.5 -80t90.5 -223t-97.5 -223t-256.5 -80q-114 0 -207 41z" />
<glyph unicode="&#x2086;" d="M80 176q0 146 29.5 252t84 165.5t121.5 86.5t152 27q109 0 184 -37l-8 -70q-74 39 -178 39q-68 0 -119.5 -20t-93.5 -65.5t-66 -127t-28 -197.5q43 53 111 84t143 31q141 0 225 -86t84 -227q0 -136 -88.5 -221.5t-218.5 -85.5q-151 0 -242.5 115t-91.5 337zM158 145 q6 -185 75.5 -269.5t178.5 -84.5q103 0 167 69.5t64 170.5q0 110 -62 177.5t-178 67.5q-146 0 -245 -131z" />
<glyph unicode="&#x2087;" d="M109 623v67h571v-69l-363 -879h-90l365 881h-483z" />
<glyph unicode="&#x2088;" d="M70 -20q0 89 60.5 157.5t164.5 106.5q-189 79 -189 229q0 105 79.5 169.5t203.5 64.5q122 0 200.5 -66t78.5 -168q0 -153 -195 -233q127 -52 180.5 -115.5t53.5 -144.5q0 -117 -88 -186.5t-228 -69.5q-141 0 -231 68.5t-90 187.5zM145 -20q0 -86 70 -137.5t176 -51.5 q103 0 171.5 51.5t68.5 132.5q0 74 -56 128.5t-202 105.5q-119 -43 -173.5 -95t-54.5 -134zM182 475q0 -68 49.5 -112t165.5 -93q195 67 195 205q0 68 -57 116t-146 48q-95 0 -151 -48.5t-56 -115.5z" />
<glyph unicode="&#x2089;" d="M55 399q0 136 88.5 222t218.5 86q151 0 242.5 -115.5t91.5 -337.5q0 -146 -29.5 -252t-84 -165t-121.5 -86t-152 -27q-111 0 -184 36l8 70q74 -39 178 -39q67 0 118.5 20t93 65.5t65.5 127t28 197.5q-41 -53 -109.5 -84t-141.5 -31q-141 0 -225.5 86t-84.5 227zM133 399 q0 -110 62 -177.5t178 -67.5q146 0 245 131q-6 183 -76 268.5t-177 85.5q-103 0 -167.5 -69.5t-64.5 -170.5z" />
<glyph unicode="&#x208a;" d="M49 186v70h299v291h78v-291h299v-70h-299v-292h-78v292h-299z" />
<glyph unicode="&#x208b;" d="M49 186v70h676v-70h-676z" />
<glyph unicode="&#x208c;" d="M49 59v70h676v-70h-676zM49 311v70h676v-70h-676z" />
<glyph unicode="&#x208d;" d="M272 217q0 313 211 594h72q-98 -134 -152.5 -286.5t-54.5 -307.5q0 -310 207 -594h-72q-211 281 -211 594z" />
<glyph unicode="&#x208e;" d="M221 -377q207 284 207 594q0 155 -54.5 307.5t-152.5 286.5h72q211 -281 211 -594t-211 -594h-72z" />
<glyph unicode="&#x2090;" d="M84 -51q0 112 86 168.5t250 56.5h184q0 116 -47.5 168.5t-165.5 52.5q-128 0 -237 -47l-9 68q109 47 248 47q287 0 287 -266v-453h-76v88q-94 -104 -266 -104q-110 0 -182 60t-72 161zM158 -49q0 -68 52.5 -111t135.5 -43q178 0 258 129v178h-184q-262 0 -262 -153z" />
<glyph unicode="&#x2091;" d="M78 96q0 169 86 268t223 99q138 0 224.5 -101.5t86.5 -261.5q0 -27 -2 -39h-540q7 -124 81.5 -195t194.5 -71q114 0 203 62l6 -72q-88 -57 -217 -57q-161 0 -253.5 101.5t-92.5 266.5zM154 131h462q-2 113 -67 188.5t-162 75.5q-101 0 -164 -72.5t-69 -191.5z" />
<glyph unicode="&#x2092;" d="M51 94q0 159 90.5 264t245.5 105t245.5 -105t90.5 -264t-90.5 -263.5t-245.5 -104.5t-245.5 104.5t-90.5 263.5zM129 94q0 -133 70.5 -216t187.5 -83t187.5 83t70.5 216t-70.5 216t-187.5 83t-187.5 -83t-70.5 -216z" />
<glyph unicode="&#x2093;" d="M39 -258l299 360l-279 344h93l235 -282l236 282h92l-279 -344l299 -360h-100l-248 299l-248 -299h-100z" />
<glyph unicode="&#x2094;" d="M78 88v39h543q-8 125 -77.5 195.5t-193.5 70.5q-129 0 -209 -61l-8 74q88 57 219 57q161 0 253.5 -102.5t92.5 -268.5q0 -169 -86.5 -267.5t-224.5 -98.5t-223.5 101t-85.5 261zM158 57q3 -115 65 -188.5t166 -73.5q105 0 165.5 70.5t66.5 191.5h-463z" />
<glyph unicode="&#x20a0;" horiz-adv-x="1544" d="M94 940q0 234 137.5 376t358.5 142q145 0 246 -43l-7 -82q-103 47 -237 47q-189 0 -300.5 -119t-111.5 -321q0 -203 112 -321.5t304 -118.5q108 0 203 35v469h637v-78h-551v-373h516v-78h-516v-397h565v-78h-651v453q-102 -31 -205 -31q-224 0 -362 142t-138 376z" />
<glyph unicode="&#x20a1;" horiz-adv-x="1222" d="M104 717q0 313 174.5 512.5t471.5 224.5l41 160h63l-41 -156h14q77 0 148 -12l45 168h63l-47 -180q38 -10 86 -29l-8 -82q-56 26 -98 35l-336 -1290q74 -15 154 -15q166 0 286 60l8 -84q-125 -54 -299 -54q-77 0 -167 17l-35 -133h-64l37 145q-91 24 -149 59l-54 -204 h-63l61 237q-140 96 -215.5 255.5t-75.5 365.5zM190 717q0 -175 59 -311.5t169 -223.5l309 1192q-253 -32 -395 -207.5t-142 -449.5zM471 145q61 -40 150 -63l335 1288q-84 14 -163 8z" />
<glyph unicode="&#x20a2;" horiz-adv-x="1243" d="M104 717q0 220 88 387.5t252.5 260.5t382.5 93q175 0 295 -53l-8 -82q-123 57 -283 57q-299 0 -470 -181t-171 -482q0 -238 106 -402t300 -227v885h82v-174q56 88 146 143t194 55q74 0 121 -18l-11 -78q-48 23 -112 23q-210 0 -338 -238v-618q70 -15 156 -15 q166 0 286 60l8 -84q-125 -54 -299 -54q-333 0 -529 203t-196 539z" />
<glyph unicode="&#x20a3;" horiz-adv-x="1073" d="M53 571v66h123v211h-123v65h123v521h848v-78h-762v-443h651v-65h-651v-211h651v-66h-651v-571h-86v571h-123z" />
<glyph unicode="&#x20a4;" horiz-adv-x="1087" d="M74 0v78h221v426h-182v65h182v213h-182v66h182v96q0 272 99.5 393t314.5 121q157 0 280 -57l-10 -82q-113 61 -268 61q-174 0 -252 -97.5t-78 -340.5v-94h467v-66h-467v-213h467v-65h-467v-426h633v-78h-940z" />
<glyph unicode="&#x20a6;" horiz-adv-x="1421" d="M53 545v65h123v211h-123v66h123v547h105l364 -547h514v547h86v-547h123v-66h-123v-211h123v-65h-123v-545h-104l-365 545h-514v-545h-86v545h-123zM262 610h471l-141 211h-330v-211zM262 887h285l-285 428v-428zM688 821l141 -211h330v211h-471zM872 545l287 -428v428 h-287z" />
<glyph unicode="&#x20a7;" horiz-adv-x="1947" d="M115 0v1434h172q102 0 190.5 -21.5t161.5 -65.5t121 -117t61 -169h154v317h82v-317h391q70 24 147 24q148 0 244 -57l-6 -76q-97 60 -231 60q-110 0 -174 -45.5t-64 -126.5q0 -79 56 -135t222 -140q130 -67 190 -136.5t60 -166.5q0 -132 -86 -197t-247 -65h-330 q-140 0 -197 85t-57 277v625h-148q0 -218 -147.5 -335t-392.5 -117h-86v-535h-86zM201 612h82q217 0 339.5 97.5t122.5 273.5q0 179 -120 276t-342 97h-82v-744zM1057 354q0 -155 39.5 -217.5t128.5 -62.5h334q127 0 189 48t62 134q0 85 -53 140t-172 116 q-176 87 -239.5 157t-63.5 167q0 87 55 151h-280v-633z" />
<glyph unicode="&#x20a8;" horiz-adv-x="1990" d="M176 0v1434h387q241 0 379.5 -108t138.5 -294q0 -147 -86.5 -245.5t-244.5 -135.5l403 -651h-98l-389 635q-33 -4 -103 -4h-301v-631h-86zM262 709h297q212 0 324 85t112 238t-112 238.5t-324 85.5h-297v-647zM1180 57l8 86q140 -94 313 -94q153 0 233.5 57t80.5 158 q0 90 -70.5 150t-231.5 100q-327 84 -327 305q0 124 101 195t259 71q156 0 287 -59l-8 -84q-123 70 -281 70q-130 0 -203 -51.5t-73 -139.5q0 -87 66.5 -143.5t219.5 -97.5q185 -49 263.5 -126.5t78.5 -187.5q0 -141 -103.5 -216t-289.5 -75q-83 0 -169.5 21t-153.5 61z" />
<glyph unicode="&#x20a9;" horiz-adv-x="2007" d="M45 512v66h295l-72 210h-223v66h203l-195 580h92l193 -580h453l159 580h107l160 -580h452l193 580h92l-195 -580h203v-66h-225l-72 -210h297v-66h-317l-172 -512h-99l-143 512h-455l-143 -512h-98l-173 512h-317zM358 788l70 -210h285l59 210h-414zM451 512l133 -401 l110 401h-243zM795 578h417l-59 210h-299zM872 854h263l-131 467zM1235 788l59 -210h283l70 210h-412zM1313 512l110 -401l133 401h-243z" />
<glyph unicode="&#x20aa;" horiz-adv-x="1714" d="M176 0v1434h428q237 0 377.5 -150.5t140.5 -433.5v-320h-86v314q0 256 -113.5 384t-312.5 128h-348v-1356h-86zM592 582v319h86v-313q0 -256 113.5 -383t312.5 -127h348v1356h86v-1434h-430q-237 0 -376.5 150t-139.5 432z" />
<glyph unicode="&#x20ab;" horiz-adv-x="1179" d="M94 518q0 246 141 394.5t357 148.5q98 0 184 -34.5t146 -94.5v282h-420v74h420v146h86v-146h135v-74h-135v-1214h-86v104q-60 -60 -146 -94.5t-184 -34.5q-216 0 -357 148.5t-141 394.5zM180 518q0 -211 118 -338t302 -127q96 0 181.5 38.5t140.5 109.5v635 q-54 71 -140 109t-182 38q-184 0 -302 -127t-118 -338zM287 -205h692v-74h-692v74z" />
<glyph unicode="&#x20ac;" horiz-adv-x="1218" d="M53 553v65h113q-10 88 0 193h-113v66h121q41 264 214 422.5t450 158.5q160 0 280 -53l-8 -86q-118 59 -268 59q-235 0 -387.5 -133t-190.5 -368h725l-18 -66h-715q-10 -103 0 -193h657l-20 -65h-627q40 -233 193.5 -365.5t388.5 -132.5q146 0 268 58l8 -82 q-127 -56 -280 -56q-276 0 -451 158t-219 420h-121z" />
<glyph unicode="&#x2105;" horiz-adv-x="1996" d="M72 997q0 208 122 334.5t310 126.5q135 0 229 -51l-8 -78q-94 55 -221 55q-152 0 -251 -105t-99 -282t99 -282t251 -105q126 0 221 56l8 -78q-94 -51 -229 -51q-188 0 -310 126.5t-122 333.5zM514 -31l805 1495h80l-805 -1495h-80zM1114 440q0 200 111 330.5t295 130.5 t294.5 -130t110.5 -331q0 -200 -110.5 -330t-294.5 -130t-295 130t-111 330zM1196 440q0 -176 89.5 -282.5t234.5 -106.5t234 106.5t89 282.5t-89 282.5t-234 106.5t-234.5 -106.5t-89.5 -282.5z" />
<glyph unicode="&#x2109;" horiz-adv-x="1546" d="M20 1202q0 107 76 181.5t185 74.5t184.5 -74.5t75.5 -181.5t-75.5 -181.5t-184.5 -74.5t-185 74.5t-76 181.5zM94 1202q0 -78 55 -132t132 -54t131.5 54t54.5 132t-54.5 132.5t-131.5 54.5t-132 -54.5t-55 -132.5zM649 0v1434h848v-78h-762v-572h711v-77h-711v-707h-86z " />
<glyph unicode="&#x2113;" horiz-adv-x="925" d="M94 143q100 28 160 60q-111 224 -111 602q0 305 109 479t270 174q130 0 199.5 -119.5t69.5 -343.5q0 -265 -108 -482.5t-314 -342.5q82 -117 196 -117q70 0 123 43.5t80 130.5l63 -53q-69 -199 -266 -199q-161 0 -268 154q-76 -36 -172 -61zM229 807q0 -360 97 -565 q104 64 180.5 154t118 191.5t61 201.5t19.5 204q0 201 -50.5 294t-136.5 93q-53 0 -103.5 -36t-92.5 -104t-67.5 -180.5t-25.5 -252.5z" />
<glyph unicode="&#x2116;" horiz-adv-x="1869" d="M176 0v1434h111l559 -1287v1287h86v-1434h-113l-557 1286v-1286h-86zM1034 0v72h742v-72h-742zM1053 659q0 188 96 304t258 116t258 -116t96 -304t-95.5 -303.5t-258.5 -115.5t-258.5 115.5t-95.5 303.5zM1137 659q0 -162 74.5 -253t195.5 -91t195.5 91t74.5 253 t-74.5 253.5t-195.5 91.5t-195.5 -91.5t-74.5 -253.5z" />
<glyph unicode="&#x2117;" horiz-adv-x="1703" d="M117 717q0 151 58.5 288.5t157.5 236.5t234.5 157.5t284.5 58.5t284.5 -58.5t234.5 -157.5t157.5 -236.5t58.5 -288.5t-58.5 -288.5t-157.5 -236.5t-234.5 -158t-284.5 -59t-284.5 59t-234.5 158t-157.5 236.5t-58.5 288.5zM174 717q0 -139 54 -266t145 -219 t216.5 -146.5t262.5 -54.5t262.5 54.5t216.5 146.5t145 219t54 266t-54 266t-145 219t-216.5 146.5t-262.5 54.5t-262.5 -54.5t-216.5 -146.5t-145 -219t-54 -266zM592 266v875h299q148 0 235.5 -78t87.5 -213t-87.5 -213t-235.5 -78h-223v-293h-76zM668 627h215 q123 0 189.5 61t66.5 162q0 102 -66.5 163.5t-189.5 61.5h-215v-448z" />
<glyph unicode="&#x2120;" horiz-adv-x="1349" d="M94 1280q0 74 58 118t161 44q84 0 154 -31l-4 -65q-57 32 -146 32q-73 0 -111 -25.5t-38 -70.5q0 -42 31.5 -73.5t107.5 -61.5q106 -41 151.5 -89.5t45.5 -119.5q0 -84 -60 -131t-170 -47q-96 0 -174 37l9 71q73 -45 159 -45q83 0 122.5 31t39.5 82q0 92 -156 149 q-96 35 -138 81.5t-42 113.5zM586 768v666h86l239 -351l240 351h86v-666h-72v565l-229 -329h-49l-230 329v-565h-71z" />
<glyph unicode="&#x2122;" horiz-adv-x="1363" d="M33 1368v66h497v-66h-213v-598h-71v598h-213zM600 768v666h86l240 -351l239 351h86v-666h-71v565l-230 -329h-49l-229 329v-565h-72z" />
<glyph unicode="&#x2126;" horiz-adv-x="1437" d="M104 758q0 148 41.5 275.5t118 222t194 148.5t261.5 54q191 0 332 -93.5t211.5 -250.5t70.5 -356q0 -220 -102.5 -396t-267.5 -286h344v-76h-469v72q193 119 300 291t107 395q0 277 -140 449.5t-386 172.5q-164 0 -284.5 -81t-181 -221t-60.5 -320q0 -223 107 -395 t300 -291v-72h-469v76h344q-165 110 -268 286t-103 396z" />
<glyph unicode="&#x212e;" horiz-adv-x="1540" d="M104 717q0 152 45.5 286t130 235.5t214.5 160.5t288 59q152 0 277 -59t206.5 -161.5t126 -239t44.5 -293.5v-25h-1016v-524q150 -119 420 -119q281 0 483 127l14 -68q-222 -121 -501 -121q-156 0 -280 38t-208 104.5t-139.5 161t-80 203t-24.5 235.5zM420 741h708v537 q-139 117 -352 117q-214 0 -356 -117v-537z" />
<glyph unicode="&#x2202;" horiz-adv-x="1150" d="M94 369q0 165 73 306.5t198.5 224.5t273.5 83q189 0 332 -115v19q0 255 -91 370t-274 115q-127 0 -229 -51l-8 80q100 49 243 49q216 0 330.5 -139t114.5 -416q0 -267 -79 -476.5t-223 -326.5t-329 -117q-158 0 -245 99.5t-87 294.5zM180 371q0 -318 248 -318 q152 0 271.5 100.5t186.5 265.5t81 369q-138 115 -330 115q-92 0 -176 -41.5t-145.5 -112t-98.5 -169.5t-37 -209z" />
<glyph unicode="&#x2206;" horiz-adv-x="1294" d="M25 0l575 1434h94l576 -1434h-1245zM150 76h995l-498 1253z" />
<glyph unicode="&#x220f;" horiz-adv-x="1386" d="M176 -227v1743h1034v-1743h-86v1665h-862v-1665h-86z" />
<glyph unicode="&#x2211;" horiz-adv-x="1259" d="M94 -139l453 817l-453 770v86h1092v-78h-1004l447 -754v-51l-449 -801h1006v-77h-1092v88z" />
<glyph unicode="&#x2212;" horiz-adv-x="1257" d="M135 641v78h987v-78h-987z" />
<glyph unicode="&#x2215;" horiz-adv-x="929" d="M49 -31l739 1495h93l-740 -1495h-92z" />
<glyph unicode="&#x2219;" horiz-adv-x="585" d="M233 680q0 58 13.5 79t46.5 21t46 -20.5t13 -79.5t-13 -79.5t-46 -20.5t-46.5 21t-13.5 79z" />
<glyph unicode="&#x221a;" horiz-adv-x="1454" d="M217 698v70h219l264 -688l377 1497h78l-393 -1577h-111l-270 698h-164z" />
<glyph unicode="&#x221f;" horiz-adv-x="1292" d="M217 0v1178h82v-1104h940v-74h-1022z" />
<glyph unicode="&#x2229;" horiz-adv-x="1544" d="M217 0v547q0 355 143.5 536t411.5 181t411.5 -181t143.5 -536v-547h-86v545q0 643 -469 643t-469 -643v-545h-86z" />
<glyph unicode="&#x222b;" horiz-adv-x="1132" d="M176 -434l10 76q56 -19 125 -19q107 0 160 69.5t53 235.5v1202q0 201 74.5 288t224.5 87q64 0 133 -16l-10 -78q-65 21 -125 21q-107 0 -161 -71t-54 -237v-1200q0 -201 -73.5 -288t-223.5 -87q-63 0 -133 17z" />
<glyph unicode="&#x2248;" horiz-adv-x="1257" d="M135 332q0 151 70 228t190 77q135 0 260 -125q59 -59 108.5 -84t106.5 -25q78 0 123.5 58.5t46.5 171.5h82q0 -151 -70 -228t-190 -77q-135 0 -260 125q-58 58 -108 83t-107 25q-78 0 -123.5 -58t-46.5 -171h-82zM135 727q0 151 70 228t190 77q135 0 260 -125 q58 -58 108 -83t107 -25q78 0 123.5 58t46.5 171h82q0 -151 -70 -228t-190 -77q-135 0 -260 125q-58 58 -108 83t-107 25q-78 0 -123.5 -58t-46.5 -171h-82z" />
<glyph unicode="&#x2260;" horiz-adv-x="1257" d="M135 416v78h324l252 372h-576v78h629l258 381h88l-258 -381h270v-78h-323l-252 -372h575v-78h-628l-258 -381h-89l259 381h-271z" />
<glyph unicode="&#x2261;" horiz-adv-x="1257" d="M135 291v78h987v-78h-987zM135 641v78h987v-78h-987zM135 991v78h987v-78h-987z" />
<glyph unicode="&#x2264;" horiz-adv-x="1257" d="M135 115v78h987v-78h-987zM135 768v86l987 446v-86l-893 -403l893 -403v-86z" />
<glyph unicode="&#x2265;" horiz-adv-x="1257" d="M135 115v78h987v-78h-987zM135 322v86l893 403l-893 403v86l987 -446v-86z" />
<glyph unicode="&#x2302;" horiz-adv-x="1437" d="M217 0v672l502 590l502 -590v-672h-1004zM299 74h840v571l-420 496l-420 -496v-571z" />
<glyph unicode="&#x2310;" horiz-adv-x="1257" d="M145 332v563h988v-78h-902v-485h-86z" />
<glyph unicode="&#x2320;" horiz-adv-x="1402" d="M668 0v336q0 387 51 698q16 97 40.5 170t62 132.5t93 90.5t127.5 31q84 0 134.5 -46.5t50.5 -106.5q0 -56 -32.5 -87.5t-90.5 -31.5q-48 0 -76 25t-34.5 55t-13 55t-17.5 25q-125 0 -125 -914v-432h-170z" />
<glyph unicode="&#x2321;" horiz-adv-x="1402" d="M279 741q0 56 32 87.5t90 31.5q39 0 65 -16.5t36.5 -40t16 -47t10.5 -40t14 -16.5q125 0 125 914v432h170v-336q0 -381 -52 -698q-16 -97 -40.5 -170t-62 -132.5t-93 -90.5t-127.5 -31q-84 0 -134 46.5t-50 106.5z" />
<glyph unicode="&#x25ca;" horiz-adv-x="1187" d="M94 618l500 941l500 -941l-500 -940zM174 618l420 -792l420 792l-420 793z" />
<glyph unicode="&#x25e6;" horiz-adv-x="948" d="M115 614q0 153 104 256t254 103t255.5 -103t105.5 -256t-105.5 -256.5t-255.5 -103.5t-254 103.5t-104 256.5zM184 614q0 -124 84 -207t205 -83q122 0 206.5 83t84.5 207t-84.5 206.5t-206.5 82.5q-121 0 -205 -83t-84 -206z" />
<glyph unicode="&#x25fc;" horiz-adv-x="1064" d="M0 0v1065h1065v-1065h-1065z" />
<glyph unicode="&#x263c;" horiz-adv-x="1624" d="M94 596v61h199q6 177 127 314l-141 141q8 7 23.5 22.5t23.5 22.5l139 -139q136 120 313 129v199h64v-199q180 -12 309 -129q73 70 143 143q8 -8 22.5 -23.5t22.5 -23.5l-141 -141q122 -135 131 -316h201v-61h-201q-12 -181 -131 -313q23 -24 70.5 -70.5t70.5 -69.5 q-7 -8 -22.5 -23.5t-22.5 -23.5l-141 142q-138 -121 -311 -127v-199h-64v199q-176 6 -315 129q-24 -24 -70 -71.5t-69 -70.5q-14 16 -45 47q23 24 70 70.5t71 69.5q-121 138 -127 311h-199zM360 629q0 -187 132 -319t319 -132q186 0 318.5 132t132.5 319q0 186 -132.5 318 t-318.5 132q-187 0 -319 -132t-132 -318z" />
<glyph unicode="&#xe00a;" horiz-adv-x="1292" d="M217 0v1178h82v-1104h940v-74h-1022z" />
<glyph unicode="&#xf001;" horiz-adv-x="1087" d="M16 987v74h236v57q0 201 74.5 289t222.5 88q77 0 133 -18l-10 -74q-52 18 -121 18q-113 0 -165 -67t-52 -240v-53h321v-74h-321v-987h-82v987h-236zM827 1397q0 56 12 77t42 21t41.5 -21t11.5 -77t-11.5 -76.5t-41.5 -20.5t-42 20.5t-12 76.5zM840 0v1061h82v-1061h-82z " />
<glyph unicode="&#xf002;" horiz-adv-x="1087" d="M16 987v74h236v57q0 201 74.5 289t222.5 88q77 0 133 -18l-10 -74q-52 18 -121 18q-113 0 -165 -67t-52 -240v-53h321v-74h-321v-987h-82v987h-236zM840 0v1495h82v-1495h-82z" />
<glyph unicode="&#xf6c3;" horiz-adv-x="806" d="M324 -465q58 74 61 154q-24 4 -32.5 28.5t-8.5 69.5q0 59 13 79.5t46 20.5t46.5 -21t13.5 -79q0 -86 -22 -155t-83 -140z" />
<glyph unicode="&#xf800;" horiz-adv-x="1222" d="M119 717q0 220 57.5 387t169 260.5t264.5 93.5q231 0 362.5 -203t131.5 -538q0 -337 -131.5 -539.5t-362.5 -202.5q-153 0 -264.5 93.5t-169 260.5t-57.5 388zM205 717q0 -306 107 -485t298 -179q192 0 300 179.5t108 484.5q0 304 -108.5 483.5t-299.5 179.5 q-190 0 -297.5 -179.5t-107.5 -483.5z" />
<glyph unicode="&#xf801;" horiz-adv-x="735" d="M27 1167l393 267h78v-1434h-86v1333l-338 -229z" />
<glyph unicode="&#xf802;" horiz-adv-x="1026" d="M82 0v84q236 201 514 514q120 135 173.5 249t53.5 230q0 149 -98.5 226t-265.5 77q-173 0 -307 -73l-11 79q147 72 322 72q202 0 324 -99t122 -284q0 -128 -56.5 -251.5t-180.5 -262.5q-262 -295 -479 -483h727v-78h-838z" />
<glyph unicode="&#xf803;" horiz-adv-x="1071" d="M113 31l8 86q143 -64 325 -64q200 0 307 84t107 217q0 338 -547 359v78q154 4 269.5 40.5t185.5 112t70 182.5q0 113 -89.5 183.5t-271.5 70.5q-178 0 -323 -71l-11 80q148 69 336 69q214 0 329.5 -89t115.5 -236q0 -162 -110 -257t-302 -124q434 -62 434 -396 q0 -171 -129 -276t-368 -105q-192 0 -336 56z" />
<glyph unicode="&#xf804;" horiz-adv-x="1114" d="M66 344v90l731 1000h86v-1012h190v-78h-190v-344h-86v344h-731zM156 422h641v876z" />
<glyph unicode="&#xf805;" horiz-adv-x="1122" d="M156 37l8 88q141 -72 317 -72q200 0 315 101t115 274q0 171 -99 259.5t-290 88.5q-166 0 -313 -57v715h739v-78h-653v-543q112 41 240 41q217 0 339.5 -111t122.5 -321q0 -200 -136 -323.5t-376 -123.5q-191 0 -329 62z" />
<glyph unicode="&#xf806;" horiz-adv-x="1177" d="M119 670q0 202 42.5 355.5t121 247t182 139.5t231.5 46q158 0 269 -51l-9 -86q-118 59 -266 59q-105 0 -188 -36.5t-136 -97.5t-89 -149t-52 -183t-20 -207q82 98 186 148t217 50q217 0 339 -126t122 -341q0 -206 -128 -334.5t-323 -128.5q-107 0 -196.5 41.5t-158 124.5 t-106.5 218t-38 311zM205 590q5 -115 30 -207t64 -153t91 -101.5t108 -58t118 -17.5q163 0 265 109t102 274q0 180 -95 285.5t-284 105.5q-117 0 -221.5 -61.5t-177.5 -175.5z" />
<glyph unicode="&#xf807;" horiz-adv-x="937" d="M41 1356v78h842v-93l-553 -1341h-92l559 1356h-756z" />
<glyph unicode="&#xf808;" horiz-adv-x="1185" d="M115 356q0 136 97.5 237.5t266.5 166.5q-155 63 -229 150t-74 208q0 140 119.5 240t298.5 100q192 0 305 -96.5t113 -241.5q0 -246 -316 -368q207 -83 291 -177t84 -221q0 -174 -133 -276.5t-344 -102.5t-345 101t-134 280zM201 356q0 -137 110.5 -220t282.5 -83 q169 0 280 83.5t111 213.5q0 56 -17.5 101t-61.5 92t-126.5 90.5t-206.5 87.5q-177 -59 -274.5 -150.5t-97.5 -214.5zM262 1122q0 -124 81.5 -195.5t264.5 -138.5q318 113 318 334q0 110 -89 184t-243 74q-139 0 -235.5 -76.5t-96.5 -181.5z" />
<glyph unicode="&#xf809;" horiz-adv-x="1177" d="M109 995q0 207 127.5 335t322.5 128q86 0 160 -25.5t137 -80.5t108 -135.5t70 -196t25 -256.5q0 -163 -28 -294t-79 -223t-123.5 -153.5t-159 -90t-188.5 -28.5q-155 0 -268 52l8 86q120 -60 266 -60q461 0 484 674q-81 -99 -185.5 -149t-216.5 -50q-217 0 -338.5 126 t-121.5 341zM195 997q0 -180 94.5 -285.5t283.5 -105.5q116 0 220.5 61.5t177.5 174.5q-6 143 -42.5 250.5t-94.5 168.5t-126.5 90t-146.5 29q-163 0 -264.5 -109t-101.5 -274z" />
<glyph unicode="&#xf80a;" d="M55 961q0 225 87.5 357t244.5 132q159 0 246.5 -132t87.5 -357q0 -226 -87.5 -358t-246.5 -132q-158 0 -245 132t-87 358zM133 961q0 -196 66 -308t188 -112q123 0 189.5 112t66.5 308q0 195 -66.5 306t-189.5 111q-122 0 -188 -111.5t-66 -305.5z" />
<glyph unicode="&#xf80b;" d="M160 1260l235 176h70v-953h-78v856l-188 -141z" />
<glyph unicode="&#xf80c;" d="M102 483v72q198 157 361 365q117 148 117 264q0 196 -220 196q-124 0 -227 -59l-6 76q101 53 235 53q141 0 218 -69.5t77 -196.5q0 -70 -28.5 -140t-102.5 -165q-149 -189 -317 -328h457v-68h-564z" />
<glyph unicode="&#xf80d;" d="M100 508l9 76q97 -47 221 -47q121 0 185.5 54t64.5 134q0 98 -85 159.5t-276 61.5v70q175 0 260.5 57t85.5 137q0 82 -61 126t-164 44q-121 0 -215 -49l-8 72q99 47 225 47q139 0 220 -62t81 -176q0 -86 -58.5 -147t-168.5 -82q241 -56 241 -258q0 -117 -87 -187.5 t-238 -70.5q-130 0 -232 41z" />
<glyph unicode="&#xf80e;" d="M49 700v68l475 666h78v-666h113v-68h-113v-215h-78v215h-475zM135 768h389v545z" />
<glyph unicode="&#xf80f;" d="M115 510l8 76q88 -49 196 -49q128 0 203.5 63t75.5 174q0 109 -70 171.5t-194 62.5q-109 0 -191 -45v471h500v-68h-424v-317q56 26 131 26q145 0 235.5 -80t90.5 -223t-97.5 -223t-256.5 -80q-114 0 -207 41z" />
<glyph unicode="&#xf810;" d="M80 920q0 146 29.5 252t84 165t121.5 86t152 27q109 0 184 -37l-8 -70q-74 39 -178 39q-68 0 -119.5 -20t-93.5 -65.5t-66 -126.5t-28 -197q43 53 111 83.5t143 30.5q141 0 225 -86t84 -227q0 -136 -88.5 -221.5t-218.5 -85.5q-151 0 -242.5 115.5t-91.5 337.5zM158 889 q6 -185 75.5 -269.5t178.5 -84.5q103 0 167 69t64 170q0 110 -62 178t-178 68q-146 0 -245 -131z" />
<glyph unicode="&#xf811;" d="M109 1366v68h571v-70l-363 -879h-90l365 881h-483z" />
<glyph unicode="&#xf812;" d="M70 723q0 89 60.5 157.5t164.5 106.5q-189 79 -189 230q0 105 79.5 169t203.5 64q123 0 201 -65.5t78 -167.5q0 -154 -195 -234q127 -52 180.5 -115.5t53.5 -144.5q0 -117 -88 -186.5t-228 -69.5q-141 0 -231 68.5t-90 187.5zM145 723q0 -86 70 -137t176 -51 q103 0 171.5 51.5t68.5 132.5q0 73 -55.5 127t-202.5 106q-119 -43 -173.5 -95t-54.5 -134zM182 1219q0 -68 49.5 -112t165.5 -93q195 67 195 205q0 68 -57 115.5t-146 47.5q-95 0 -151 -48t-56 -115z" />
<glyph unicode="&#xf813;" d="M55 1143q0 136 88.5 221.5t218.5 85.5q151 0 242.5 -115.5t91.5 -337.5q0 -146 -29.5 -252t-84 -165t-121.5 -86t-152 -27q-109 0 -184 37l8 69q72 -38 178 -38q67 0 118.5 20t93 65.5t65.5 126.5t28 197q-41 -53 -109.5 -84t-141.5 -31q-141 0 -225.5 86.5t-84.5 227.5z M133 1143q0 -110 62 -178t178 -68q146 0 245 131q-6 183 -76 268.5t-177 85.5q-103 0 -167.5 -69t-64.5 -170z" />
<glyph unicode="&#xf814;" d="M55 217q0 225 87.5 357.5t244.5 132.5q159 0 246.5 -132.5t87.5 -357.5q0 -226 -87.5 -357.5t-246.5 -131.5q-158 0 -245 131.5t-87 357.5zM133 217q0 -196 66 -308t188 -112q123 0 189.5 112t66.5 308q0 195 -66.5 306.5t-189.5 111.5q-121 0 -187.5 -111.5 t-66.5 -306.5z" />
<glyph unicode="&#xf815;" d="M160 516l235 176h70v-952h-78v856l-188 -141z" />
<glyph unicode="&#xf816;" d="M102 -188q200 158 361 364q117 148 117 264q0 101 -58 149t-162 48q-124 0 -227 -59l-6 75q103 54 235 54q141 0 218 -69.5t77 -197.5q0 -70 -28.5 -140t-102.5 -165q-149 -189 -317 -328h457v-67h-564v72z" />
<glyph unicode="&#xf817;" d="M100 -236l9 76q97 -47 221 -47q121 0 185.5 54.5t64.5 134.5q0 98 -85 159.5t-276 61.5v69q175 0 260.5 57.5t85.5 137.5q0 82 -61 126t-164 44q-121 0 -215 -49l-8 71q101 48 225 48q139 0 220 -62t81 -176q0 -86 -58.5 -147t-168.5 -82q241 -56 241 -258 q0 -117 -87 -187.5t-238 -70.5q-133 0 -232 40z" />
<glyph unicode="&#xf818;" d="M49 25l475 665h78v-665h113v-68h-113v-215h-78v215h-475v68zM135 25h389v544z" />
<glyph unicode="&#xf819;" d="M115 -233l8 75q88 -49 196 -49q127 0 203 63.5t76 174.5q0 109 -70 171t-194 62q-109 0 -191 -45v471h500v-67h-424v-318q59 27 131 27q145 0 235.5 -80t90.5 -223t-97.5 -223t-256.5 -80q-114 0 -207 41z" />
<glyph unicode="&#xf81a;" d="M80 176q0 146 29.5 252t84 165.5t121.5 86.5t152 27q109 0 184 -37l-8 -70q-74 39 -178 39q-68 0 -119.5 -20t-93.5 -65.5t-66 -127t-28 -197.5q43 53 111 84t143 31q141 0 225 -86t84 -227q0 -136 -88.5 -221.5t-218.5 -85.5q-151 0 -242.5 115t-91.5 337zM158 145 q6 -185 75.5 -269.5t178.5 -84.5q103 0 167 69.5t64 170.5q0 110 -62 177.5t-178 67.5q-146 0 -245 -131z" />
<glyph unicode="&#xf81b;" d="M109 623v67h571v-69l-363 -879h-90l365 881h-483z" />
<glyph unicode="&#xf81c;" d="M70 -20q0 89 60.5 157.5t164.5 106.5q-189 79 -189 229q0 105 79.5 169.5t203.5 64.5q122 0 200.5 -66t78.5 -168q0 -153 -195 -233q127 -52 180.5 -115.5t53.5 -144.5q0 -117 -88 -186.5t-228 -69.5q-141 0 -231 68.5t-90 187.5zM145 -20q0 -86 70 -137.5t176 -51.5 q103 0 171.5 51.5t68.5 132.5q0 74 -56 128.5t-202 105.5q-119 -43 -173.5 -95t-54.5 -134zM182 475q0 -68 49.5 -112t165.5 -93q195 67 195 205q0 68 -57 116t-146 48q-95 0 -151 -48.5t-56 -115.5z" />
<glyph unicode="&#xf81d;" d="M55 399q0 136 88.5 222t218.5 86q151 0 242.5 -115.5t91.5 -337.5q0 -146 -29.5 -252t-84 -165t-121.5 -86t-152 -27q-111 0 -184 36l8 70q74 -39 178 -39q67 0 118.5 20t93 65.5t65.5 127t28 197.5q-41 -53 -109.5 -84t-141.5 -31q-141 0 -225.5 86t-84.5 227zM133 399 q0 -110 62 -177.5t178 -67.5q146 0 245 131q-6 183 -76 268.5t-177 85.5q-103 0 -167.5 -69.5t-64.5 -170.5z" />
<glyph unicode="&#xfb00;" horiz-adv-x="1251" d="M16 987v74h236v57q0 202 81 289.5t247 87.5q86 0 163 -22l-10 -74q-61 22 -155 22q-132 0 -188 -66t-56 -241v-53h495v57q0 201 74.5 289t222.5 88q78 0 134 -18l-11 -74q-52 18 -121 18q-113 0 -165 -67t-52 -240v-53h322v-74h-322v-987h-82v987h-495v-987h-82v987h-236 z" />
<glyph unicode="&#xfb01;" horiz-adv-x="1087" d="M16 987v74h236v57q0 201 74.5 289t222.5 88q77 0 133 -18l-10 -74q-52 18 -121 18q-113 0 -165 -67t-52 -240v-53h321v-74h-321v-987h-82v987h-236zM827 1397q0 56 12 77t42 21t41.5 -21t11.5 -77t-11.5 -76.5t-41.5 -20.5t-42 20.5t-12 76.5zM840 0v1061h82v-1061h-82z " />
<glyph unicode="&#xfb02;" horiz-adv-x="1087" d="M16 987v74h236v57q0 201 74.5 289t222.5 88q77 0 133 -18l-10 -74q-52 18 -121 18q-113 0 -165 -67t-52 -240v-53h321v-74h-321v-987h-82v987h-236zM840 0v1495h82v-1495h-82z" />
<glyph unicode="&#xfb03;" horiz-adv-x="1665" d="M16 987v74h236v57q0 202 81 289.5t247 87.5q86 0 163 -22l-10 -74q-61 22 -155 22q-132 0 -188 -66t-56 -241v-53h495v57q0 201 74.5 289t222.5 88q78 0 134 -18l-11 -74q-52 18 -121 18q-113 0 -165 -67t-52 -240v-53h322v-74h-322v-987h-82v987h-495v-987h-82v987h-236 zM1405 1397q0 56 11.5 77t41.5 21t41.5 -21t11.5 -77t-11.5 -76.5t-41.5 -20.5t-41.5 20.5t-11.5 76.5zM1417 0v1061h82v-1061h-82z" />
<glyph unicode="&#xfb04;" horiz-adv-x="1665" d="M16 987v74h236v57q0 202 81 289.5t247 87.5q86 0 163 -22l-10 -74q-61 22 -155 22q-132 0 -188 -66t-56 -241v-53h495v57q0 201 74.5 289t222.5 88q78 0 134 -18l-11 -74q-52 18 -121 18q-113 0 -165 -67t-52 -240v-53h322v-74h-322v-987h-82v987h-495v-987h-82v987h-236 zM1417 0v1495h82v-1495h-82z" />
<glyph horiz-adv-x="1024" d="M102 0v1536h820v-1536h-820zM213 109h596v1316h-596v-1316z" />
<glyph horiz-adv-x="806" d="M76 1163l284 332h86l285 -332h-88l-240 271l-239 -271h-88z" />
<glyph horiz-adv-x="806" d="M350 1327q0 56 11.5 77t41.5 21t42 -21t12 -77t-12 -77t-42 -21t-41.5 21t-11.5 77z" />
<glyph horiz-adv-x="806" d="M76 1495h88l239 -270l240 270h88l-285 -332h-86z" />
<glyph horiz-adv-x="806" d="M197 1495h108l258 -332h-82z" />
<glyph horiz-adv-x="806" d="M86 1487h78q3 -118 68.5 -182t170.5 -64t171 64t69 182h78q-4 -153 -94 -235.5t-224 -82.5t-223.5 82.5t-93.5 235.5z" />
<glyph horiz-adv-x="806" d="M324 -465q58 74 61 154q-24 4 -32.5 28.5t-8.5 69.5q0 59 13 79.5t46 20.5t46.5 -21t13.5 -79q0 -86 -22 -155t-83 -140z" />
<glyph horiz-adv-x="806" d="M141 1327q0 56 12 77t42 21t41.5 -21t11.5 -77t-11.5 -77t-41.5 -21t-42 21t-12 77zM559 1327q0 56 11.5 77t41.5 21t42 -21t12 -77t-12 -77t-42 -21t-41.5 21t-11.5 77z" />
<glyph horiz-adv-x="806" d="M127 1288v74h553v-74h-553z" />
<glyph horiz-adv-x="806" d="M229 -406q43 -18 101 -18q78 0 120 31.5t42 83.5q0 55 -54.5 93t-156.5 44l96 172h80l-76 -133q89 -18 137.5 -65.5t48.5 -110.5q0 -82 -59.5 -130t-175.5 -48q-57 0 -103 14v67z" />
<glyph horiz-adv-x="806" d="M195 1329q0 87 60.5 147t147.5 60q88 0 148.5 -60.5t60.5 -146.5t-60.5 -146.5t-148.5 -60.5q-87 0 -147.5 60t-60.5 147zM260 1329q0 -60 41.5 -102.5t101.5 -42.5t102 42.5t42 102.5t-42 103t-102 43t-101.5 -43t-41.5 -103z" />
<glyph horiz-adv-x="1536" d="M47 1151q66 81 70 170q-24 4 -32.5 28.5t-8.5 69.5q0 59 13 80t46 21t46.5 -21t13.5 -80q0 -97 -25 -171t-88 -140zM291 0v1434h104l879 -1317v1317h86v-1434h-105l-878 1315v-1315h-86z" />
<glyph horiz-adv-x="806" d="M76 1495h88l239 -270l240 270h88l-285 -332h-86z" />
<glyph horiz-adv-x="1310" d="M176 0v1434h86v-656l715 656h115l-725 -670l813 -764h-117l-801 748v-748h-86zM1116 1208q0 97 25 171.5t88 140.5l35 -43q-66 -81 -70 -170q24 -4 32.5 -29t8.5 -70q0 -59 -13 -79.5t-46 -20.5t-46.5 21t-13.5 79z" />
<glyph horiz-adv-x="806" d="M344 1208q0 97 25 171.5t88 140.5l35 -43q-66 -81 -70 -170q24 -4 32.5 -29t8.5 -70q0 -58 -13.5 -79t-46.5 -21t-46 20.5t-13 79.5z" />
<glyph horiz-adv-x="413" d="M154 1397q0 56 11.5 77t41.5 21t41.5 -21t11.5 -77t-11.5 -76.5t-41.5 -20.5t-41.5 20.5t-11.5 76.5zM166 0v1061h82v-1061h-82z" />
<glyph horiz-adv-x="806" d="M258 -287q0 142 166 287h82q-166 -147 -166 -276q0 -101 131 -101q47 0 88 15v-74q-41 -13 -98 -13q-100 0 -151.5 43.5t-51.5 118.5z" />
<glyph horiz-adv-x="806" d="M86 1192q0 141 46 207.5t124 66.5q42 0 78 -21t61 -51t48 -60t49 -51t53 -21q98 0 98 200h78q0 -140 -46.5 -207t-123.5 -67q-36 0 -67.5 15t-53.5 38t-44 49.5t-39.5 49.5t-39.5 38t-45 15q-98 0 -98 -201h-78z" />
<glyph horiz-adv-x="806" d="M84 1163l258 332h109l-285 -332h-82zM375 1163l258 332h108l-284 -332h-82z" />
<glyph horiz-adv-x="806" d="M246 1163l258 332h108l-284 -332h-82z" />
</font>
</defs>
</svg>
